<svg width="130" height="101" viewBox="0 0 130 101" fill="none" xmlns="http://www.w3.org/2000/svg">
<path d="M0 71.5652C0 64.9235 1.78019 58.5965 4.99916 52.8426C5.17319 52.5315 5.5071 52.3412 5.86801 52.3412H121.142C121.503 52.3412 121.837 52.5315 122.011 52.8426C125.23 58.5965 127.01 64.9235 127.01 71.5652C127.01 78.2069 125.23 84.5339 122.011 90.2879C121.837 90.5989 121.503 90.7893 121.142 90.7893H5.86807C5.50717 90.7893 5.17324 90.5989 4.99922 90.2879C1.78021 84.5339 0 78.2069 0 71.5652Z" fill="white"/>
<path d="M10.5053 95.5953C9.67812 95.5953 9.21258 96.5205 9.73675 97.1501C10.5778 98.1603 11.4671 99.1451 12.4024 100.103C12.5896 100.294 12.8487 100.401 13.1189 100.401H113.891C114.161 100.401 114.42 100.294 114.607 100.103C115.543 99.1451 116.432 98.1603 117.273 97.1501C117.797 96.5205 117.332 95.5953 116.505 95.5953H10.5053Z" fill="white"/>
<path d="M118.144 0.802685C118.476 0.359298 119.112 0.269221 119.558 0.602577L129.604 8.11669C130.049 8.44985 130.132 9.07713 129.787 9.51061L122.623 18.5146C122.285 18.9396 121.663 19.0185 121.226 18.6919L111.448 11.3786C111.012 11.0522 110.923 10.4416 111.248 10.0074L118.144 0.802685Z" fill="white"/>
<path d="M9.73666 45.9804C10.5777 44.9701 11.4671 43.9853 12.4024 43.0277C12.5896 42.836 12.8487 42.7291 13.1188 42.7291H86.7354L106.823 15.914C107.155 15.4706 107.792 15.3806 108.238 15.7139L117.843 22.8985C118.289 23.2317 118.371 23.8589 118.026 24.2924L103.357 42.7291H113.891C114.161 42.7291 114.42 42.836 114.607 43.0277C115.543 43.9853 116.432 44.9701 117.273 45.9804C117.797 46.6099 117.332 47.5352 116.505 47.5352H10.5052C9.67804 47.5352 9.2125 46.6099 9.73666 45.9804Z" fill="white"/>
</svg>
