<svg width="77" height="130" viewBox="0 0 77 130" fill="none" xmlns="http://www.w3.org/2000/svg">
<path d="M30.0646 50.9071C30.4533 46.6686 34.0417 43.3483 38.4109 43.3483C42.7801 43.3483 46.3684 46.6686 46.7571 50.9071H48.7778C48.3837 45.5627 43.8929 41.3483 38.4109 41.3483C32.9288 41.3483 28.438 45.5627 28.0439 50.9071H30.0646Z" fill="white"/>
<path fill-rule="evenodd" clip-rule="evenodd" d="M11.5834 96.8046H14.7679H17.815H59.0114H62.0585H65.2383L50.5981 71.6213L39.4437 52.4342H37.378L26.2259 71.6174L11.5834 96.8046ZM15.0715 94.8046H61.7503L38.4109 54.6575L15.0715 94.8046Z" fill="white"/>
<path d="M38.4132 106.687C32.4962 106.687 27.214 105.361 23.4646 103.292C20.0809 101.425 18.1893 99.1144 17.815 96.8046H14.7679C14.9417 98.5246 15.6365 100.113 16.7112 101.537L15.6185 106.253L20.2552 104.841C20.808 105.221 21.3906 105.58 21.9976 105.915C23.0813 106.512 24.2631 107.049 25.5267 107.518L26.7239 112.238L30.2273 108.861C32.0489 109.243 33.9722 109.5 35.9637 109.616L38.4132 113.829L40.8627 109.616C42.8542 109.5 44.7775 109.243 46.599 108.861L50.1024 112.238L51.2997 107.518C52.5633 107.049 53.7451 106.512 54.8287 105.915C55.4502 105.572 56.0462 105.204 56.6108 104.814L61.2234 106.218L60.1331 101.513C61.1977 100.095 61.8856 98.515 62.0585 96.8046H59.0114C58.6371 99.1144 56.7455 101.425 53.3618 103.292C49.6123 105.361 44.3302 106.687 38.4132 106.687Z" fill="#E4692E"/>
<path d="M61.7503 94.8046H15.0715L38.4109 54.6575L61.7503 94.8046Z" fill="#E4692E"/>
<path d="M67.6279 72.6469C67.6279 73.8891 66.6139 74.8961 65.3632 74.8961C64.1124 74.8961 63.0985 73.8891 63.0985 72.6469C63.0985 71.4048 64.1124 70.3978 65.3632 70.3978C66.6139 70.3978 67.6279 71.4048 67.6279 72.6469Z" fill="#E4692E"/>
<path d="M15.4449 71.0951C15.4449 74.6849 12.5146 77.5951 8.89986 77.5951C7.82567 77.5951 6.81192 77.3381 5.91755 76.8826C7.18871 78.4026 9.10615 79.3705 11.2512 79.3705C15.0786 79.3705 18.1812 76.2892 18.1812 72.4882C18.1812 69.1479 15.7852 66.3635 12.6069 65.7375C14.3211 66.9095 15.4449 68.872 15.4449 71.0951Z" fill="#E4692E"/>
<path d="M65.8161 65.4497V69.0483C65.8161 69.2968 65.6133 69.4982 65.3632 69.4982C65.113 69.4982 64.9102 69.2968 64.9102 69.0483V65.4497C64.9102 65.2013 65.113 64.9999 65.3632 64.9999C65.6133 64.9999 65.8161 65.2013 65.8161 65.4497Z" fill="#E4692E"/>
<path d="M68.2988 70.365L70.861 67.8204C71.0379 67.6447 71.0379 67.3599 70.861 67.1842C70.6842 67.0085 70.3974 67.0085 70.2205 67.1842L67.6583 69.7288C67.4814 69.9045 67.4814 70.1893 67.6583 70.365C67.8351 70.5406 68.1219 70.5406 68.2988 70.365Z" fill="#E4692E"/>
<path d="M68.9867 72.1972H72.6102C72.8604 72.1972 73.0632 72.3985 73.0632 72.647C73.0632 72.8954 72.8604 73.0968 72.6102 73.0968H68.9867C68.7365 73.0968 68.5338 72.8954 68.5338 72.647C68.5338 72.3985 68.7365 72.1972 68.9867 72.1972Z" fill="#E4692E"/>
<path d="M68.2988 74.9289L70.861 77.4735C71.0379 77.6491 71.0379 77.934 70.861 78.1096C70.6842 78.2853 70.3974 78.2853 70.2205 78.1096L67.6583 75.565C67.4814 75.3893 67.4814 75.1045 67.6583 74.9289C67.8351 74.7532 68.1219 74.7532 68.2988 74.9289Z" fill="#E4692E"/>
<path d="M65.8161 76.2456V79.8442C65.8161 80.0926 65.6133 80.294 65.3632 80.294C65.113 80.294 64.9102 80.0926 64.9102 79.8442V76.2456C64.9102 75.9971 65.113 75.7957 65.3632 75.7957C65.6133 75.7957 65.8161 75.9971 65.8161 76.2456Z" fill="#E4692E"/>
<path d="M62.4275 74.9289L59.8653 77.4735C59.6884 77.6491 59.6884 77.934 59.8653 78.1096C60.0422 78.2853 60.329 78.2853 60.5058 78.1096L63.0681 75.565C63.245 75.3893 63.245 75.1045 63.0681 74.9289C62.8912 74.7532 62.6044 74.7532 62.4275 74.9289Z" fill="#E4692E"/>
<path d="M58.1161 72.1972H61.7396C61.9898 72.1972 62.1926 72.3985 62.1926 72.647C62.1926 72.8954 61.9898 73.0968 61.7396 73.0968H58.1161C57.866 73.0968 57.6632 72.8954 57.6632 72.647C57.6632 72.3985 57.866 72.1972 58.1161 72.1972Z" fill="#E4692E"/>
<path d="M62.4275 70.365L59.8653 67.8204C59.6884 67.6447 59.6884 67.3599 59.8653 67.1842C60.0422 67.0085 60.329 67.0085 60.5058 67.1842L63.0681 69.7288C63.245 69.9045 63.245 70.1893 63.0681 70.365C62.8912 70.5406 62.6044 70.5406 62.4275 70.365Z" fill="#E4692E"/>
<path d="M15.0738 52.4342L26.2259 71.6174L37.378 52.4342H15.0738Z" fill="#E4692E"/>
<path d="M50.5981 71.6213L61.7525 52.4342H39.4437L50.5981 71.6213Z" fill="#E4692E"/>
<path d="M38.4109 37.6979C25.5219 37.6979 15.0734 43.6119 15.0734 50.9071H28.0439C28.438 45.5627 32.9288 41.3483 38.4109 41.3483C43.8929 41.3483 48.3837 45.5627 48.7778 50.9071H61.7484C61.7484 43.6119 51.2998 37.6979 38.4109 37.6979Z" fill="#E4692E"/>
<path d="M38.4109 43.3483C34.0417 43.3483 30.4533 46.6686 30.0646 50.9071H46.7571C46.3684 46.6686 42.7801 43.3483 38.4109 43.3483Z" fill="#E4692E"/>
<path d="M6.78098 24.8565L19.3038 37.2932C19.6045 37.5919 19.6045 38.0761 19.3038 38.3747C19.0031 38.6733 18.5156 38.6733 18.2149 38.3747L5.69203 25.9379C5.39133 25.6393 5.39133 25.1551 5.69203 24.8565C5.99274 24.5578 6.48028 24.5578 6.78098 24.8565Z" fill="#E4692E"/>
<path d="M22.3667 17.687L29.144 33.9364C29.3067 34.3266 29.1202 34.7739 28.7273 34.9355C28.3344 35.0972 27.884 34.9119 27.7212 34.5217L20.9439 18.2723C20.7811 17.8821 20.9677 17.4348 21.3606 17.2731C21.7535 17.1115 22.2039 17.2968 22.3667 17.687Z" fill="#E4692E"/>
<path d="M39.27 15.5214V33.1097C39.27 33.532 38.9253 33.8744 38.5 33.8744C38.0748 33.8744 37.73 33.532 37.73 33.1097V15.5214C37.73 15.0991 38.0748 14.7567 38.5 14.7567C38.9253 14.7567 39.27 15.0991 39.27 15.5214Z" fill="#E4692E"/>
<path d="M55.8779 17.687L49.1005 33.9364C48.9378 34.3266 49.1244 34.7739 49.5173 34.9355C49.9101 35.0972 50.3606 34.9119 50.5233 34.5217L57.3006 18.2723C57.4634 17.8821 57.2768 17.4348 56.8839 17.2731C56.491 17.1115 56.0406 17.2968 55.8779 17.687Z" fill="#E4692E"/>
<path fill-rule="evenodd" clip-rule="evenodd" d="M10.0692 0C4.50815 0 0 4.47714 0 9.99999L0 120C0 125.523 4.50813 130 10.0692 130H66.9308C72.4919 130 77 125.523 77 120V10C77 4.47715 72.4919 0 66.9308 0L10.0692 0ZM23.4646 103.292C27.214 105.361 32.4962 106.687 38.4132 106.687C44.3302 106.687 49.6123 105.361 53.3618 103.292C56.7455 101.425 58.6371 99.1144 59.0114 96.8046H62.0585C61.8856 98.515 61.1977 100.095 60.1331 101.513L61.2234 106.218L56.6108 104.814C56.0462 105.204 55.4502 105.572 54.8287 105.915C53.7451 106.512 52.5633 107.049 51.2997 107.518L50.1024 112.238L46.599 108.861C44.7775 109.243 42.8542 109.5 40.8627 109.616L38.4132 113.829L35.9637 109.616C33.9722 109.5 32.0489 109.243 30.2273 108.861L26.7239 112.238L25.5267 107.518C24.2631 107.049 23.0813 106.512 21.9976 105.915C21.3906 105.58 20.808 105.221 20.2552 104.841L15.6185 106.253L16.7112 101.537C15.6365 100.113 14.9417 98.5246 14.7679 96.8046H17.815C18.1893 99.1144 20.0809 101.425 23.4646 103.292ZM61.7503 94.8046H15.0715L38.4109 54.6575L61.7503 94.8046ZM65.3632 74.8961C66.6139 74.8961 67.6279 73.8891 67.6279 72.6469C67.6279 71.4048 66.6139 70.3978 65.3632 70.3978C64.1124 70.3978 63.0985 71.4048 63.0985 72.6469C63.0985 73.8891 64.1124 74.8961 65.3632 74.8961ZM15.4449 71.0951C15.4449 74.6849 12.5146 77.5951 8.89986 77.5951C7.82567 77.5951 6.81192 77.3381 5.91755 76.8826C7.18871 78.4026 9.10615 79.3705 11.2512 79.3705C15.0786 79.3705 18.1812 76.2892 18.1812 72.4882C18.1812 69.1479 15.7852 66.3635 12.6069 65.7375C14.3211 66.9095 15.4449 68.872 15.4449 71.0951ZM65.8161 69.0483V65.4497C65.8161 65.2013 65.6133 64.9999 65.3632 64.9999C65.113 64.9999 64.9102 65.2013 64.9102 65.4497V69.0483C64.9102 69.2968 65.113 69.4982 65.3632 69.4982C65.6133 69.4982 65.8161 69.2968 65.8161 69.0483ZM68.2988 70.365L70.861 67.8204C71.0379 67.6447 71.0379 67.3599 70.861 67.1842C70.6842 67.0085 70.3974 67.0085 70.2205 67.1842L67.6583 69.7288C67.4814 69.9045 67.4814 70.1893 67.6583 70.365C67.8351 70.5406 68.1219 70.5406 68.2988 70.365ZM72.6102 72.1972H68.9867C68.7365 72.1972 68.5338 72.3985 68.5338 72.647C68.5338 72.8954 68.7365 73.0968 68.9867 73.0968H72.6102C72.8604 73.0968 73.0632 72.8954 73.0632 72.647C73.0632 72.3985 72.8604 72.1972 72.6102 72.1972ZM68.2988 74.9289L70.861 77.4735C71.0379 77.6491 71.0379 77.934 70.861 78.1096C70.6842 78.2853 70.3974 78.2853 70.2205 78.1096L67.6583 75.565C67.4814 75.3893 67.4814 75.1045 67.6583 74.9289C67.8351 74.7532 68.1219 74.7532 68.2988 74.9289ZM65.8161 79.8442V76.2456C65.8161 75.9971 65.6133 75.7957 65.3632 75.7957C65.113 75.7957 64.9102 75.9971 64.9102 76.2456V79.8442C64.9102 80.0926 65.113 80.294 65.3632 80.294C65.6133 80.294 65.8161 80.0926 65.8161 79.8442ZM62.4275 74.9289L59.8653 77.4735C59.6884 77.6491 59.6884 77.934 59.8653 78.1096C60.0422 78.2853 60.329 78.2853 60.5058 78.1096L63.0681 75.565C63.245 75.3893 63.245 75.1045 63.0681 74.9289C62.8912 74.7532 62.6044 74.7532 62.4275 74.9289ZM61.7396 72.1972H58.1161C57.866 72.1972 57.6632 72.3985 57.6632 72.647C57.6632 72.8954 57.866 73.0968 58.1161 73.0968H61.7396C61.9898 73.0968 62.1926 72.8954 62.1926 72.647C62.1926 72.3985 61.9898 72.1972 61.7396 72.1972ZM62.4275 70.365L59.8653 67.8204C59.6884 67.6447 59.6884 67.3599 59.8653 67.1842C60.0422 67.0085 60.329 67.0085 60.5058 67.1842L63.0681 69.7288C63.245 69.9045 63.245 70.1893 63.0681 70.365C62.8912 70.5406 62.6044 70.5406 62.4275 70.365ZM26.2259 71.6174L15.0738 52.4342H37.378L26.2259 71.6174ZM50.5981 71.6213L61.7525 52.4342H39.4437L50.5981 71.6213ZM15.0734 50.9071C15.0734 43.6119 25.5219 37.6979 38.4109 37.6979C51.2998 37.6979 61.7484 43.6119 61.7484 50.9071H48.7778C48.3837 45.5627 43.8929 41.3483 38.4109 41.3483C32.9288 41.3483 28.438 45.5627 28.0439 50.9071H15.0734ZM38.4109 43.3483C34.0417 43.3483 30.4533 46.6686 30.0646 50.9071H46.7571C46.3684 46.6686 42.7801 43.3483 38.4109 43.3483ZM19.3038 37.2932L6.78098 24.8565C6.48028 24.5578 5.99274 24.5578 5.69203 24.8565C5.39133 25.1551 5.39133 25.6393 5.69203 25.9379L18.2149 38.3747C18.5156 38.6733 19.0031 38.6733 19.3038 38.3747C19.6045 38.0761 19.6045 37.5919 19.3038 37.2932ZM22.3667 17.687L29.144 33.9364C29.3067 34.3266 29.1202 34.7739 28.7273 34.9355C28.3344 35.0972 27.884 34.9119 27.7212 34.5217L20.9439 18.2723C20.7811 17.8821 20.9677 17.4348 21.3606 17.2731C21.7535 17.1115 22.2039 17.2968 22.3667 17.687ZM39.27 33.1097V15.5214C39.27 15.0991 38.9253 14.7567 38.5 14.7567C38.0748 14.7567 37.73 15.0991 37.73 15.5214V33.1097C37.73 33.532 38.0748 33.8744 38.5 33.8744C38.9253 33.8744 39.27 33.532 39.27 33.1097ZM55.8779 17.687L49.1005 33.9364C48.9378 34.3266 49.1244 34.7739 49.5173 34.9355C49.9101 35.0972 50.3606 34.9119 50.5233 34.5217L57.3006 18.2723C57.4634 17.8821 57.2768 17.4348 56.8839 17.2731C56.491 17.1115 56.0406 17.2968 55.8779 17.687ZM57.7451 37.2932L70.2679 24.8565C70.5686 24.5578 71.0562 24.5578 71.3569 24.8565C71.6576 25.1551 71.6576 25.6393 71.3569 25.9379L58.834 38.3747C58.5333 38.6733 58.0458 38.6733 57.7451 38.3747C57.4444 38.0761 57.4444 37.5919 57.7451 37.2932Z" fill="white"/>
<path d="M70.2679 24.8565L57.7451 37.2932C57.4444 37.5919 57.4444 38.0761 57.7451 38.3747C58.0458 38.6733 58.5333 38.6733 58.834 38.3747L71.3569 25.9379C71.6576 25.6393 71.6576 25.1551 71.3569 24.8565C71.0562 24.5578 70.5686 24.5578 70.2679 24.8565Z" fill="#E4692E"/>
</svg>
