<svg width="134" height="134" viewBox="0 0 134 134" fill="none" xmlns="http://www.w3.org/2000/svg">
<path d="M87.6424 124.524L113.688 61.1295L132 55.1829L99.0377 119.775L87.6424 124.524Z" fill="white"/>
<path d="M66.9912 132V36.0336L94.8911 22.567L80.1966 122.155L66.9912 132Z" fill="white"/>
<path d="M66.9912 132V36.0336L39.0913 22.567L53.7858 122.155L66.9912 132Z" fill="white"/>
<path d="M46.3576 124.524L20.3122 61.1295L2 55.1829L34.9623 119.775L46.3576 124.524Z" fill="white"/>
<path d="M66.9912 36.0336L94.8911 22.567L66.9912 2L39.0913 22.567L66.9912 36.0336Z" fill="white"/>
<path d="M20.3122 61.1295L46.3576 124.524L29.9967 49.5496L20.3122 61.1295Z" fill="white"/>
<path d="M2 55.1829L20.3122 61.1295L29.9967 49.5496L14.0532 45.8953L2 55.1829Z" fill="white"/>
<path d="M113.688 61.1295L132 55.1829L119.947 45.8953L104.003 49.5496L113.688 61.1295Z" fill="white"/>
<path d="M87.6424 124.524L113.688 61.1295L104.003 49.5496L87.6424 124.524Z" fill="white"/>
<path d="M113.688 61.1295L87.6424 124.524M113.688 61.1295L132 55.1829M113.688 61.1295L104.003 49.5496M87.6424 124.524L99.0377 119.775L132 55.1829M87.6424 124.524L104.003 49.5496M132 55.1829L119.947 45.8953L104.003 49.5496M66.9912 36.0336V132M66.9912 36.0336L94.8911 22.567M66.9912 36.0336L39.0913 22.567M66.9912 132L80.1966 122.155L94.8911 22.567M66.9912 132L53.7858 122.155L39.0913 22.567M94.8911 22.567L66.9912 2L39.0913 22.567M20.3122 61.1295L46.3576 124.524M20.3122 61.1295L2 55.1829M20.3122 61.1295L29.9967 49.5496M46.3576 124.524L34.9623 119.775L2 55.1829M46.3576 124.524L29.9967 49.5496M2 55.1829L14.0532 45.8953L29.9967 49.5496" stroke="#E4692E" stroke-width="3"/>
</svg>
