<svg width="73" height="73" viewBox="0 0 73 73" fill="none" xmlns="http://www.w3.org/2000/svg">
<path d="M4.54805 50.3558C2.51102 45.2121 1.74561 40.0786 1.74561 36.2207C1.74561 30.6694 2.66279 25.9435 4.2244 21.934C5.97502 17.4392 8.53548 13.8446 11.5215 10.9966C14.8642 7.80846 18.7402 5.55585 22.6105 4.02314C27.7542 1.98611 32.8878 1.2207 36.7456 1.2207C42.2564 1.2207 46.9547 2.14231 50.9467 3.71079C55.4397 5.47612 59.038 8.06088 61.8929 11.0734C65.0742 14.4301 67.3324 18.318 68.8771 22.1949C70.9119 27.302 71.7085 32.3902 71.7456 36.2207C71.7456 41.7601 70.8094 46.4789 69.2182 50.4847M4.54805 50.3558C5.35418 45.8059 6.74026 41.783 8.57274 38.2869M4.54805 50.3558C5.55709 52.9037 6.87814 55.4542 8.57274 57.8533M69.2182 50.4847C68.3825 45.9888 66.9867 42.0048 65.1591 38.5328M69.2182 50.4847C68.1377 53.2046 66.7554 55.5958 65.1591 57.692M36.7456 20.8813C35.4007 20.8791 34.0562 20.9631 32.7209 21.1332M36.7456 20.8813C38.1012 20.8835 39.4573 20.9732 40.8047 21.1503M36.7456 20.8813V28.266V30.1121M8.57274 38.2869L8.57274 50.3638V57.8533M8.57274 38.2869C9.74366 36.0529 11.0968 34.0341 12.5974 32.2304M8.57274 57.8533C9.4522 59.0984 10.4323 60.3027 11.5215 61.4448C11.869 61.8091 12.2275 62.167 12.5974 62.5179M12.5974 32.2304L12.5974 50.3718V62.5179M12.5974 32.2304C13.8439 30.7321 15.1922 29.3821 16.6221 28.1806M12.5974 62.5179C13.8128 63.6707 15.151 64.7477 16.6221 65.724M16.6221 28.1806L16.6221 50.3799V65.724M16.6221 28.1806C17.9029 27.1044 19.2492 26.1473 20.6468 25.3091M16.6221 65.724C17.8666 66.55 19.2062 67.3039 20.6468 67.9709C21.2339 68.2427 21.8378 68.5 22.4589 68.7419C23.1735 69.0202 23.9108 69.2781 24.6715 69.5139C25.9465 69.9092 27.2871 70.2426 28.6962 70.5069C29.9801 70.7477 31.321 70.9312 32.7209 71.0518C34.0117 71.163 35.3526 71.2207 36.7456 71.2207C37.9816 71.2054 39.3485 71.1109 40.8047 70.9213C42.097 70.753 43.4598 70.5098 44.8637 70.1805C46.1882 69.8699 47.5494 69.4827 48.9228 69.0095C49.5552 68.7917 50.1902 68.5556 50.8255 68.3004C51.5451 68.0112 52.2651 67.6976 52.9819 67.358C54.3547 66.7077 55.7158 65.9624 57.041 65.1129M20.6468 25.3091C21.9478 24.5289 23.2933 23.8518 24.6715 23.2778M20.6468 25.3091L20.6468 37.8485V44.1182V47.253M24.6715 23.2778C25.9866 22.7302 27.3315 22.2764 28.6962 21.9165M24.6715 23.2778L24.6715 36.8369V43.6164M28.6962 21.9165C30.0221 21.5668 31.3668 21.3057 32.7209 21.1332M28.6962 21.9165L28.6962 36.1602V39.7211M32.7209 21.1332V32.0802V34.817M40.8047 21.1503C42.1697 21.3298 43.5259 21.5991 44.8637 21.9582M40.8047 21.1503V32.0969V34.8335M44.8637 21.9582C46.2395 22.3275 47.596 22.7917 48.9228 23.3509M44.8637 21.9582V36.1972V39.7569M48.9228 23.3509C50.3122 23.9364 51.6691 24.626 52.9819 25.4197M48.9228 23.3509V36.8976V43.6709M52.9819 25.4197C54.3906 26.2714 55.7485 27.2429 57.041 28.3343M52.9819 25.4197V37.936V44.1941V47.3232M57.041 28.3343V50.4604V65.1129M57.041 28.3343C58.482 29.5512 59.8417 30.9171 61.1 32.4319M57.041 65.1129C58.444 64.2134 59.8066 63.1971 61.1 62.0528M61.1 32.4319V50.4685V62.0528M61.1 32.4319C62.6109 34.2508 63.9755 36.2844 65.1591 38.5328M61.1 62.0528C61.3601 61.8227 61.6175 61.5874 61.8717 61.3468C63.0391 60.2424 64.1425 59.0271 65.1591 57.692M65.1591 38.5328V50.4766V57.692M36.7456 60.8203L40.8047 55.6282L44.8637 50.4361L40.8047 43.0434L36.7456 35.6506L32.7209 43.0273L28.6962 50.4039L32.7209 55.6121L36.7456 60.8203Z" stroke="white" stroke-width="2" stroke-linecap="round"/>
</svg>
