<svg width="2565" height="1024" viewBox="0 0 2565 1024" fill="none" xmlns="http://www.w3.org/2000/svg">
<path d="M2283.04 915.664C2283.04 880.897 2332.73 743.912 2257 712.189M2283.04 915.664C2283.04 881.075 2299.66 853.056 2317.83 834.938M2283.04 915.664C2283.04 970.892 2238.27 1015.66 2183.04 1015.66H383.041C327.813 1015.66 283.041 970.892 283.041 915.664M283.041 107.664C283.041 142.431 232.601 279.415 308.327 311.138M283.041 107.664C283.041 142.252 265.669 170.271 247.501 188.389M283.041 107.664C283.041 52.4353 327.813 7.66382 383.041 7.66382H2183.04C2238.27 7.66382 2283.04 52.4353 2283.04 107.664M2257 712.189C2241.25 678.76 2247.48 688.782 2233.49 660.431C2220.1 633.29 2188.02 642.454 2197.54 682.99C2165.82 700.966 2183.93 734.594 2202.83 727.755C2245.83 712.189 2226.09 720 2257 712.189ZM2317.83 834.938C2327.21 791.189 2335.48 682.456 2293.53 597.52M2317.83 834.938C2346.4 806.44 2381.19 789.818 2393.97 739.337M2293.53 597.52C2279.03 587.714 2244.25 575.586 2230.85 568.1C2200.58 551.193 2230.85 524.112 2257 535.395C2261.69 522.604 2279.2 500.305 2293.53 515.654C2307.85 531.004 2299.49 576.628 2293.53 597.52ZM2393.97 739.337C2398.17 722.715 2399.99 702.423 2398.42 676.828C2395.69 632.596 2390.01 593.65 2382.82 559.74M2393.97 739.337C2414.21 709.546 2416.71 656.006 2479.9 620.642M2479.9 620.642C2521.21 597.52 2496.78 610.394 2544.22 589.047C2566.78 578.892 2562.27 535.395 2517.14 545.04C2497.95 515.654 2464.99 524.682 2470.87 554.067C2477.64 587.919 2479.9 568.1 2479.9 620.642ZM2382.82 559.74C2376.04 529.269 2343.1 452.84 2275.62 462.05M2382.82 559.74C2373.33 514.981 2361.23 478.995 2349.87 451.202M2275.62 462.05C2264.55 454.375 2246.64 427.341 2236.69 410.144C2218.11 378.039 2179.75 400.607 2193.75 432.712C2161.69 444.614 2164.07 480.602 2193.75 474.462C2223.43 468.322 2259.86 462.05 2275.62 462.05ZM2349.87 451.202C2336.09 417.468 2323.4 395.805 2317.83 385.181M2349.87 451.202C2348.15 436.444 2350.06 402.577 2371.55 385.181M2317.83 385.181C2301.2 362.582 2286.91 366.234 2263.77 346.955C2250.23 335.671 2250.83 295.667 2293.53 311.975C2310.64 284.383 2346.18 298.328 2338.25 318.745C2317.83 371.269 2319.96 365.567 2317.83 385.181ZM2371.55 385.181C2379.07 372.389 2391.83 366.055 2382.82 332.286C2371.55 290.074 2427.39 267.968 2427.39 305.204C2463.5 295.049 2470.27 324.387 2455.6 346.955C2443.32 365.85 2409.93 362.582 2371.55 385.181ZM308.327 311.138C324.082 344.568 317.845 334.546 331.836 362.897C345.231 390.038 377.306 380.873 367.789 340.338C399.513 322.361 381.397 288.733 362.502 295.573C319.499 311.138 339.238 303.327 308.327 311.138ZM247.501 188.389C238.121 232.138 229.848 340.871 271.804 425.807M247.501 188.389C218.925 216.888 184.137 233.509 171.364 283.991M271.804 425.807C286.301 435.614 321.082 447.741 334.483 455.228C364.747 472.135 334.483 499.216 308.327 487.932C303.637 500.724 286.131 523.023 271.804 507.673C257.478 492.323 265.835 446.7 271.804 425.807ZM171.364 283.991C167.158 300.612 165.339 320.904 166.914 346.499C169.636 390.732 175.322 429.677 182.509 463.587M171.364 283.991C151.119 313.781 148.621 367.321 85.4316 402.685M85.4316 402.685C44.1165 425.807 68.5477 412.934 21.1127 434.28C-1.45462 444.436 3.05873 487.932 48.1945 478.287C67.3771 507.673 100.337 498.646 94.4593 469.26C87.6887 435.409 85.4316 455.228 85.4316 402.685ZM182.509 463.587C189.292 494.059 222.225 570.487 289.714 561.277M182.509 463.587C191.996 508.347 204.099 544.333 215.456 572.125M289.714 561.277C300.778 568.952 318.686 595.986 328.638 613.183C347.218 645.289 385.583 622.721 371.579 590.615C403.638 578.714 401.255 542.725 371.579 548.865C341.902 555.005 305.468 561.277 289.714 561.277ZM215.456 572.125C229.241 605.86 241.928 627.522 247.501 638.147M215.456 572.125C217.183 586.884 215.265 620.751 193.776 638.147M247.501 638.147C264.13 660.745 278.422 657.094 301.557 676.373C315.097 687.657 314.495 727.661 271.804 711.353C254.69 738.945 219.146 724.999 227.083 704.582C247.501 652.059 245.369 657.761 247.501 638.147ZM193.776 638.147C186.264 650.939 173.496 657.272 182.509 691.042C193.776 733.254 137.941 755.36 137.941 718.123C101.832 728.279 95.0615 698.94 109.731 676.373C122.013 657.477 155.401 660.745 193.776 638.147Z" stroke="white" stroke-width="15" stroke-linecap="round"/>
</svg>
