<svg width="53" height="72" viewBox="0 0 53 72" fill="none" xmlns="http://www.w3.org/2000/svg">
<path d="M21.5201 71.6746C21.5201 70.2511 21.6128 68.9836 21.7825 67.8467M25.9593 12.0809C26.5455 13.1983 27.8796 15.4764 29.3294 19.0242M25.9593 12.0809C24.2106 9.70438 22.7075 10.0884 20.2746 8.06091C18.8506 6.87423 18.9139 2.66717 23.4035 4.38222C25.2033 1.4805 28.9413 2.94707 28.1066 5.09424C25.9593 10.6179 26.1836 10.0183 25.9593 12.0809ZM21.7825 67.8467C22.1435 64.1005 20.8744 55.774 12.9107 52.4378M21.7825 67.8467C22.4022 63.6955 24.0487 61.2852 25.9593 59.3798M12.9107 52.4378C12.2381 51.8997 9.75044 50.4133 8.05185 46.7878C7.28453 45.1501 2.6565 45.5061 3.36851 48.3541C-1.25952 50.0154 2.06316 53.4568 5.74185 53.4568C8.55849 53.4568 9.68213 52.7965 12.9107 52.4378ZM25.9593 59.3798C26.9459 54.7789 27.8158 43.344 23.4035 34.4117M25.9593 59.3798C28.9646 56.3827 32.6231 54.6348 33.9664 49.3258M23.4035 34.4117C21.8789 33.3804 18.2211 32.105 16.8119 31.3177C13.6292 29.5397 16.8119 26.6917 19.5626 27.8783C20.0558 26.5331 21.8968 24.188 23.4035 25.8023C24.9102 27.4166 24.0313 32.2145 23.4035 34.4117ZM33.9664 49.3258C34.4086 47.5779 34.5999 45.4439 34.4343 42.7522C34.148 38.1004 33.5501 34.0047 32.7943 30.4386M33.9664 49.3258C36.0954 46.1929 36.358 40.5624 43.0034 36.8434M43.0034 36.8434C47.3483 34.4117 44.7789 35.7655 49.7674 33.5207C52.1407 32.4527 51.6661 27.8783 46.9194 28.8926C44.902 25.8023 41.4359 26.7516 42.054 29.842C42.766 33.402 43.0034 31.3177 43.0034 36.8434ZM32.7943 30.4386C32.0809 27.234 28.6175 19.1964 21.5201 20.165M32.7943 30.4386C31.7966 25.7314 30.5238 21.9469 29.3294 19.0242M21.5201 20.165C20.3565 19.3578 18.4732 16.5148 17.4266 14.7063C15.4726 11.3299 11.4379 13.7032 12.9107 17.0796C9.5392 18.3313 9.78972 22.116 12.9107 21.4703C16.0316 20.8246 19.8632 20.165 21.5201 20.165ZM29.3294 19.0242C29.1478 17.4721 29.3495 13.9105 31.6094 12.0809M31.6094 12.0809C32.3993 10.7357 33.7422 10.0696 32.7943 6.51824C31.6094 2.07899 37.4813 -0.245765 37.4813 3.67024C41.2787 2.60223 41.9907 5.68759 40.448 8.06091C39.1563 10.0481 35.6451 9.70438 31.6094 12.0809Z" stroke="white" stroke-width="2"/>
</svg>
