<svg width="454" height="204" viewBox="0 0 454 204" fill="none" xmlns="http://www.w3.org/2000/svg">
<path d="M414.413 177.341C414.413 187.784 405.47 196.552 394.429 196.552H59.5714C48.5305 196.552 39.2844 189.122 39.58 177.641C39.9351 163.847 22.189 164.127 20.7404 177.641C19.7855 186.55 22.325 189.533 2 202M414.413 177.341C414.413 176.093 414.773 174.148 415.251 171.776M414.413 177.341C414.413 175.357 414.721 173.498 415.251 171.776M39.5574 26.3587C39.5574 15.9148 48.5304 7.44838 59.5714 7.44838H394.429C405.47 7.44838 414.42 15.9148 414.42 26.3587C414.065 40.1534 431.811 39.8735 433.26 26.3587C434.215 17.4504 431.675 14.4667 452 2.00001M39.5574 26.3587C39.5574 32.8773 29.7144 58.4549 44.7243 64.4028M39.5574 26.3587C39.5574 32.8438 36.2689 37.9911 32.6679 41.3881M44.7243 64.4028C47.8471 70.6706 46.6109 68.7915 49.3842 74.1071C52.0391 79.1959 58.397 77.4776 56.5106 69.8775C62.7985 66.507 59.2078 60.202 55.4626 61.4843C46.9389 64.4028 50.8514 62.9383 44.7243 64.4028ZM32.6679 41.3881C30.8085 49.5908 29.1688 69.9775 37.4851 85.9024M32.6679 41.3881C27.0037 46.7315 20.1082 49.8479 17.5764 59.3128C16.7428 62.4292 16.3823 66.2338 16.6945 71.0327C17.234 79.3261 18.3609 86.6281 19.7855 92.986M37.4851 85.9024C40.3586 87.7412 47.2526 90.015 49.9088 91.4186C55.9074 94.5886 49.9087 99.6661 44.7243 97.5504C43.7947 99.9488 40.3248 104.13 37.4851 101.252C34.6453 98.3738 36.3018 89.8197 37.4851 85.9024ZM19.7855 92.986C21.13 98.6992 27.6578 113.029 41.0349 111.302M19.7855 92.986C21.6659 101.378 24.0649 108.125 26.3161 113.336C29.0485 119.661 31.5631 123.723 32.6679 125.715M41.0349 111.302C43.228 112.741 46.7776 117.81 48.7503 121.034C52.4331 127.054 60.0376 122.823 57.2617 116.803C63.6161 114.571 63.144 107.824 57.2617 108.975C51.3794 110.126 44.1577 111.302 41.0349 111.302ZM32.6679 125.715C35.9639 129.952 38.7968 129.267 43.3823 132.882C46.0663 134.998 45.9469 142.498 37.4851 139.44C34.0928 144.614 27.0475 141.999 28.6207 138.171C32.6679 128.323 32.2452 129.392 32.6679 125.715ZM415.251 171.776C417.27 161.752 421.384 144.106 409.246 139.297M415.251 171.776C416.454 167.87 418.803 164.669 421.303 162.311M409.246 139.297C406.123 133.029 407.36 134.908 404.586 129.592C401.931 124.503 395.573 126.222 397.46 133.822C391.172 137.192 394.763 143.497 398.508 142.215C407.032 139.297 403.119 140.761 409.246 139.297ZM421.303 162.311C423.162 154.108 424.802 133.722 416.485 117.797M421.303 162.311C426.967 156.968 433.862 153.851 436.394 144.386C437.228 141.27 437.588 137.466 437.276 132.667C436.736 124.373 435.609 117.071 434.185 110.713M416.485 117.797C413.612 115.958 406.718 113.684 404.062 112.281C398.063 109.111 404.062 104.033 409.246 106.149C410.176 103.75 413.646 99.5695 416.485 102.447C419.325 105.325 417.669 113.88 416.485 117.797ZM434.185 110.713C432.84 105 426.313 90.6702 412.936 92.397M434.185 110.713C432.304 102.321 429.905 95.574 427.654 90.3632C424.922 84.0381 422.407 79.9766 421.303 77.9845M412.936 92.397C410.742 90.958 407.193 85.8894 405.22 82.665C401.537 76.6455 393.933 80.8768 396.709 86.8964C390.354 89.1278 390.826 95.8755 396.709 94.7243C402.591 93.5731 409.813 92.397 412.936 92.397ZM421.303 77.9845C418.007 73.7474 415.174 74.4321 410.588 70.8174C407.904 68.7018 408.023 61.2012 416.485 64.2589C419.878 59.0856 426.923 61.7003 425.35 65.5283C421.303 75.3761 421.725 74.307 421.303 77.9845Z" stroke="white" stroke-width="3" stroke-linecap="round"/>
</svg>
