<svg width="2023" height="2023" viewBox="0 0 2023 2023" fill="none" xmlns="http://www.w3.org/2000/svg">
<path d="M485.617 657.672C461.688 693.133 441.738 730.479 425.766 769.083C409.828 807.602 397.852 847.374 389.836 887.776C571.674 829.52 571.673 829.52 717.581 889.957C571.673 829.52 571.673 829.52 485.617 657.672Z" fill="white"/>
<path d="M658.389 485.192C624.846 507.743 592.982 533.846 563.325 563.503C533.932 592.896 508.03 624.457 485.617 657.672C673.228 673.404 673.228 673.405 783.13 783.307C673.228 673.405 673.228 673.405 658.389 485.192Z" fill="white"/>
<path d="M888.084 389.993C847.35 398.009 807.732 409.878 768.906 425.942C730.627 441.781 693.583 461.531 658.389 485.192C828.735 570.383 828.735 570.383 888.565 714.824C828.735 570.383 828.255 570.554 888.084 389.993Z" fill="white"/>
<path d="M932.317 1011.72L1011.56 1011.72L1011.56 932.485C1007.08 932.582 1001.85 933.14 996.245 934.301C991.339 935.318 986.147 936.798 980.928 938.835C976.324 940.632 971.698 942.864 967.229 945.596C963.019 948.168 958.948 951.185 955.164 954.699C951.414 958.182 947.945 962.155 944.902 966.67C942.145 970.76 939.739 975.295 937.788 980.314C935.934 985.087 934.492 990.298 933.555 995.982C933.139 998.504 932.823 1001.12 932.615 1003.83C932.419 1006.37 932.317 1009 932.317 1011.72Z" fill="white"/>
<path d="M425.766 769.083C407.905 751.222 393.621 733.503 382.378 716.075C346.642 660.68 341.624 608.224 350.099 563.503C237.039 450.443 218.662 683.297 11.5583 597.512C218.662 683.297 65.6182 861.75 227.43 861.75C252.48 824.854 291.694 791.733 353.082 777.069C374.498 771.953 398.612 769.083 425.766 769.083Z" fill="white"/>
<path d="M563.325 350.048C607.951 341.6 660.3 346.651 715.665 382.362C733.161 393.647 750.957 407.993 768.906 425.942C768.906 398.789 771.696 374.675 776.679 353.259C791.119 291.189 823.982 251.789 860.745 226.778C860.745 65.4492 683.121 218.838 597.335 11.7348C683.121 218.838 448.463 235.186 563.325 350.048Z" fill="white"/>
<path d="M425.765 425.943C418.382 433.325 364.57 487.138 350.099 563.503C425.765 425.943 494.545 494.723 563.325 563.503C494.545 494.723 425.766 425.943 563.325 350.048L563.136 350.084C487.17 364.538 433.627 418.081 425.765 425.943Z" fill="white"/>
<path d="M1537.5 657.671C1561.43 693.133 1581.38 730.479 1597.36 769.083C1613.29 807.602 1625.27 847.374 1633.29 887.776C1451.45 829.52 1451.45 829.52 1305.54 889.957C1451.45 829.52 1451.45 829.52 1537.5 657.671Z" fill="white"/>
<path d="M1364.73 485.192C1398.28 507.743 1430.14 533.846 1459.8 563.502C1489.19 592.895 1515.09 624.456 1537.5 657.671C1349.89 673.404 1349.89 673.405 1239.99 783.307C1349.89 673.405 1349.89 673.404 1364.73 485.192Z" fill="white"/>
<path d="M1134.56 389.822C1175.29 397.839 1215.39 409.879 1254.22 425.943C1292.5 441.781 1329.54 461.531 1364.73 485.192C1194.39 570.383 1194.39 570.384 1134.56 714.824C1194.39 570.384 1194.39 570.383 1134.56 389.822Z" fill="white"/>
<path d="M1090.8 1011.72L1011.56 1011.72L1011.56 932.485C1016.04 932.582 1021.27 933.14 1026.88 934.302C1031.78 935.319 1036.97 936.798 1042.19 938.835C1046.8 940.633 1051.42 942.865 1055.89 945.596C1060.1 948.169 1064.17 951.185 1067.96 954.699C1071.71 958.182 1075.18 962.155 1078.22 966.67C1080.98 970.76 1083.38 975.295 1085.33 980.315C1087.19 985.088 1088.63 990.299 1089.57 995.982C1089.98 998.504 1090.3 1001.12 1090.51 1003.83C1090.7 1006.38 1090.8 1009 1090.8 1011.72Z" fill="white"/>
<path d="M1597.36 769.083C1615.22 751.222 1629.5 733.503 1640.74 716.075C1676.48 660.679 1681.5 608.223 1673.02 563.502C1786.08 450.442 1804.46 683.298 2011.56 597.512C1804.46 683.298 1957.5 861.75 1795.69 861.75C1770.64 824.854 1731.43 791.733 1670.04 777.068C1648.62 771.953 1624.51 769.083 1597.36 769.083Z" fill="white"/>
<path d="M1459.8 350.048C1415.17 341.6 1362.82 346.651 1307.46 382.363C1289.96 393.647 1272.16 407.994 1254.22 425.943C1254.22 398.79 1251.43 374.675 1246.44 353.259C1232 291.189 1199.14 251.789 1162.38 226.778C1162.38 65.4493 1340 218.839 1425.79 11.7354C1340 218.839 1574.66 235.186 1459.8 350.048Z" fill="white"/>
<path d="M1597.36 425.942C1604.74 433.325 1658.55 487.137 1673.02 563.502C1597.36 425.942 1528.58 494.722 1459.8 563.502C1528.58 494.722 1597.36 425.942 1459.8 350.048L1459.99 350.084C1535.95 364.538 1589.49 418.08 1597.36 425.942Z" fill="white"/>
<path d="M485.625 1365.77C461.696 1330.31 441.746 1292.96 425.774 1254.36C409.836 1215.84 397.86 1176.07 389.844 1135.66C571.681 1193.92 571.681 1193.92 717.589 1133.48C571.681 1193.92 571.681 1193.92 485.625 1365.77Z" fill="white"/>
<path d="M658.397 1538.25C624.854 1515.7 592.99 1489.59 563.333 1459.94C533.941 1430.54 508.038 1398.98 485.625 1365.77C673.236 1350.04 673.236 1350.04 783.138 1240.13C673.236 1350.04 673.236 1350.04 658.397 1538.25Z" fill="white"/>
<path d="M888.573 1633.62C847.839 1625.6 807.74 1613.56 768.914 1597.5C730.634 1581.66 693.591 1561.91 658.397 1538.25C828.743 1453.06 828.743 1453.06 888.573 1308.62C828.743 1453.06 828.744 1453.06 888.573 1633.62Z" fill="white"/>
<path d="M932.325 1011.72L1011.57 1011.72L1011.57 1090.96C1007.09 1090.86 1001.86 1090.3 996.253 1089.14C991.347 1088.12 986.155 1086.64 980.936 1084.61C976.332 1082.81 971.706 1080.58 967.237 1077.84C963.027 1075.27 958.956 1072.26 955.172 1068.74C951.422 1065.26 947.953 1061.29 944.909 1056.77C942.153 1052.68 939.746 1048.15 937.796 1043.13C935.942 1038.35 934.5 1033.14 933.563 1027.46C933.147 1024.94 932.831 1022.32 932.623 1019.61C932.427 1017.07 932.325 1014.44 932.325 1011.72Z" fill="white"/>
<path d="M425.774 1254.36C407.913 1272.22 393.629 1289.94 382.386 1307.37C346.65 1362.76 341.633 1415.22 350.107 1459.94C237.047 1573 218.671 1340.15 11.5674 1425.93C218.671 1340.15 65.6262 1161.69 227.438 1161.69C252.488 1198.59 291.702 1231.71 353.09 1246.37C374.506 1251.49 398.62 1254.36 425.774 1254.36Z" fill="white"/>
<path d="M563.333 1673.39C607.959 1681.84 660.308 1676.79 715.673 1641.08C733.168 1629.79 750.965 1615.45 768.914 1597.5C768.914 1624.65 771.704 1648.77 776.686 1670.18C791.127 1732.25 823.99 1771.65 860.753 1796.66C860.753 1957.99 683.129 1804.6 597.343 2011.71C683.129 1804.6 448.471 1788.25 563.333 1673.39Z" fill="white"/>
<path d="M425.773 1597.5C418.391 1590.11 364.579 1536.3 350.107 1459.94C425.773 1597.5 494.553 1528.72 563.333 1459.94C494.553 1528.72 425.773 1597.5 563.333 1673.39L563.143 1673.36C487.178 1658.9 433.635 1605.36 425.773 1597.5Z" fill="white"/>
<path d="M1537.51 1365.77C1561.44 1330.31 1581.39 1292.96 1597.36 1254.36C1613.3 1215.84 1625.28 1176.07 1633.29 1135.66C1451.46 1193.92 1451.46 1193.92 1305.55 1133.48C1451.46 1193.92 1451.46 1193.92 1537.51 1365.77Z" fill="white"/>
<path d="M1364.74 1538.25C1398.28 1515.7 1430.15 1489.59 1459.8 1459.94C1489.2 1430.54 1515.1 1398.98 1537.51 1365.77C1349.9 1350.04 1349.9 1350.04 1240 1240.13C1349.9 1350.04 1349.9 1350.04 1364.74 1538.25Z" fill="white"/>
<path d="M1134.56 1633.62C1175.3 1625.6 1215.4 1613.56 1254.22 1597.5C1292.5 1581.66 1329.55 1561.91 1364.74 1538.25C1194.39 1453.06 1194.39 1453.06 1134.56 1308.62C1194.39 1453.06 1194.39 1453.06 1134.56 1633.62Z" fill="white"/>
<path d="M1090.81 1011.72L1011.57 1011.72L1011.57 1090.96C1016.04 1090.86 1021.28 1090.3 1026.88 1089.14C1031.79 1088.12 1036.98 1086.64 1042.2 1084.61C1046.81 1082.81 1051.43 1080.58 1055.9 1077.84C1060.11 1075.27 1064.18 1072.26 1067.96 1068.74C1071.72 1065.26 1075.18 1061.29 1078.23 1056.77C1080.98 1052.68 1083.39 1048.15 1085.34 1043.13C1087.2 1038.35 1088.64 1033.14 1089.57 1027.46C1089.99 1024.94 1090.31 1022.32 1090.51 1019.61C1090.71 1017.07 1090.81 1014.44 1090.81 1011.72Z" fill="white"/>
<path d="M1597.36 1254.36C1615.22 1272.22 1629.51 1289.94 1640.75 1307.37C1676.49 1362.76 1681.5 1415.22 1673.03 1459.94C1786.09 1573 1804.47 1340.14 2011.57 1425.93C1804.47 1340.14 1957.51 1161.69 1795.7 1161.69C1770.65 1198.59 1731.43 1231.71 1670.05 1246.37C1648.63 1251.49 1624.52 1254.36 1597.36 1254.36Z" fill="white"/>
<path d="M1459.8 1673.39C1415.18 1681.84 1362.83 1676.79 1307.46 1641.08C1289.97 1629.79 1272.17 1615.45 1254.22 1597.5C1254.22 1624.65 1251.43 1648.76 1246.45 1670.18C1232.01 1732.25 1199.15 1771.65 1162.38 1796.66C1162.38 1957.99 1340.01 1804.6 1425.79 2011.7C1340.01 1804.6 1574.67 1788.25 1459.8 1673.39Z" fill="white"/>
<path d="M1597.36 1597.5C1604.75 1590.11 1658.56 1536.3 1673.03 1459.94C1597.36 1597.5 1528.58 1528.72 1459.8 1459.94C1528.58 1528.72 1597.36 1597.5 1459.8 1673.39L1459.99 1673.36C1535.96 1658.9 1589.5 1605.36 1597.36 1597.5Z" fill="white"/>
<path d="M227.43 861.75C183.129 927.001 183.13 1004.06 183.13 1011.72C183.13 1019.38 183.137 1096.44 227.438 1161.69C183.138 1011.72 280.407 1011.72 377.676 1011.72C280.407 1011.72 183.13 1011.72 227.43 861.75Z" fill="white"/>
<path d="M890.233 1813.53C946.031 1840.13 1002.03 1840.13 1011.55 1840.13C1021.08 1840.13 1077.11 1840.13 1132.9 1813.53C1142.82 1808.8 1152.74 1803.22 1162.38 1796.66C1011.59 1840.13 1011.59 1742.86 1011.59 1645.6C1011.59 1742.86 1011.55 1840.13 860.753 1796.66C870.398 1803.22 880.312 1808.8 890.233 1813.53Z" fill="white"/>
<path d="M1840 1011.72C1840 1004.06 1839.99 927.001 1795.69 861.75C1839.99 1011.72 1742.73 1011.72 1645.46 1011.72C1742.73 1011.72 1840 1011.72 1795.7 1161.69C1840 1096.44 1840 1019.38 1840 1011.72Z" fill="white"/>
<path d="M1645.46 1011.72C1645.46 970.191 1641.4 928.66 1633.29 887.776C1553.92 955.016 1517.6 985.778 1475.69 999.852C1440.34 1011.72 1401.01 1011.72 1328.52 1011.72L1328.53 1011.72C1401.02 1011.72 1440.35 1011.72 1475.7 1023.59C1517.61 1037.66 1553.92 1068.42 1633.29 1135.66C1641.4 1094.78 1645.46 1053.25 1645.46 1011.72Z" fill="white"/>
<path d="M389.836 887.776C381.724 928.66 377.676 970.192 377.676 1011.72C377.676 1053.25 381.732 1094.78 389.844 1135.66C469.213 1068.42 505.524 1037.66 547.439 1023.59C582.354 1011.87 621.157 1011.72 691.978 1011.72C692.851 1011.72 693.73 1011.72 694.614 1011.72L694.606 1011.72C693.72 1011.72 692.844 1011.72 691.978 1011.72C621.152 1011.72 582.347 1011.58 547.431 999.851C505.516 985.778 469.206 955.016 389.836 887.776Z" fill="white"/>
<path d="M888.573 1633.62C929.146 1641.6 970.383 1645.6 1011.59 1645.6C1052.79 1645.6 1093.99 1641.6 1134.56 1633.62L1134.51 1633.55C1011.59 1487.13 1011.57 1487.11 1011.57 1328.66C1011.57 1487.11 1011.55 1487.13 888.628 1633.55L888.573 1633.62Z" fill="white"/>
<path d="M1011.58 377.845C970.376 377.845 928.657 382.009 888.084 389.993C1010.13 535.374 1011.02 539.8 1011.02 694.884C1011.04 540.324 1013.74 533.74 1134.56 389.822C1093.98 381.838 1052.78 377.845 1011.58 377.845Z" fill="white"/>
<path d="M1011.58 183.306C1002.05 183.306 946.024 183.306 890.225 209.914C880.305 214.644 870.391 220.216 860.745 226.778C1011.54 183.305 1011.58 280.575 1011.58 377.845C1011.58 280.575 1011.58 183.306 1162.38 226.778C1152.73 220.216 1142.82 214.644 1132.9 209.914C1077.1 183.306 1021.1 183.306 1011.58 183.306Z" fill="white"/>
<path d="M563.325 563.503C592.982 533.846 624.846 507.743 658.389 485.192M563.325 563.503C533.932 592.896 508.03 624.457 485.617 657.672M563.325 563.503C494.545 494.723 425.766 425.943 563.325 350.048M563.325 563.503C494.545 494.723 563.326 350.048 715.665 382.362M563.325 563.503C494.545 494.723 425.765 425.943 350.099 563.503M563.325 563.503C494.545 494.723 350.099 563.503 382.378 716.075M377.676 1011.72C377.676 970.192 381.724 928.66 389.836 887.776M377.676 1011.72C280.407 1011.72 227.43 861.75 353.082 777.069M377.676 1011.72C280.407 1011.72 183.13 1011.72 227.43 861.75M377.676 1011.72C377.676 1053.25 381.732 1094.78 389.844 1135.66M377.676 1011.72C280.407 1011.72 227.438 1161.69 353.09 1246.37M377.676 1011.72C280.407 1011.72 183.138 1011.72 227.438 1161.69M1011.58 377.845C970.376 377.845 928.657 382.009 888.084 389.993M1011.58 377.845C1011.58 280.575 1011.54 183.305 860.745 226.778M1011.58 377.845C1052.78 377.845 1093.98 381.838 1134.56 389.822M1011.58 377.845C1011.58 280.575 1011.58 183.306 1162.38 226.778M1011.58 377.845C1011.58 280.575 860.745 226.778 776.679 353.259M1011.58 377.845C1011.58 280.575 1162.38 226.778 1246.44 353.259M425.766 769.083C441.738 730.479 461.688 693.133 485.617 657.672M425.766 769.083C409.828 807.602 397.852 847.374 389.836 887.776M425.766 769.083C407.905 751.222 393.621 733.503 382.378 716.075M425.766 769.083C398.612 769.083 374.498 771.953 353.082 777.069M768.906 425.942C807.732 409.878 847.35 398.009 888.084 389.993M768.906 425.942C730.627 441.781 693.583 461.531 658.389 485.192M768.906 425.942C750.957 407.993 733.161 393.647 715.665 382.362M768.906 425.942C768.906 398.789 771.696 374.675 776.679 353.259M183.13 1011.72C11.5593 1011.72 97.3438 754.363 11.5583 597.512M183.13 1011.72C183.13 1004.06 183.129 927.001 227.43 861.75M183.13 1011.72C11.5593 1011.72 97.353 1269.08 11.5674 1425.93M183.13 1011.72C183.13 1019.38 183.137 1096.44 227.438 1161.69M425.765 425.943C304.447 304.624 547.084 183.305 597.335 11.7348M425.765 425.943C308.022 308.199 183.129 547.26 11.5583 597.512M425.765 425.943C418.382 433.325 364.57 487.138 350.099 563.503M425.765 425.943C433.627 418.081 487.17 364.538 563.136 350.084M1011.58 183.306C1011.58 11.7355 754.187 97.5198 597.335 11.7348M1011.58 183.306C1002.05 183.306 946.024 183.306 890.225 209.914C880.305 214.644 870.391 220.216 860.745 226.778M1011.58 183.306C1011.58 11.7355 1268.93 97.5204 1425.79 11.7354M1011.58 183.306C1021.1 183.306 1077.1 183.306 1132.9 209.914C1142.82 214.644 1152.73 220.216 1162.38 226.778M1011.02 694.884C989.03 694.884 969.19 696.811 949.772 699.344M1011.02 694.884C1033.02 694.884 1053.93 696.812 1073.35 699.345M1011.02 694.884C1011.02 695.377 1011.02 694.387 1011.02 694.884ZM1011.02 694.884C1010.59 537.94 942.144 542.279 903.867 467.202C896.561 551.033 828.735 570.383 888.565 714.824M1011.02 694.884C1011.04 667.855 1011.26 647.015 1015.33 634.284M1011.02 694.884C1011.09 671.959 1012.63 651.022 1015.33 634.284M1011.02 694.884C1011.02 539.8 1010.13 535.374 888.084 389.993M1011.02 694.884C1011.04 540.324 1013.74 533.74 1134.56 389.822M1011.02 694.884C1011.02 619.01 1010.34 615.08 926.82 583.273M1011.02 694.884C1011.02 693.752 1011.02 695.999 1011.02 694.884ZM694.606 1011.72C694.605 978.344 700.932 934.426 717.581 889.957M694.606 1011.72L694.596 1011.72M694.606 1011.72L694.614 1011.72M694.606 1011.72C693.72 1011.72 692.844 1011.72 691.978 1011.72M888.565 714.824C828.735 570.383 828.255 570.554 888.084 389.993M888.565 714.824C828.735 570.383 828.735 570.383 658.389 485.192M888.565 714.824C866.435 722.857 848.469 732.089 831.423 743.174M888.565 714.824C912.04 706.302 933.628 702.156 949.772 699.344M888.565 714.824C828.735 570.383 765.863 603.233 701.647 549.688C726.986 628.988 673.228 673.405 783.13 783.307M888.565 714.824C858.65 642.603 858.65 642.603 766.535 646.43M888.565 714.824C858.65 642.603 858.65 642.603 926.82 583.273M888.084 389.993C888.103 390.015 888.066 389.971 888.084 389.993ZM783.13 783.307C673.228 673.405 673.228 673.405 658.389 485.192M783.13 783.307C673.228 673.405 673.228 673.404 485.617 657.672M783.13 783.307C768.455 798.693 755.969 815.326 745.416 832.566M783.13 783.307C797.154 768.603 813.177 755.039 831.423 743.174M783.13 783.307C673.228 673.405 629.944 727.191 550.567 701.395C604.556 766.219 571.673 829.52 717.581 889.957M783.13 783.307C728.179 728.356 728.179 728.356 647.992 766.981M783.13 783.307C728.179 728.356 728.179 728.356 766.535 646.43M717.581 889.957C571.673 829.52 571.673 829.52 485.617 657.672M717.581 889.957C571.673 829.52 571.674 829.52 389.836 887.776M717.581 889.957C724.806 870.658 733.976 851.256 745.416 832.566M717.581 889.957C571.689 829.527 551.866 896.451 467.55 903.269C542.561 941.786 536.205 1010.95 691.978 1011.72M717.581 889.957C644.627 859.738 644.627 859.738 584.12 926.508M717.581 889.957C644.627 859.738 644.627 859.738 647.992 766.981M389.836 887.776C469.206 955.016 505.516 985.778 547.431 999.851C582.347 1011.58 621.152 1011.72 691.978 1011.72M700.689 949.748L778.138 965.188M700.689 949.748C705.024 930.574 707.912 919.608 679.993 914.042C650.85 908.232 642.405 938.128 584.12 926.508M700.689 949.748C697.638 969.114 696.279 980.462 668.5 974.924C639.357 969.114 642.405 938.128 584.12 926.508M745.416 832.566L811.448 877.018M745.416 832.566C734.684 851.533 730.223 860.403 707.142 844.865C682.786 828.469 696.704 799.774 647.992 766.981M745.416 832.566C757.798 813.905 762.901 807.013 739.917 791.54C715.561 775.144 696.704 799.774 647.992 766.981M831.423 743.174L876.236 809.986M831.423 743.174C851.562 731.234 858.941 727.429 843.772 704.813C827.55 680.627 798.979 694.802 766.535 646.43M831.423 743.174C812.597 756.602 806.251 761.711 791.054 739.054C774.832 714.869 798.979 694.802 766.535 646.43M949.772 699.344L965.206 777.393M949.772 699.344C968.696 697.12 980.434 695.887 974.928 668.043C969.19 639.026 938.296 641.309 926.82 583.273M949.772 699.344C929.747 703.178 918.867 705.56 913.431 678.066C907.692 649.048 938.296 641.309 926.82 583.273M853.074 1011.72C852.875 1002.65 854.242 991.768 856.231 980.382C857.143 975.166 858.404 969.94 859.961 964.627M853.074 1011.72C778.138 1011.72 778.138 1011.72 778.138 965.188M853.074 1011.72C853.071 1006.88 853.335 1001.59 853.913 995.982M1011.54 853.251C1011.54 777.394 1011.54 777.394 965.206 777.393M965.206 777.393C921.005 793.585 922.605 798.097 949.285 863.545M876.236 809.986C843.842 843.502 844.734 844.126 897.942 896.843M876.236 809.986C919.832 794.015 922.594 798.101 949.285 863.545M949.285 863.545C949.829 864.879 948.719 862.157 949.285 863.545ZM949.285 863.545C944.251 865.342 939.518 867.421 935.02 869.692M811.448 877.018C843.842 843.502 844.734 844.126 897.942 896.843M811.448 877.018C794.793 921.103 795.753 921.413 865.091 949.367M897.942 896.843C894.15 900.718 890.712 904.705 887.55 908.814M897.942 896.843C901.483 893.224 905.17 889.745 909.131 886.446M778.138 965.188C794.793 921.103 795.753 921.413 865.091 949.367M865.091 949.367C863.149 954.571 861.424 959.637 859.961 964.627M865.091 949.367C866.857 944.633 868.91 939.917 871.223 935.241M1011.56 1011.72L932.317 1011.72M1011.56 1011.72L1011.56 932.485M1011.56 1011.72L1090.8 1011.72M584.12 926.508C615.015 1010.77 615.36 1011.71 691.978 1011.72M932.317 1011.72C932.317 1009 932.419 1006.37 932.615 1003.83C932.823 1001.12 933.139 998.504 933.555 995.982M932.317 1011.72C892.696 1011.72 853.074 1011.72 853.913 995.982M1011.56 932.485C1007.08 932.582 1001.85 933.14 996.245 934.301M1011.56 932.485C1011.56 892.868 1011.56 853.251 996.068 853.799M1011.56 932.485C1016.04 932.582 1021.27 933.14 1026.88 934.302M1011.56 932.485C1011.56 892.868 1011.56 853.251 1027.05 853.799M955.164 954.699C951.414 958.182 947.945 962.155 944.902 966.67M955.164 954.699C958.948 951.185 963.019 948.168 967.229 945.596M955.164 954.699C926.553 925.771 897.942 896.843 887.55 908.814M955.164 954.699C926.553 925.771 897.942 896.843 909.131 886.446M980.928 938.835C976.324 940.632 971.698 942.864 967.229 945.596M980.928 938.835C986.147 936.798 991.339 935.318 996.245 934.301M980.928 938.835C965.107 901.19 949.285 863.545 935.02 869.692M980.928 938.835C965.107 901.19 949.285 863.545 964.746 858.758M937.788 980.314C935.934 985.087 934.492 990.298 933.555 995.982M937.788 980.314C939.739 975.295 942.145 970.76 944.902 966.67M937.788 980.314C901.44 964.841 865.091 949.367 859.961 964.627M937.788 980.314C901.44 964.841 865.091 949.367 871.223 935.241M933.555 995.982C894.893 988.182 856.231 980.382 853.913 995.982M933.555 995.982C894.893 988.182 856.231 980.381 859.961 964.627M944.902 966.67C911.757 944.269 878.612 921.869 871.223 935.241M944.902 966.67C911.757 944.269 878.612 921.868 887.55 908.814M967.229 945.596C944.371 911.501 921.512 877.406 909.131 886.446M967.229 945.596C944.371 911.501 921.513 877.406 935.02 869.692M996.245 934.301C988.454 894.916 980.663 855.531 964.746 858.758M996.245 934.301C988.454 894.916 980.663 855.531 996.068 853.799M853.913 995.982C858.112 955.282 878.911 897.628 935.02 869.692M871.223 935.241C873.451 930.738 875.921 926.273 878.612 921.868C881.354 917.379 884.306 913.032 887.55 908.814M909.131 886.446C912.964 883.253 917.052 880.228 921.512 877.406C925.804 874.691 930.281 872.085 935.02 869.692M935.02 869.692C943.998 865.222 953.882 861.514 964.746 858.758M964.746 858.758C969.834 857.467 975.137 856.385 980.663 855.531C985.617 854.765 990.75 854.183 996.068 853.799M996.068 853.799C1001.07 853.437 1006.23 853.251 1011.56 853.251C1016.89 853.251 1022.05 853.438 1027.05 853.799M597.335 11.7348C683.121 218.838 448.463 235.186 563.325 350.048M597.335 11.7348C683.121 218.838 860.745 65.4492 860.745 226.778M11.5583 597.512C218.662 683.297 237.039 450.443 350.099 563.503M11.5583 597.512C218.662 683.297 65.6182 861.75 227.43 861.75M563.325 350.048C607.951 341.6 660.3 346.651 715.665 382.362M563.325 350.048C563.262 350.06 563.199 350.072 563.136 350.084M563.325 350.048L563.136 350.084M350.099 563.503C341.624 608.224 346.642 660.68 382.378 716.075M776.679 353.259C791.119 291.189 823.982 251.789 860.745 226.778M227.43 861.75C252.48 824.854 291.694 791.733 353.082 777.069M1459.8 563.502C1430.14 533.846 1398.28 507.743 1364.73 485.192M1459.8 563.502C1489.19 592.895 1515.09 624.456 1537.5 657.671M1459.8 563.502C1528.58 494.722 1597.36 425.942 1459.8 350.048M1459.8 563.502C1528.58 494.722 1459.8 350.048 1307.46 382.363M1459.8 563.502C1528.58 494.722 1597.36 425.942 1673.02 563.502M1459.8 563.502C1528.58 494.722 1673.02 563.503 1640.74 716.075M1645.46 1011.72C1645.46 970.191 1641.4 928.66 1633.29 887.776M1645.46 1011.72C1742.73 1011.72 1795.69 861.75 1670.04 777.068M1645.46 1011.72C1742.73 1011.72 1839.99 1011.72 1795.69 861.75M1645.46 1011.72C1645.46 1053.25 1641.4 1094.78 1633.29 1135.66M1645.46 1011.72C1742.73 1011.72 1795.7 1161.69 1670.05 1246.37M1645.46 1011.72C1742.73 1011.72 1840 1011.72 1795.7 1161.69M1597.36 769.083C1581.38 730.479 1561.43 693.133 1537.5 657.671M1597.36 769.083C1613.29 807.602 1625.27 847.374 1633.29 887.776M1597.36 769.083C1615.22 751.222 1629.5 733.503 1640.74 716.075M1597.36 769.083C1624.51 769.083 1648.62 771.953 1670.04 777.068M1254.22 425.943C1215.39 409.879 1175.29 397.839 1134.56 389.822M1254.22 425.943C1292.5 441.781 1329.54 461.531 1364.73 485.192M1254.22 425.943C1272.16 407.994 1289.96 393.647 1307.46 382.363M1254.22 425.943C1254.22 398.79 1251.43 374.675 1246.44 353.259M1840 1011.72C2011.57 1011.72 1925.78 754.364 2011.56 597.512M1840 1011.72C1840 1004.06 1839.99 927.001 1795.69 861.75M1840 1011.72C2011.57 1011.72 1925.78 1269.08 2011.57 1425.93M1840 1011.72C1840 1019.38 1840 1096.44 1795.7 1161.69M1597.36 425.942C1718.67 304.624 1476.04 183.306 1425.79 11.7354M1597.36 425.942C1715.1 308.199 1839.99 547.26 2011.56 597.512M1597.36 425.942C1604.74 433.325 1658.55 487.137 1673.02 563.502M1597.36 425.942C1589.49 418.08 1535.95 364.538 1459.99 350.084M1328.52 1011.72C1328.52 978.345 1322.19 934.426 1305.54 889.957M1328.52 1011.72L1328.53 1011.72M1328.52 1011.72C1401.01 1011.72 1440.34 1011.72 1475.69 999.852C1517.6 985.778 1553.92 955.016 1633.29 887.776M1328.52 1011.72C1486.99 1011.72 1480.14 942.001 1555.57 903.269C1471.26 896.451 1451.43 829.527 1305.54 889.957M1328.52 1011.72C1407.76 1011.72 1407.76 1011.72 1439 926.508M1134.56 714.824C1194.39 570.384 1194.39 570.383 1134.56 389.822M1134.56 714.824C1194.39 570.384 1194.39 570.383 1364.73 485.192M1134.56 714.824C1156.69 722.857 1174.65 732.089 1191.7 743.174M1134.56 714.824C1111.08 706.303 1089.49 702.157 1073.35 699.345M1134.56 714.824C1194.39 570.384 1257.26 603.233 1321.47 549.688C1296.14 628.988 1349.89 673.405 1239.99 783.307M1134.56 714.824C1164.47 642.604 1164.47 642.604 1256.59 646.431M1134.56 714.824C1145.7 687.919 1152.69 671.037 1153.56 657.377M1134.56 714.824C1143.58 693.048 1149.69 674.116 1153.56 657.377M1134.56 389.822C1134.14 390.315 1134.97 389.333 1134.56 389.822ZM1239.99 783.307C1349.89 673.405 1349.89 673.404 1364.73 485.192M1239.99 783.307C1349.89 673.405 1349.89 673.404 1537.5 657.671M1239.99 783.307C1254.67 798.693 1267.15 815.326 1277.7 832.566M1239.99 783.307C1225.97 768.603 1209.94 755.039 1191.7 743.174M1239.99 783.307C1349.89 673.405 1393.18 727.19 1472.55 701.395C1418.57 766.219 1451.45 829.52 1305.54 889.957M1239.99 783.307C1294.94 728.356 1294.94 728.356 1375.13 766.981M1239.99 783.307C1294.94 728.356 1294.94 728.356 1256.59 646.431M1305.54 889.957C1451.45 829.52 1451.45 829.52 1537.5 657.671M1305.54 889.957C1451.45 829.52 1451.45 829.52 1633.29 887.776M1305.54 889.957C1298.31 870.658 1289.15 851.256 1277.7 832.566M1305.54 889.957C1378.49 859.739 1378.49 859.739 1439 926.508M1305.54 889.957C1378.49 859.739 1378.49 859.738 1375.13 766.981M1322.43 949.748L1244.98 965.188M1322.43 949.748C1318.1 930.574 1315.21 919.609 1343.13 914.043C1372.27 908.233 1380.72 938.128 1439 926.508M1322.43 949.748C1325.48 969.114 1326.84 980.462 1354.62 974.924C1383.76 969.114 1380.72 938.128 1439 926.508M1277.7 832.566L1211.67 877.018M1277.7 832.566C1288.44 851.533 1292.9 860.403 1315.98 844.865C1340.33 828.469 1326.42 799.774 1375.13 766.981M1277.7 832.566C1265.32 813.905 1260.22 807.013 1283.2 791.54C1307.56 775.144 1326.42 799.774 1375.13 766.981M1191.7 743.174L1146.89 809.987M1191.7 743.174C1171.56 731.234 1164.18 727.429 1179.35 704.813C1195.57 680.627 1224.14 694.802 1256.59 646.431M1191.7 743.174C1210.52 756.603 1216.87 761.711 1232.07 739.055C1248.29 714.869 1224.14 694.802 1256.59 646.431M1073.35 699.345L1057.92 777.393M1073.35 699.345C1054.43 697.12 1042.69 695.887 1048.19 668.044C1053.93 639.026 1084.83 641.31 1096.3 583.274M1073.35 699.345C1093.37 703.179 1104.25 705.561 1109.69 678.067C1115.43 649.049 1084.83 641.31 1096.3 583.274M1170.05 1011.72C1170.25 1002.65 1168.88 991.769 1166.89 980.382C1165.98 975.166 1164.72 969.94 1163.16 964.628M1170.05 1011.72C1244.98 1011.72 1244.98 1011.72 1244.98 965.188M1170.05 1011.72C1170.05 1006.88 1169.79 1001.59 1169.21 995.982M1011.58 853.252C1011.58 777.395 1011.58 777.394 1057.92 777.393M1328.53 1011.72C1328.53 1045.09 1322.2 1089.01 1305.55 1133.48M1328.53 1011.72L1328.53 1011.72M1328.53 1011.72C1401.02 1011.72 1440.35 1011.72 1475.7 1023.59C1517.61 1037.66 1553.92 1068.42 1633.29 1135.66M1328.53 1011.72C1487 1011.72 1480.15 1081.44 1555.58 1120.17C1471.26 1126.99 1451.44 1193.91 1305.55 1133.48M1328.53 1011.72C1407.77 1011.72 1407.76 1011.72 1439.01 1096.93M1057.92 777.393C1102.12 793.586 1100.52 798.098 1073.84 863.546M1146.89 809.987C1179.28 843.502 1178.39 844.127 1125.18 896.843M1146.89 809.987C1103.29 794.015 1100.53 798.102 1073.84 863.546M1073.84 863.546C1073.29 864.879 1074.4 862.157 1073.84 863.546ZM1073.84 863.546C1078.87 865.343 1083.6 867.421 1088.1 869.692M1211.67 877.018C1179.28 843.502 1178.39 844.127 1125.18 896.843M1211.67 877.018C1228.33 921.103 1227.37 921.413 1158.03 949.367M1125.18 896.843C1128.97 900.719 1132.41 904.705 1135.57 908.815M1125.18 896.843C1121.64 893.224 1117.95 889.746 1113.99 886.446M1244.98 965.188C1228.33 921.103 1227.37 921.413 1158.03 949.367M1158.03 949.367C1159.97 954.572 1161.7 959.638 1163.16 964.628M1158.03 949.367C1156.26 944.634 1154.21 939.917 1151.9 935.241M1096.3 583.274C1139.08 620.501 1155.01 634.37 1153.56 657.377M1096.3 583.274C1042.54 603.75 1022.67 611.277 1015.33 634.284M1090.8 1011.72C1090.8 1009 1090.7 1006.38 1090.51 1003.83C1090.3 1001.12 1089.98 998.504 1089.57 995.982M1090.8 1011.72C1130.43 1011.72 1170.05 1011.72 1169.21 995.982M1067.96 954.699C1071.71 958.182 1075.18 962.155 1078.22 966.67M1067.96 954.699C1064.17 951.185 1060.1 948.169 1055.89 945.596M1067.96 954.699C1096.57 925.771 1125.18 896.843 1135.57 908.815M1067.96 954.699C1096.57 925.771 1125.18 896.843 1113.99 886.446M1042.19 938.835C1046.8 940.633 1051.42 942.865 1055.89 945.596M1042.19 938.835C1036.97 936.798 1031.78 935.319 1026.88 934.302M1042.19 938.835C1058.01 901.191 1073.84 863.546 1088.1 869.692M1042.19 938.835C1058.01 901.191 1073.84 863.546 1058.38 858.759M1085.33 980.315C1087.19 985.088 1088.63 990.299 1089.57 995.982M1085.33 980.315C1083.38 975.295 1080.98 970.76 1078.22 966.67M1085.33 980.315C1121.68 964.841 1158.03 949.367 1163.16 964.628M1085.33 980.315C1121.68 964.841 1158.03 949.367 1151.9 935.241M1089.57 995.982C1128.23 988.182 1166.89 980.382 1169.21 995.982M1089.57 995.982C1128.23 988.182 1166.89 980.382 1163.16 964.628M1078.22 966.67C1111.36 944.27 1144.51 921.869 1151.9 935.241M1078.22 966.67C1111.36 944.27 1144.51 921.869 1135.57 908.815M1055.89 945.596C1078.75 911.501 1101.61 877.406 1113.99 886.446M1055.89 945.596C1078.75 911.501 1101.61 877.407 1088.1 869.692M1026.88 934.302C1034.67 894.917 1042.46 855.531 1058.38 858.759M1026.88 934.302C1034.67 894.917 1042.46 855.531 1027.05 853.799M1169.21 995.982C1165.01 955.282 1144.21 897.628 1088.1 869.692M1151.9 935.241C1149.67 930.738 1147.2 926.273 1144.51 921.869C1141.77 917.379 1138.81 913.032 1135.57 908.815M1113.99 886.446C1110.16 883.253 1106.07 880.228 1101.61 877.406C1097.32 874.691 1092.84 872.085 1088.1 869.692M1088.1 869.692C1079.12 865.222 1069.24 861.515 1058.38 858.759M1058.38 858.759C1053.29 857.468 1047.98 856.385 1042.46 855.531C1037.5 854.766 1032.37 854.184 1027.05 853.799M1425.79 11.7354C1340 218.839 1574.66 235.186 1459.8 350.048M1425.79 11.7354C1340 218.839 1162.38 65.4493 1162.38 226.778M2011.56 597.512C1804.46 683.298 1786.08 450.442 1673.02 563.502M2011.56 597.512C1804.46 683.298 1957.5 861.75 1795.69 861.75M1459.8 350.048C1415.17 341.6 1362.82 346.651 1307.46 382.363M1459.8 350.048C1459.86 350.06 1459.92 350.072 1459.99 350.084M1459.8 350.048L1459.99 350.084M1673.02 563.502C1681.5 608.223 1676.48 660.679 1640.74 716.075M1246.44 353.259C1232 291.189 1199.14 251.789 1162.38 226.778M1795.69 861.75C1770.64 824.854 1731.43 791.733 1670.04 777.068M563.333 1459.94C592.99 1489.59 624.854 1515.7 658.397 1538.25M563.333 1459.94C533.941 1430.54 508.038 1398.98 485.625 1365.77M563.333 1459.94C494.553 1528.72 425.773 1597.5 563.333 1673.39M563.333 1459.94C494.553 1528.72 563.333 1673.39 715.673 1641.08M563.333 1459.94C494.553 1528.72 425.773 1597.5 350.107 1459.94M563.333 1459.94C494.553 1528.72 350.107 1459.94 382.386 1307.37M1011.59 1645.6C970.383 1645.6 929.146 1641.6 888.573 1633.62M1011.59 1645.6C1011.59 1742.86 1011.55 1840.13 860.753 1796.66M1011.59 1645.6C1011.59 1742.86 860.753 1796.66 776.686 1670.18M1011.59 1645.6C1052.79 1645.6 1093.99 1641.6 1134.56 1633.62M1011.59 1645.6C1011.59 1742.86 1011.59 1840.13 1162.38 1796.66M1011.59 1645.6C1011.59 1742.86 1162.38 1796.66 1246.45 1670.18M425.774 1254.36C441.746 1292.96 461.696 1330.31 485.625 1365.77M425.774 1254.36C409.836 1215.84 397.86 1176.07 389.844 1135.66M425.774 1254.36C407.913 1272.22 393.629 1289.94 382.386 1307.37M425.774 1254.36C398.62 1254.36 374.506 1251.49 353.09 1246.37M768.914 1597.5C807.74 1613.56 847.839 1625.6 888.573 1633.62M768.914 1597.5C730.634 1581.66 693.591 1561.91 658.397 1538.25M768.914 1597.5C750.965 1615.45 733.168 1629.79 715.673 1641.08M768.914 1597.5C768.914 1624.65 771.704 1648.77 776.686 1670.18M425.773 1597.5C304.455 1718.82 547.092 1840.13 597.343 2011.71M425.773 1597.5C308.03 1715.24 183.138 1476.18 11.5674 1425.93M425.773 1597.5C418.391 1590.11 364.579 1536.3 350.107 1459.94M425.773 1597.5C433.635 1605.36 487.178 1658.9 563.143 1673.36M1011.55 1840.13C1011.55 2011.7 754.195 1925.92 597.343 2011.71M1011.55 1840.13C1002.03 1840.13 946.031 1840.13 890.233 1813.53C880.312 1808.8 870.398 1803.22 860.753 1796.66M1011.55 1840.13C1011.55 2011.7 1268.94 1925.92 1425.79 2011.7M1011.55 1840.13C1021.08 1840.13 1077.11 1840.13 1132.9 1813.53C1142.82 1808.8 1152.74 1803.22 1162.38 1796.66M1011.57 1328.66C989.574 1328.66 969.198 1326.63 949.78 1324.1M1011.57 1328.66C1011.57 1487.11 1011.55 1487.13 888.628 1633.55M1011.57 1328.66C1011.56 1487.13 942.272 1480.93 903.875 1556.24C896.568 1472.41 828.743 1453.06 888.573 1308.62M1011.57 1328.66C1011.56 1407.9 1011.56 1407.9 926.827 1440.17M1011.57 1328.66C1033.56 1328.66 1053.94 1326.63 1073.36 1324.1M1011.57 1328.66C1011.57 1487.11 1011.59 1487.13 1134.51 1633.55M1011.57 1328.66C1011.58 1487.13 1080.86 1480.92 1119.26 1556.24C1126.57 1472.41 1194.39 1453.06 1134.56 1308.62M1011.57 1328.66C1011.57 1407.9 1011.57 1407.9 1096.31 1440.17M694.614 1011.72C694.613 1045.1 700.94 1089.01 717.589 1133.48M694.614 1011.72C536.14 1011.72 542.988 1081.44 467.557 1120.17C551.873 1126.99 571.697 1193.91 717.589 1133.48M694.614 1011.72C693.73 1011.72 692.851 1011.72 691.978 1011.72M888.573 1308.62C828.743 1453.06 828.744 1453.06 888.573 1633.62M888.573 1308.62C828.743 1453.06 828.743 1453.06 658.397 1538.25M888.573 1308.62C866.443 1300.58 848.477 1291.35 831.431 1280.27M888.573 1308.62C912.048 1317.14 933.636 1321.28 949.78 1324.1M888.573 1308.62C828.743 1453.06 765.871 1420.21 701.655 1473.75C726.994 1394.45 673.236 1350.04 783.138 1240.13M888.573 1308.62C858.658 1380.84 858.658 1380.84 766.543 1377.01M888.573 1308.62C858.658 1380.84 858.658 1380.84 926.827 1440.17M888.573 1633.62L888.628 1633.55M888.573 1633.62C888.592 1633.6 888.61 1633.57 888.628 1633.55M783.138 1240.13C673.236 1350.04 673.236 1350.04 658.397 1538.25M783.138 1240.13C673.236 1350.04 673.236 1350.04 485.625 1365.77M783.138 1240.13C768.463 1224.75 755.977 1208.11 745.424 1190.87M783.138 1240.13C797.162 1254.84 813.185 1268.4 831.431 1280.27M783.138 1240.13C673.236 1350.04 629.952 1296.25 550.575 1322.05C604.564 1257.22 571.681 1193.92 717.589 1133.48M783.138 1240.13C728.187 1295.08 728.187 1295.08 647.999 1256.46M783.138 1240.13C728.187 1295.08 728.187 1295.08 766.543 1377.01M717.589 1133.48C571.681 1193.92 571.681 1193.92 485.625 1365.77M717.589 1133.48C571.681 1193.92 571.681 1193.92 389.844 1135.66M717.589 1133.48C724.814 1152.78 733.984 1172.18 745.424 1190.87M717.589 1133.48C644.635 1163.7 644.635 1163.7 584.127 1096.93M717.589 1133.48C644.635 1163.7 644.635 1163.7 647.999 1256.46M389.844 1135.66C469.213 1068.42 505.524 1037.66 547.439 1023.59C582.354 1011.87 621.157 1011.72 691.978 1011.72M700.697 1073.69L778.146 1058.25M700.697 1073.69C705.032 1092.87 707.92 1103.83 680.001 1109.4C650.858 1115.21 642.412 1085.31 584.127 1096.93M700.697 1073.69C697.646 1054.33 696.287 1042.98 668.508 1048.52C639.366 1054.33 642.412 1085.31 584.127 1096.93M745.424 1190.87L811.456 1146.42M745.424 1190.87C734.692 1171.91 730.23 1163.04 707.15 1178.58C682.794 1194.97 696.712 1223.67 647.999 1256.46M745.424 1190.87C757.806 1209.54 762.909 1216.43 739.925 1231.9C715.569 1248.3 696.712 1223.67 647.999 1256.46M831.431 1280.27L876.244 1213.45M831.431 1280.27C851.57 1292.21 858.949 1296.01 843.78 1318.63C827.558 1342.81 798.987 1328.64 766.543 1377.01M831.431 1280.27C812.605 1266.84 806.259 1261.73 791.062 1284.39C774.84 1308.57 798.987 1328.64 766.543 1377.01M949.78 1324.1L965.214 1246.05M949.78 1324.1C968.704 1326.32 980.442 1327.55 974.936 1355.4C969.198 1384.41 938.304 1382.13 926.827 1440.17M949.78 1324.1C929.754 1320.26 918.875 1317.88 913.438 1345.37C907.7 1374.39 938.304 1382.13 926.827 1440.17M853.082 1011.72C852.883 1020.79 854.25 1031.67 856.239 1043.06C857.151 1048.27 858.411 1053.5 859.969 1058.81M853.082 1011.72C778.146 1011.72 778.146 1011.72 778.146 1058.25M853.082 1011.72C853.079 1016.56 853.342 1021.85 853.921 1027.46M1011.55 1170.19C1011.55 1246.05 1011.55 1246.05 965.214 1246.05M965.214 1246.05C921.013 1229.86 922.613 1225.34 949.293 1159.9M876.244 1213.45C843.85 1179.94 844.742 1179.31 897.95 1126.6M876.244 1213.45C919.84 1229.43 922.602 1225.34 949.293 1159.9M949.293 1159.9C949.837 1158.56 948.727 1161.28 949.293 1159.9ZM949.293 1159.9C944.259 1158.1 939.525 1156.02 935.028 1153.75M811.456 1146.42C843.85 1179.94 844.742 1179.31 897.95 1126.6M811.456 1146.42C794.801 1102.34 795.761 1102.03 865.099 1074.07M897.95 1126.6C894.158 1122.72 890.719 1118.74 887.558 1114.63M897.95 1126.6C901.491 1130.22 905.178 1133.7 909.139 1136.99M778.146 1058.25C794.801 1102.34 795.761 1102.03 865.099 1074.07M865.099 1074.07C863.157 1068.87 861.432 1063.8 859.969 1058.81M865.099 1074.07C866.865 1078.81 868.918 1083.52 871.231 1088.2M1011.57 1011.72L932.325 1011.72M1011.57 1011.72L1011.57 1090.96M1011.57 1011.72L1090.81 1011.72M584.127 1096.93C615.022 1012.68 615.368 1011.73 691.978 1011.72M932.325 1011.72C932.325 1014.44 932.427 1017.07 932.623 1019.61C932.831 1022.32 933.147 1024.94 933.563 1027.46M932.325 1011.72C892.704 1011.72 853.082 1011.72 853.921 1027.46M1011.57 1090.96C1007.09 1090.86 1001.86 1090.3 996.253 1089.14M1011.57 1090.96C1011.57 1130.57 1011.57 1170.19 996.076 1169.64M1011.57 1090.96C1016.04 1090.86 1021.28 1090.3 1026.88 1089.14M1011.57 1090.96C1011.57 1130.57 1011.57 1170.19 1027.06 1169.64M955.172 1068.74C951.422 1065.26 947.953 1061.29 944.909 1056.77M955.172 1068.74C958.956 1072.26 963.027 1075.27 967.237 1077.84M955.172 1068.74C926.561 1097.67 897.95 1126.6 887.558 1114.63M955.172 1068.74C926.561 1097.67 897.95 1126.6 909.139 1136.99M980.936 1084.61C976.332 1082.81 971.706 1080.58 967.237 1077.84M980.936 1084.61C986.155 1086.64 991.347 1088.12 996.253 1089.14M980.936 1084.61C965.114 1122.25 949.293 1159.9 935.028 1153.75M980.936 1084.61C965.114 1122.25 949.293 1159.9 964.754 1164.68M937.796 1043.13C935.942 1038.35 934.5 1033.14 933.563 1027.46M937.796 1043.13C939.746 1048.15 942.153 1052.68 944.909 1056.77M937.796 1043.13C901.448 1058.6 865.099 1074.07 859.969 1058.81M937.796 1043.13C901.448 1058.6 865.099 1074.07 871.231 1088.2M933.563 1027.46C894.901 1035.26 856.239 1043.06 853.921 1027.46M933.563 1027.46C894.901 1035.26 856.239 1043.06 859.969 1058.81M944.909 1056.77C911.765 1079.17 878.62 1101.57 871.231 1088.2M944.909 1056.77C911.765 1079.17 878.62 1101.57 887.558 1114.63M967.237 1077.84C944.378 1111.94 921.52 1146.03 909.139 1136.99M967.237 1077.84C944.378 1111.94 921.52 1146.03 935.028 1153.75M996.253 1089.14C988.462 1128.52 980.671 1167.91 964.754 1164.68M996.253 1089.14C988.462 1128.52 980.671 1167.91 996.076 1169.64M853.921 1027.46C858.12 1068.16 878.919 1125.81 935.028 1153.75M871.231 1088.2C873.459 1092.7 875.929 1097.17 878.62 1101.57C881.362 1106.06 884.314 1110.41 887.558 1114.63M909.139 1136.99C912.972 1140.19 917.06 1143.21 921.52 1146.03C925.812 1148.75 930.289 1151.36 935.028 1153.75M935.028 1153.75C944.006 1158.22 953.89 1161.93 964.754 1164.68M964.754 1164.68C969.842 1165.97 975.145 1167.06 980.671 1167.91C985.625 1168.68 990.758 1169.26 996.076 1169.64M996.076 1169.64C1001.07 1170 1006.24 1170.19 1011.57 1170.19C1016.9 1170.19 1022.06 1170 1027.06 1169.64M597.343 2011.71C683.129 1804.6 448.471 1788.25 563.333 1673.39M597.343 2011.71C683.129 1804.6 860.753 1957.99 860.753 1796.66M11.5674 1425.93C218.671 1340.15 237.047 1573 350.107 1459.94M11.5674 1425.93C218.671 1340.15 65.6262 1161.69 227.438 1161.69M563.333 1673.39C607.959 1681.84 660.308 1676.79 715.673 1641.08M563.333 1673.39C563.27 1673.38 563.207 1673.37 563.143 1673.36M563.333 1673.39L563.143 1673.36M350.107 1459.94C341.633 1415.22 346.65 1362.76 382.386 1307.37M776.686 1670.18C791.127 1732.25 823.99 1771.65 860.753 1796.66M227.438 1161.69C252.488 1198.59 291.702 1231.71 353.09 1246.37M1459.8 1459.94C1430.15 1489.59 1398.28 1515.7 1364.74 1538.25M1459.8 1459.94C1489.2 1430.54 1515.1 1398.98 1537.51 1365.77M1459.8 1459.94C1528.58 1528.72 1597.36 1597.5 1459.8 1673.39M1459.8 1459.94C1528.58 1528.72 1459.8 1673.39 1307.46 1641.08M1459.8 1459.94C1528.58 1528.72 1597.36 1597.5 1673.03 1459.94M1459.8 1459.94C1528.58 1528.72 1673.03 1459.94 1640.75 1307.37M1597.36 1254.36C1581.39 1292.96 1561.44 1330.31 1537.51 1365.77M1597.36 1254.36C1613.3 1215.84 1625.28 1176.07 1633.29 1135.66M1597.36 1254.36C1615.22 1272.22 1629.51 1289.94 1640.75 1307.37M1597.36 1254.36C1624.52 1254.36 1648.63 1251.49 1670.05 1246.37M1254.22 1597.5C1215.4 1613.56 1175.3 1625.6 1134.56 1633.62M1254.22 1597.5C1292.5 1581.66 1329.55 1561.91 1364.74 1538.25M1254.22 1597.5C1272.17 1615.45 1289.97 1629.79 1307.46 1641.08M1254.22 1597.5C1254.22 1624.65 1251.43 1648.76 1246.45 1670.18M1597.36 1597.5C1718.68 1718.82 1476.04 1840.13 1425.79 2011.7M1597.36 1597.5C1715.11 1715.24 1840 1476.18 2011.57 1425.93M1597.36 1597.5C1604.75 1590.11 1658.56 1536.3 1673.03 1459.94M1597.36 1597.5C1589.5 1605.36 1535.96 1658.9 1459.99 1673.36M1134.56 1308.62C1194.39 1453.06 1194.39 1453.06 1134.56 1633.62M1134.56 1308.62C1194.39 1453.06 1194.39 1453.06 1364.74 1538.25M1134.56 1308.62C1156.69 1300.58 1174.66 1291.35 1191.71 1280.27M1134.56 1308.62C1111.09 1317.14 1089.5 1321.28 1073.36 1324.1M1134.56 1308.62C1194.39 1453.06 1257.27 1420.21 1321.48 1473.75C1296.14 1394.45 1349.9 1350.04 1240 1240.13M1134.56 1308.62C1164.48 1380.84 1164.48 1380.84 1256.59 1377.01M1134.56 1308.62C1164.48 1380.84 1164.48 1380.84 1096.31 1440.17M1134.56 1633.62L1134.51 1633.55M1134.56 1633.62C1134.55 1633.6 1134.53 1633.57 1134.51 1633.55M1240 1240.13C1349.9 1350.04 1349.9 1350.04 1364.74 1538.25M1240 1240.13C1349.9 1350.04 1349.9 1350.04 1537.51 1365.77M1240 1240.13C1254.67 1224.75 1267.16 1208.11 1277.71 1190.87M1240 1240.13C1225.97 1254.84 1209.95 1268.4 1191.71 1280.27M1240 1240.13C1349.9 1350.04 1393.18 1296.25 1472.56 1322.04C1418.57 1257.22 1451.46 1193.92 1305.55 1133.48M1240 1240.13C1294.95 1295.08 1294.95 1295.08 1375.14 1256.46M1240 1240.13C1294.95 1295.08 1294.95 1295.08 1256.59 1377.01M1305.55 1133.48C1451.46 1193.92 1451.46 1193.92 1537.51 1365.77M1305.55 1133.48C1451.46 1193.92 1451.46 1193.92 1633.29 1135.66M1305.55 1133.48C1298.32 1152.78 1289.15 1172.18 1277.71 1190.87M1305.55 1133.48C1378.5 1163.7 1378.5 1163.7 1439.01 1096.93M1305.55 1133.48C1378.5 1163.7 1378.5 1163.7 1375.14 1256.46M1322.44 1073.69L1244.99 1058.25M1322.44 1073.69C1318.1 1092.87 1315.22 1103.83 1343.14 1109.4C1372.28 1115.21 1380.72 1085.31 1439.01 1096.93M1322.44 1073.69C1325.49 1054.33 1326.85 1042.98 1354.63 1048.52C1383.77 1054.33 1380.72 1085.31 1439.01 1096.93M1277.71 1190.87L1211.68 1146.42M1277.71 1190.87C1288.44 1171.91 1292.91 1163.04 1315.99 1178.57C1340.34 1194.97 1326.42 1223.67 1375.14 1256.46M1277.71 1190.87C1265.33 1209.53 1260.23 1216.43 1283.21 1231.9C1307.57 1248.3 1326.42 1223.67 1375.14 1256.46M1191.71 1280.27L1146.89 1213.45M1191.71 1280.27C1171.57 1292.21 1164.19 1296.01 1179.36 1318.63C1195.58 1342.81 1224.15 1328.64 1256.59 1377.01M1191.71 1280.27C1210.53 1266.84 1216.88 1261.73 1232.07 1284.39C1248.3 1308.57 1224.15 1328.64 1256.59 1377.01M1073.36 1324.1L1057.92 1246.05M1073.36 1324.1C1054.43 1326.32 1042.7 1327.55 1048.2 1355.4C1053.94 1384.41 1084.83 1382.13 1096.31 1440.17M1073.36 1324.1C1093.38 1320.26 1104.26 1317.88 1109.7 1345.37C1115.44 1374.39 1084.83 1382.13 1096.31 1440.17M1170.05 1011.72C1170.25 1020.79 1168.89 1031.67 1166.9 1043.06C1165.99 1048.27 1164.73 1053.5 1163.17 1058.81M1170.05 1011.72C1244.99 1011.72 1244.99 1011.72 1244.99 1058.25M1170.05 1011.72C1170.06 1016.56 1169.79 1021.85 1169.22 1027.46M1011.59 1170.19C1011.59 1246.05 1011.59 1246.05 1057.92 1246.05M1057.92 1246.05C1102.12 1229.85 1100.52 1225.34 1073.84 1159.89M1146.89 1213.45C1179.29 1179.94 1178.39 1179.31 1125.19 1126.6M1146.89 1213.45C1103.3 1229.42 1100.53 1225.34 1073.84 1159.89M1073.84 1159.89C1073.3 1158.56 1074.41 1161.28 1073.84 1159.89ZM1073.84 1159.89C1078.88 1158.1 1083.61 1156.02 1088.11 1153.75M1211.68 1146.42C1179.29 1179.94 1178.39 1179.31 1125.19 1126.6M1211.68 1146.42C1228.34 1102.34 1227.38 1102.03 1158.04 1074.07M1125.19 1126.6C1128.98 1122.72 1132.42 1118.73 1135.58 1114.63M1125.19 1126.6C1121.65 1130.22 1117.96 1133.69 1114 1136.99M1244.99 1058.25C1228.34 1102.34 1227.38 1102.03 1158.04 1074.07M1158.04 1074.07C1159.98 1068.87 1161.7 1063.8 1163.17 1058.81M1158.04 1074.07C1156.27 1078.81 1154.22 1083.52 1151.91 1088.2M1090.81 1011.72C1090.81 1014.44 1090.71 1017.07 1090.51 1019.61C1090.31 1022.32 1089.99 1024.94 1089.57 1027.46M1090.81 1011.72C1130.43 1011.72 1170.05 1011.72 1169.22 1027.46M1067.96 1068.74C1071.72 1065.26 1075.18 1061.29 1078.23 1056.77M1067.96 1068.74C1064.18 1072.26 1060.11 1075.27 1055.9 1077.84M1067.96 1068.74C1096.58 1097.67 1125.19 1126.6 1135.58 1114.63M1067.96 1068.74C1096.58 1097.67 1125.19 1126.6 1114 1136.99M1042.2 1084.61C1046.81 1082.81 1051.43 1080.58 1055.9 1077.84M1042.2 1084.61C1036.98 1086.64 1031.79 1088.12 1026.88 1089.14M1042.2 1084.61C1058.02 1122.25 1073.84 1159.89 1088.11 1153.75M1042.2 1084.61C1058.02 1122.25 1073.84 1159.89 1058.38 1164.68M1085.34 1043.13C1087.2 1038.35 1088.64 1033.14 1089.57 1027.46M1085.34 1043.13C1083.39 1048.15 1080.98 1052.68 1078.23 1056.77M1085.34 1043.13C1121.69 1058.6 1158.04 1074.07 1163.17 1058.81M1085.34 1043.13C1121.69 1058.6 1158.04 1074.07 1151.91 1088.2M1089.57 1027.46C1128.24 1035.26 1166.9 1043.06 1169.22 1027.46M1089.57 1027.46C1128.24 1035.26 1166.9 1043.06 1163.17 1058.81M1078.23 1056.77C1111.37 1079.17 1144.52 1101.57 1151.91 1088.2M1078.23 1056.77C1111.37 1079.17 1144.52 1101.57 1135.58 1114.63M1055.9 1077.84C1078.76 1111.94 1101.62 1146.03 1114 1136.99M1055.9 1077.84C1078.76 1111.94 1101.62 1146.03 1088.11 1153.75M1026.88 1089.14C1034.67 1128.52 1042.47 1167.91 1058.38 1164.68M1026.88 1089.14C1034.67 1128.52 1042.47 1167.91 1027.06 1169.64M1169.22 1027.46C1165.02 1068.16 1144.22 1125.81 1088.11 1153.75M1151.91 1088.2C1149.68 1092.7 1147.21 1097.17 1144.52 1101.57C1141.77 1106.06 1138.82 1110.41 1135.58 1114.63M1114 1136.99C1110.17 1140.19 1106.08 1143.21 1101.62 1146.03C1097.32 1148.75 1092.85 1151.36 1088.11 1153.75M1088.11 1153.75C1079.13 1158.22 1069.25 1161.93 1058.38 1164.68M1058.38 1164.68C1053.29 1165.97 1047.99 1167.05 1042.47 1167.91C1037.51 1168.67 1032.38 1169.26 1027.06 1169.64M1425.79 2011.7C1340.01 1804.6 1574.67 1788.25 1459.8 1673.39M1425.79 2011.7C1340.01 1804.6 1162.38 1957.99 1162.38 1796.66M2011.57 1425.93C1804.47 1340.14 1786.09 1573 1673.03 1459.94M2011.57 1425.93C1804.47 1340.14 1957.51 1161.69 1795.7 1161.69M1459.8 1673.39C1415.18 1681.84 1362.83 1676.79 1307.46 1641.08M1459.8 1673.39C1459.87 1673.38 1459.93 1673.37 1459.99 1673.36M1459.8 1673.39L1459.99 1673.36M1673.03 1459.94C1681.5 1415.22 1676.49 1362.76 1640.75 1307.37M1246.45 1670.18C1232.01 1732.25 1199.15 1771.65 1162.38 1796.66M1795.7 1161.69C1770.65 1198.59 1731.43 1231.71 1670.05 1246.37M1015.33 634.284C1031.11 536.43 1086.57 531.313 1119.25 467.203C1125.46 538.395 1175.31 563.084 1153.56 657.377" stroke="white" stroke-width="15"/>
</svg>
