<svg width="405" height="405" viewBox="0 0 405 405" fill="none" xmlns="http://www.w3.org/2000/svg">
<path d="M97.3827 131.426C92.597 138.518 88.6069 145.988 85.4124 153.708C82.2249 161.412 79.8297 169.366 78.2265 177.447C114.594 165.796 114.594 165.796 143.775 177.883C114.594 165.796 114.594 165.796 97.3827 131.426Z" fill="white"/>
<path d="M131.937 96.9301C125.228 101.44 118.856 106.661 112.924 112.592C107.046 118.471 101.865 124.783 97.3827 131.426C134.905 134.573 134.905 134.573 156.885 156.553C134.905 134.573 134.905 134.573 131.937 96.9301Z" fill="white"/>
<path d="M177.876 77.8903C169.729 79.4936 161.806 81.8674 154.041 85.0802C146.385 88.2478 138.976 92.1979 131.937 96.9301C166.006 113.968 166.006 113.968 177.972 142.856C166.006 113.968 165.91 114.003 177.876 77.8903Z" fill="white"/>
<path d="M186.723 202.236L202.571 202.236L202.571 186.389C201.676 186.408 200.63 186.52 199.508 186.752C198.527 186.955 197.489 187.251 196.445 187.659C195.524 188.018 194.599 188.465 193.705 189.011C192.863 189.525 192.049 190.129 191.292 190.831C190.542 191.528 189.848 192.323 189.24 193.226C188.688 194.044 188.207 194.951 187.817 195.955C187.446 196.909 187.158 197.951 186.97 199.088C186.887 199.592 186.824 200.116 186.782 200.658C186.743 201.167 186.723 201.692 186.723 202.236Z" fill="white"/>
<path d="M85.4124 153.708C81.8402 150.136 78.9834 146.592 76.7348 143.107C69.5877 132.028 68.5842 121.536 70.2791 112.592C47.6671 89.9803 43.9916 136.551 2.57092 119.394C43.9916 136.551 13.3829 172.242 45.7454 172.242C50.7553 164.862 58.5982 158.238 70.8757 155.305C75.1589 154.282 79.9818 153.708 85.4124 153.708Z" fill="white"/>
<path d="M112.924 69.9013C121.849 68.2116 132.319 69.222 143.392 76.3642C146.891 78.6211 150.451 81.4904 154.041 85.0802C154.041 79.6495 154.598 74.8266 155.595 70.5434C158.483 58.1296 165.056 50.2494 172.408 45.2472C172.408 12.9815 136.883 43.6594 119.726 2.23865C136.883 43.6594 89.952 46.9289 112.924 69.9013Z" fill="white"/>
<path d="M85.4123 85.0802C83.9358 86.5567 73.1733 97.3192 70.2791 112.592C85.4123 85.0803 99.1683 98.8363 112.924 112.592C99.1683 98.8363 85.4124 85.0802 112.924 69.9013L112.886 69.9085C97.6933 72.7993 86.9847 83.5078 85.4123 85.0802Z" fill="white"/>
<path d="M307.76 131.426C312.546 138.518 316.536 145.988 319.73 153.708C322.918 161.412 325.313 169.367 326.916 177.447C290.549 165.796 290.549 165.796 261.367 177.883C290.549 165.796 290.549 165.796 307.76 131.426Z" fill="white"/>
<path d="M273.206 96.9301C279.914 101.44 286.287 106.661 292.219 112.592C298.097 118.471 303.278 124.783 307.76 131.426C270.238 134.573 270.238 134.573 248.258 156.553C270.238 134.573 270.238 134.573 273.206 96.9301Z" fill="white"/>
<path d="M227.17 77.8561C235.317 79.4594 243.337 81.8675 251.102 85.0803C258.758 88.2479 266.167 92.1979 273.206 96.9301C239.137 113.968 239.136 113.968 227.171 142.857C239.136 113.968 239.136 113.968 227.17 77.8561Z" fill="white"/>
<path d="M218.42 202.236L202.571 202.236L202.571 186.389C203.466 186.408 204.513 186.52 205.634 186.752C206.616 186.955 207.654 187.251 208.698 187.659C209.619 188.018 210.544 188.465 211.438 189.011C212.28 189.525 213.094 190.129 213.851 190.832C214.601 191.528 215.295 192.323 215.903 193.226C216.454 194.044 216.936 194.951 217.326 195.955C217.697 196.909 217.985 197.951 218.172 199.088C218.256 199.593 218.319 200.116 218.361 200.658C218.4 201.167 218.42 201.693 218.42 202.236Z" fill="white"/>
<path d="M319.73 153.708C323.303 150.136 326.159 146.592 328.408 143.107C335.555 132.028 336.559 121.536 334.864 112.592C357.476 89.9802 361.151 136.551 402.572 119.394C361.151 136.551 391.76 172.242 359.398 172.242C354.388 164.862 346.545 158.238 334.267 155.305C329.984 154.282 325.161 153.708 319.73 153.708Z" fill="white"/>
<path d="M292.219 69.9013C283.293 68.2116 272.824 69.222 261.751 76.3642C258.251 78.6212 254.692 81.4905 251.102 85.0803C251.102 79.6496 250.544 74.8266 249.548 70.5434C246.66 58.1296 240.087 50.2495 232.735 45.2473C232.735 12.9816 268.259 43.6595 285.416 2.2388C268.259 43.6595 315.191 46.9289 292.219 69.9013Z" fill="white"/>
<path d="M319.73 85.0802C321.207 86.5567 331.969 97.3191 334.864 112.592C319.73 85.0802 305.974 98.8362 292.219 112.592C305.974 98.8362 319.731 85.0802 292.219 69.9013L292.257 69.9085C307.45 72.7993 318.158 83.5078 319.73 85.0802Z" fill="white"/>
<path d="M97.3843 273.045C92.5986 265.953 88.6085 258.484 85.414 250.763C82.2266 243.059 79.8313 235.105 78.2281 227.025C114.596 238.676 114.596 238.676 143.777 226.588C114.596 238.676 114.596 238.676 97.3843 273.045Z" fill="white"/>
<path d="M131.939 307.541C125.23 303.031 118.857 297.811 112.926 291.879C107.047 286.001 101.867 279.688 97.3843 273.045C134.906 269.899 134.906 269.899 156.887 247.918C134.906 269.899 134.906 269.899 131.939 307.541Z" fill="white"/>
<path d="M177.974 326.615C169.827 325.012 161.807 322.604 154.042 319.391C146.386 316.224 138.978 312.274 131.939 307.541C166.008 290.503 166.008 290.503 177.974 261.615C166.008 290.503 166.008 290.503 177.974 326.615Z" fill="white"/>
<path d="M186.724 202.236L202.573 202.236L202.573 218.083C201.678 218.063 200.631 217.952 199.51 217.719C198.529 217.516 197.49 217.22 196.446 216.813C195.526 216.453 194.6 216.007 193.707 215.461C192.865 214.946 192.051 214.343 191.294 213.64C190.544 212.943 189.85 212.149 189.241 211.246C188.69 210.428 188.209 209.521 187.818 208.517C187.448 207.562 187.159 206.52 186.972 205.383C186.889 204.879 186.826 204.356 186.784 203.814C186.745 203.305 186.724 202.779 186.724 202.236Z" fill="white"/>
<path d="M85.414 250.763C81.8418 254.335 78.9851 257.879 76.7365 261.365C69.5893 272.444 68.5858 282.935 70.2807 291.879C47.6688 314.491 43.9934 267.921 2.57277 285.078C43.9934 267.921 13.3845 232.23 45.747 232.23C50.7569 239.609 58.5998 246.233 70.8773 249.166C75.1605 250.189 79.9834 250.763 85.414 250.763Z" fill="white"/>
<path d="M112.926 334.57C121.851 336.26 132.321 335.249 143.394 328.107C146.893 325.85 150.452 322.981 154.042 319.391C154.042 324.822 154.6 329.645 155.597 333.928C158.485 346.342 165.057 354.222 172.41 359.224C172.41 391.49 136.885 360.812 119.728 402.233C136.885 360.812 89.9535 357.542 112.926 334.57Z" fill="white"/>
<path d="M85.414 319.391C83.9374 317.915 73.175 307.152 70.2807 291.879C85.414 319.391 99.17 305.635 112.926 291.879C99.17 305.635 85.4139 319.391 112.926 334.57L112.888 334.563C97.6949 331.672 86.9864 320.964 85.414 319.391Z" fill="white"/>
<path d="M307.762 273.045C312.547 265.953 316.537 258.484 319.732 250.763C322.919 243.059 325.315 235.105 326.918 227.025C290.55 238.676 290.55 238.676 261.369 226.588C290.55 238.676 290.55 238.676 307.762 273.045Z" fill="white"/>
<path d="M273.207 307.541C279.916 303.031 286.289 297.81 292.22 291.879C298.099 286.001 303.279 279.688 307.762 273.045C270.239 269.899 270.239 269.899 248.259 247.918C270.239 269.899 270.239 269.899 273.207 307.541Z" fill="white"/>
<path d="M227.172 326.615C235.319 325.012 243.339 322.604 251.104 319.391C258.76 316.223 266.168 312.274 273.207 307.541C239.138 290.503 239.138 290.503 227.172 261.615C239.138 290.503 239.138 290.503 227.172 326.615Z" fill="white"/>
<path d="M218.422 202.236L202.573 202.236L202.573 218.083C203.468 218.063 204.515 217.952 205.636 217.719C206.617 217.516 207.656 217.22 208.699 216.813C209.62 216.453 210.545 216.007 211.439 215.461C212.281 214.946 213.095 214.343 213.852 213.64C214.602 212.943 215.296 212.149 215.905 211.246C216.456 210.428 216.937 209.521 217.327 208.517C217.698 207.562 217.987 206.52 218.174 205.383C218.257 204.879 218.32 204.356 218.362 203.814C218.401 203.305 218.422 202.779 218.422 202.236Z" fill="white"/>
<path d="M319.732 250.763C323.304 254.335 326.161 257.879 328.409 261.365C335.557 272.444 336.56 282.935 334.865 291.879C357.477 314.491 361.153 267.92 402.573 285.077C361.153 267.92 391.761 232.23 359.399 232.23C354.389 239.609 346.546 246.233 334.269 249.166C329.985 250.189 325.163 250.763 319.732 250.763Z" fill="white"/>
<path d="M292.22 334.57C283.295 336.26 272.825 335.249 261.752 328.107C258.253 325.85 254.694 322.981 251.104 319.391C251.104 324.822 250.546 329.645 249.549 333.928C246.661 346.342 240.089 354.222 232.736 359.224C232.736 391.49 268.261 360.812 285.418 402.233C268.261 360.812 315.192 357.542 292.22 334.57Z" fill="white"/>
<path d="M319.732 319.391C321.208 317.915 331.971 307.152 334.865 291.879C319.732 319.391 305.976 305.635 292.22 291.879C305.976 305.635 319.732 319.391 292.22 334.57L292.258 334.563C307.451 331.672 318.16 320.964 319.732 319.391Z" fill="white"/>
<path d="M45.7454 172.242C36.8852 185.292 36.8852 200.704 36.8852 202.236C36.8852 203.767 36.8868 219.179 45.747 232.23C36.8868 202.236 56.3406 202.236 75.7945 202.236C56.3406 202.236 36.8852 202.236 45.7454 172.242Z" fill="white"/>
<path d="M178.306 362.597C189.466 367.919 200.665 367.919 202.57 367.919C204.474 367.919 215.68 367.918 226.84 362.597C228.824 361.651 230.807 360.536 232.736 359.224C202.576 367.918 202.576 348.465 202.576 329.011C202.576 348.465 202.57 367.919 172.41 359.224C174.339 360.537 176.322 361.651 178.306 362.597Z" fill="white"/>
<path d="M368.259 202.236C368.259 200.704 368.258 185.292 359.398 172.242C368.258 202.236 348.805 202.236 329.351 202.236C348.805 202.236 368.259 202.236 359.399 232.23C368.259 219.179 368.259 203.768 368.259 202.236Z" fill="white"/>
<path d="M329.351 202.236C329.351 193.93 328.539 185.624 326.916 177.447C311.042 190.895 303.78 197.047 295.397 199.862C288.328 202.236 280.462 202.236 265.962 202.236H265.964C280.464 202.236 288.33 202.236 295.399 204.609C303.782 207.424 311.044 213.576 326.918 227.025C328.54 218.848 329.351 210.542 329.351 202.236Z" fill="white"/>
<path d="M78.2265 177.447C76.6041 185.624 75.7945 193.93 75.7945 202.236C75.7945 210.542 76.6057 218.848 78.2281 227.025C94.102 213.576 101.364 207.424 109.747 204.609C116.73 202.265 124.491 202.236 138.655 202.236C138.83 202.235 139.005 202.236 139.182 202.236L139.18 202.236C139.003 202.236 138.828 202.236 138.655 202.236C124.49 202.235 116.729 202.207 109.745 199.862C101.363 197.047 94.1004 190.895 78.2265 177.447Z" fill="white"/>
<path d="M177.974 326.615C186.088 328.212 194.336 329.011 202.576 329.011C210.817 329.011 219.057 328.212 227.172 326.615L227.161 326.602C202.576 297.317 202.573 297.313 202.573 265.624C202.573 297.313 202.57 297.317 177.985 326.602L177.974 326.615Z" fill="white"/>
<path d="M202.575 75.4606C194.334 75.4606 185.991 76.2934 177.876 77.8903C202.285 106.966 202.463 107.852 202.464 138.868C202.467 107.957 203.007 106.64 227.17 77.8561C219.056 76.2592 210.815 75.4606 202.575 75.4606Z" fill="white"/>
<path d="M202.575 36.5529C200.67 36.5529 189.464 36.5528 178.304 41.8744C176.32 42.8205 174.337 43.9348 172.408 45.2472C202.568 36.5528 202.575 56.0068 202.575 75.4606C202.575 56.0068 202.575 36.5528 232.735 45.2473C230.806 43.9349 228.823 42.8206 226.839 41.8745C215.679 36.5529 204.48 36.5529 202.575 36.5529Z" fill="white"/>
<path d="M112.924 112.592C118.856 106.661 125.228 101.44 131.937 96.9301M112.924 112.592C107.046 118.471 101.865 124.783 97.3827 131.426M112.924 112.592C99.1683 98.8363 85.4124 85.0802 112.924 69.9013M112.924 112.592C99.1683 98.8363 112.924 69.9013 143.392 76.3642M112.924 112.592C99.1683 98.8363 85.4123 85.0803 70.2791 112.592M112.924 112.592C99.1683 98.8363 70.2791 112.592 76.7348 143.107M75.7945 202.236C75.7945 193.93 76.6041 185.624 78.2265 177.447M75.7945 202.236C56.3406 202.236 45.7453 172.242 70.8757 155.305M75.7945 202.236C56.3406 202.236 36.8852 202.236 45.7454 172.242M75.7945 202.236C75.7945 210.542 76.6057 218.848 78.2281 227.025M75.7945 202.236C56.3406 202.236 45.7469 232.23 70.8773 249.166M75.7945 202.236C56.3406 202.236 36.8868 202.236 45.747 232.23M202.575 75.4606C194.334 75.4606 185.991 76.2934 177.876 77.8903M202.575 75.4606C202.575 56.0068 202.568 36.5528 172.408 45.2472M202.575 75.4606C210.815 75.4606 219.056 76.2592 227.17 77.8561M202.575 75.4606C202.575 56.0068 202.575 36.5528 232.735 45.2473M202.575 75.4606C202.575 56.0068 172.408 45.2473 155.595 70.5434M202.575 75.4606C202.575 56.0068 232.735 45.2473 249.548 70.5434M85.4124 153.708C88.6069 145.988 92.597 138.518 97.3827 131.426M85.4124 153.708C82.2249 161.412 79.8297 169.366 78.2265 177.447M85.4124 153.708C81.8402 150.136 78.9834 146.592 76.7348 143.107M85.4124 153.708C79.9818 153.708 75.1589 154.282 70.8757 155.305M154.041 85.0802C161.806 81.8674 169.729 79.4936 177.876 77.8903M154.041 85.0802C146.385 88.2478 138.976 92.1979 131.937 96.9301M154.041 85.0802C150.451 81.4904 146.891 78.6211 143.392 76.3642M154.041 85.0802C154.041 79.6495 154.598 74.8266 155.595 70.5434M36.8852 202.236C2.57114 202.236 19.728 150.764 2.57092 119.394M36.8852 202.236C36.8852 200.704 36.8852 185.292 45.7454 172.242M36.8852 202.236C2.57114 202.236 19.7299 253.708 2.57277 285.078M36.8852 202.236C36.8852 203.767 36.8868 219.179 45.747 232.23M85.4123 85.0802C61.1486 60.8165 109.676 36.5527 119.726 2.23865M85.4123 85.0802C61.8636 61.5316 36.885 109.344 2.57092 119.394M85.4123 85.0802C83.9358 86.5567 73.1733 97.3192 70.2791 112.592M85.4123 85.0802C86.9847 83.5078 97.6933 72.7993 112.886 69.9085M202.575 36.5529C202.575 2.23882 151.097 19.3957 119.726 2.23865M202.575 36.5529C200.67 36.5529 189.464 36.5528 178.304 41.8744C176.32 42.8205 174.337 43.9348 172.408 45.2472M202.575 36.5529C202.575 2.23882 254.046 19.3958 285.416 2.2388M202.575 36.5529C204.48 36.5529 215.679 36.5529 226.839 41.8745C228.823 42.8206 230.806 43.9349 232.735 45.2473M202.464 138.868C198.065 138.868 194.097 139.254 190.214 139.761M202.464 138.868C206.863 138.868 211.046 139.254 214.929 139.761M202.464 138.868C202.464 138.967 202.464 138.769 202.464 138.868ZM202.464 138.868C202.377 107.48 188.688 108.347 181.033 93.3322C179.571 110.098 166.006 113.968 177.972 142.856M202.464 138.868C202.467 133.463 202.512 129.295 203.325 126.748M202.464 138.868C202.477 134.284 202.785 130.096 203.325 126.748M202.464 138.868C202.463 107.852 202.285 106.966 177.876 77.8903M202.464 138.868C202.467 107.957 203.007 106.64 227.17 77.8561M202.464 138.868C202.463 123.694 202.327 122.908 185.623 116.546M202.464 138.868C202.464 138.642 202.464 139.091 202.464 138.868ZM139.18 202.236C139.18 195.561 140.446 186.777 143.775 177.883M139.18 202.236H139.178M139.18 202.236L139.182 202.236M139.18 202.236C139.003 202.236 138.828 202.236 138.655 202.236M177.972 142.856C166.006 113.968 165.91 114.003 177.876 77.8903M177.972 142.856C166.006 113.968 166.006 113.968 131.937 96.9301M177.972 142.856C173.546 144.463 169.953 146.309 166.544 148.526M177.972 142.856C182.667 141.152 186.985 140.323 190.214 139.761M177.972 142.856C166.006 113.968 153.432 120.538 140.589 109.829C145.657 125.689 134.905 134.573 156.885 156.553M177.972 142.856C171.989 128.412 171.989 128.412 153.566 129.178M177.972 142.856C171.989 128.412 171.989 128.412 185.623 116.546M177.876 77.8903C177.88 77.8947 177.872 77.886 177.876 77.8903ZM156.885 156.553C134.905 134.573 134.905 134.573 131.937 96.9301M156.885 156.553C134.905 134.573 134.905 134.573 97.3827 131.426M156.885 156.553C153.95 159.63 151.453 162.957 149.343 166.405M156.885 156.553C159.69 153.612 162.895 150.899 166.544 148.526M156.885 156.553C134.905 134.573 126.248 145.33 110.373 140.171C121.17 153.136 114.594 165.796 143.775 177.883M156.885 156.553C145.895 145.563 145.895 145.563 129.858 153.288M156.885 156.553C145.895 145.563 145.895 145.563 153.566 129.178M143.775 177.883C114.594 165.796 114.594 165.796 97.3827 131.426M143.775 177.883C114.594 165.796 114.594 165.796 78.2265 177.447M143.775 177.883C145.221 174.023 147.054 170.143 149.343 166.405M143.775 177.883C114.597 165.797 110.632 179.182 93.7692 180.545C108.771 188.249 107.5 202.082 138.655 202.236M143.775 177.883C129.185 171.839 129.185 171.839 117.083 185.193M143.775 177.883C129.185 171.839 129.185 171.839 129.858 153.288M78.2265 177.447C94.1004 190.895 101.363 197.047 109.745 199.862C116.729 202.207 124.49 202.235 138.655 202.236M140.397 189.841L155.887 192.929M140.397 189.841C141.264 186.007 141.842 183.813 136.258 182.7C130.429 181.538 128.74 187.517 117.083 185.193M140.397 189.841C139.787 193.714 139.515 195.984 133.959 194.876C128.131 193.714 128.74 187.517 117.083 185.193M149.343 166.405L162.549 175.295M149.343 166.405C147.196 170.198 146.304 171.972 141.688 168.865C136.817 165.585 139.6 159.846 129.858 153.288M149.343 166.405C151.819 162.673 152.84 161.294 148.243 158.2C143.371 154.92 139.6 159.846 129.858 153.288M166.544 148.526L175.506 161.889M166.544 148.526C170.572 146.138 172.047 145.377 169.014 140.854C165.769 136.017 160.055 138.852 153.566 129.178M166.544 148.526C162.779 151.212 161.509 152.234 158.47 147.703C155.226 142.865 160.055 138.852 153.566 129.178M190.214 139.761L193.3 155.37M190.214 139.761C193.998 139.316 196.346 139.069 195.245 133.5C194.097 127.697 187.919 128.153 185.623 116.546M190.214 139.761C186.209 140.527 184.033 141.004 182.945 135.505C181.798 129.701 187.919 128.153 185.623 116.546M170.874 202.236C170.834 200.421 171.108 198.245 171.506 195.968C171.688 194.925 171.94 193.88 172.251 192.817M170.874 202.236C155.887 202.235 155.887 202.235 155.887 192.929M170.874 202.236C170.874 201.267 170.926 200.21 171.042 199.088M202.568 170.542C202.568 155.371 202.568 155.37 193.3 155.37M193.3 155.37C184.46 158.609 184.78 159.511 190.116 172.601M175.506 161.889C169.028 168.592 169.206 168.717 179.848 179.26M175.506 161.889C184.226 158.695 184.778 159.512 190.116 172.601M190.116 172.601C190.225 172.867 190.003 172.323 190.116 172.601ZM190.116 172.601C189.109 172.96 188.163 173.376 187.263 173.83M162.549 175.295C169.028 168.592 169.206 168.717 179.848 179.26M162.549 175.295C159.218 184.112 159.41 184.174 173.277 189.765M179.848 179.26C179.089 180.035 178.402 180.833 177.769 181.655M179.848 179.26C180.556 178.537 181.293 177.841 182.086 177.181M155.887 192.929C159.218 184.112 159.41 184.174 173.277 189.765M173.277 189.765C172.889 190.806 172.544 191.819 172.251 192.817M173.277 189.765C173.631 188.818 174.041 187.875 174.504 186.94M202.571 202.236L186.723 202.236M202.571 202.236L202.571 186.389M202.571 202.236L218.42 202.236M117.083 185.193C123.262 202.045 123.331 202.233 138.655 202.236M186.723 202.236C186.723 201.692 186.743 201.167 186.782 200.658C186.824 200.116 186.887 199.592 186.97 199.088M186.723 202.236C178.798 202.236 170.874 202.236 171.042 199.088M202.571 186.389C201.676 186.408 200.63 186.52 199.508 186.752M202.571 186.389C202.571 178.465 202.571 170.542 199.473 170.651M202.571 186.389C203.466 186.408 204.513 186.52 205.634 186.752M202.571 186.389C202.571 178.465 202.571 170.542 205.67 170.652M191.292 190.831C190.542 191.528 189.848 192.323 189.24 193.226M191.292 190.831C192.049 190.129 192.863 189.525 193.705 189.011M191.292 190.831C185.57 185.046 179.848 179.26 177.769 181.655M191.292 190.831C185.57 185.046 179.848 179.26 182.086 177.181M196.445 187.659C195.524 188.018 194.599 188.465 193.705 189.011M196.445 187.659C197.489 187.251 198.527 186.955 199.508 186.752M196.445 187.659C193.281 180.13 190.116 172.601 187.263 173.83M196.445 187.659C193.281 180.13 190.116 172.601 193.208 171.643M187.817 195.955C187.446 196.909 187.158 197.951 186.97 199.088M187.817 195.955C188.207 194.951 188.688 194.044 189.24 193.226M187.817 195.955C180.547 192.86 173.277 189.765 172.251 192.817M187.817 195.955C180.547 192.86 173.277 189.765 174.504 186.94M186.97 199.088C179.238 197.528 171.506 195.968 171.042 199.088M186.97 199.088C179.238 197.528 171.506 195.968 172.251 192.817M189.24 193.226C182.611 188.746 175.982 184.265 174.504 186.94M189.24 193.226C182.611 188.746 175.982 184.265 177.769 181.655M193.705 189.011C189.133 182.192 184.562 175.373 182.086 177.181M193.705 189.011C189.133 182.192 184.562 175.373 187.263 173.83M199.508 186.752C197.95 178.875 196.392 170.998 193.208 171.643M199.508 186.752C197.95 178.875 196.392 170.998 199.473 170.651M171.042 199.088C171.882 190.948 176.041 179.417 187.263 173.83M174.504 186.94C174.95 186.039 175.444 185.146 175.982 184.265C176.53 183.367 177.12 182.498 177.769 181.655M182.086 177.181C182.852 176.542 183.67 175.937 184.562 175.373C185.42 174.83 186.315 174.309 187.263 173.83M187.263 173.83C189.059 172.936 191.036 172.195 193.208 171.643M193.208 171.643C194.226 171.385 195.287 171.169 196.392 170.998C197.383 170.845 198.409 170.728 199.473 170.651M199.473 170.651C200.473 170.579 201.505 170.542 202.571 170.542C203.637 170.542 204.67 170.579 205.67 170.652M119.726 2.23865C136.883 43.6594 89.952 46.9289 112.924 69.9013M119.726 2.23865C136.883 43.6594 172.408 12.9815 172.408 45.2472M2.57092 119.394C43.9916 136.551 47.6671 89.9803 70.2791 112.592M2.57092 119.394C43.9916 136.551 13.3829 172.242 45.7454 172.242M112.924 69.9013C121.849 68.2116 132.319 69.222 143.392 76.3642M112.924 69.9013C112.912 69.9037 112.899 69.9061 112.886 69.9085M112.924 69.9013L112.886 69.9085M70.2791 112.592C68.5842 121.536 69.5877 132.028 76.7348 143.107M155.595 70.5434C158.483 58.1296 165.056 50.2494 172.408 45.2472M45.7454 172.242C50.7553 164.862 58.5982 158.238 70.8757 155.305M292.219 112.592C286.287 106.661 279.914 101.44 273.206 96.9301M292.219 112.592C298.097 118.471 303.278 124.783 307.76 131.426M292.219 112.592C305.974 98.8362 319.731 85.0802 292.219 69.9013M292.219 112.592C305.974 98.8362 292.219 69.9013 261.751 76.3642M292.219 112.592C305.974 98.8362 319.73 85.0802 334.864 112.592M292.219 112.592C305.974 98.8362 334.864 112.592 328.408 143.107M329.351 202.236C329.351 193.93 328.539 185.624 326.916 177.447M329.351 202.236C348.805 202.236 359.398 172.242 334.267 155.305M329.351 202.236C348.805 202.236 368.258 202.236 359.398 172.242M329.351 202.236C329.351 210.542 328.54 218.848 326.918 227.025M329.351 202.236C348.805 202.236 359.399 232.23 334.269 249.166M329.351 202.236C348.805 202.236 368.259 202.236 359.399 232.23M319.73 153.708C316.536 145.988 312.546 138.518 307.76 131.426M319.73 153.708C322.918 161.412 325.313 169.367 326.916 177.447M319.73 153.708C323.303 150.136 326.159 146.592 328.408 143.107M319.73 153.708C325.161 153.708 329.984 154.282 334.267 155.305M251.102 85.0803C243.337 81.8675 235.317 79.4594 227.17 77.8561M251.102 85.0803C258.758 88.2479 266.167 92.1979 273.206 96.9301M251.102 85.0803C254.692 81.4905 258.251 78.6212 261.751 76.3642M251.102 85.0803C251.102 79.6496 250.544 74.8266 249.548 70.5434M368.259 202.236C402.573 202.236 385.415 150.764 402.572 119.394M368.259 202.236C368.259 200.704 368.258 185.292 359.398 172.242M368.259 202.236C402.573 202.236 385.416 253.707 402.573 285.077M368.259 202.236C368.259 203.768 368.259 219.179 359.399 232.23M319.73 85.0802C343.994 60.8165 295.467 36.5528 285.416 2.2388M319.73 85.0802C343.279 61.5316 368.258 109.344 402.572 119.394M319.73 85.0802C321.207 86.5567 331.969 97.3191 334.864 112.592M319.73 85.0802C318.158 83.5078 307.45 72.7993 292.257 69.9085M265.962 202.236C265.962 195.561 264.697 186.777 261.367 177.883M265.962 202.236H265.964M265.962 202.236C280.462 202.236 288.328 202.236 295.397 199.862C303.78 197.047 311.042 190.895 326.916 177.447M265.962 202.236C297.657 202.236 296.287 188.292 311.374 180.545C294.51 179.182 290.546 165.797 261.367 177.883M265.962 202.236C281.811 202.236 281.811 202.236 288.06 185.193M227.171 142.857C239.136 113.968 239.136 113.968 227.17 77.8561M227.171 142.857C239.136 113.968 239.137 113.968 273.206 96.9301M227.171 142.857C231.597 144.463 235.19 146.309 238.599 148.526M227.171 142.857C222.476 141.152 218.158 140.323 214.929 139.761M227.171 142.857C239.136 113.968 251.711 120.538 264.554 109.829C259.486 125.689 270.238 134.573 248.258 156.553M227.171 142.857C233.154 128.412 233.153 128.412 251.576 129.178M227.171 142.857C229.399 137.475 230.798 134.099 230.971 131.367M227.171 142.857C228.975 138.501 230.198 134.715 230.971 131.367M227.17 77.8561C227.088 77.9547 227.253 77.7583 227.17 77.8561ZM248.258 156.553C270.238 134.573 270.238 134.573 273.206 96.9301M248.258 156.553C270.238 134.573 270.238 134.573 307.76 131.426M248.258 156.553C251.192 159.63 253.69 162.957 255.8 166.405M248.258 156.553C245.453 153.612 242.248 150.899 238.599 148.526M248.258 156.553C270.238 134.573 278.895 145.33 294.77 140.171C283.972 153.136 290.549 165.796 261.367 177.883M248.258 156.553C259.248 145.563 259.248 145.563 275.285 153.288M248.258 156.553C259.248 145.563 259.248 145.563 251.576 129.178M261.367 177.883C290.549 165.796 290.549 165.796 307.76 131.426M261.367 177.883C290.549 165.796 290.549 165.796 326.916 177.447M261.367 177.883C259.922 174.023 258.088 170.143 255.8 166.405M261.367 177.883C275.958 171.839 275.958 171.839 288.06 185.193M261.367 177.883C275.958 171.839 275.958 171.839 275.285 153.288M264.746 189.841L249.256 192.929M264.746 189.841C263.879 186.007 263.301 183.813 268.885 182.7C274.713 181.538 276.403 187.517 288.06 185.193M264.746 189.841C265.356 193.714 265.628 195.984 271.183 194.876C277.012 193.714 276.403 187.517 288.06 185.193M255.8 166.405L242.594 175.295M255.8 166.405C257.947 170.198 258.839 171.972 263.455 168.865C268.326 165.585 265.543 159.846 275.285 153.288M255.8 166.405C253.324 162.673 252.303 161.294 256.9 158.2C261.771 154.92 265.543 159.846 275.285 153.288M238.599 148.526L229.636 161.889M238.599 148.526C234.571 146.139 233.095 145.378 236.129 140.854C239.374 136.017 245.088 138.852 251.576 129.178M238.599 148.526C242.364 151.212 243.633 152.234 246.673 147.703C249.917 142.865 245.088 138.852 251.576 129.178M214.929 139.761L211.842 155.37M214.929 139.761C211.144 139.316 208.797 139.069 209.898 133.501C211.046 127.697 217.224 128.154 219.52 116.547M214.929 139.761C218.934 140.527 221.11 141.004 222.197 135.505C223.345 129.701 217.224 128.154 219.52 116.547M234.269 202.236C234.308 200.421 234.035 198.245 233.637 195.968C233.455 194.925 233.203 193.88 232.891 192.817M234.269 202.236C249.256 202.236 249.256 202.235 249.256 192.929M234.269 202.236C234.269 201.267 234.217 200.21 234.101 199.088M202.575 170.542C202.575 155.371 202.575 155.371 211.842 155.37M265.964 202.236C265.964 208.911 264.699 217.694 261.369 226.588M265.964 202.236L265.966 202.236M265.964 202.236C280.464 202.236 288.33 202.236 295.399 204.609C303.782 207.424 311.044 213.576 326.918 227.025M265.964 202.236C297.659 202.236 296.289 216.179 311.375 223.926C294.512 225.289 290.547 238.674 261.369 226.588M265.964 202.236C281.813 202.236 281.812 202.236 288.061 219.278M211.842 155.37C220.682 158.609 220.362 159.511 215.026 172.601M229.636 161.889C236.115 168.592 235.937 168.717 225.295 179.26M229.636 161.889C220.917 158.695 220.365 159.512 215.026 172.601M215.026 172.601C214.918 172.868 215.14 172.323 215.026 172.601ZM215.026 172.601C216.033 172.96 216.98 173.376 217.88 173.83M242.594 175.295C236.115 168.592 235.937 168.717 225.295 179.26M242.594 175.295C245.925 184.112 245.733 184.174 231.865 189.765M225.295 179.26C226.053 180.035 226.741 180.833 227.373 181.655M225.295 179.26C224.587 178.537 223.849 177.841 223.057 177.181M249.256 192.929C245.925 184.112 245.733 184.174 231.865 189.765M231.865 189.765C232.254 190.806 232.599 191.819 232.891 192.817M231.865 189.765C231.512 188.818 231.102 187.875 230.639 186.94M219.52 116.547C228.074 123.992 231.261 126.766 230.971 131.367M219.52 116.547C208.766 120.642 204.793 122.147 203.325 126.748M218.42 202.236C218.42 201.693 218.4 201.167 218.361 200.658C218.319 200.116 218.256 199.593 218.172 199.088M218.42 202.236C226.344 202.236 234.269 202.236 234.101 199.088M213.851 190.832C214.601 191.528 215.295 192.323 215.903 193.226M213.851 190.832C213.094 190.129 212.28 189.525 211.438 189.011M213.851 190.832C219.573 185.046 225.295 179.26 227.373 181.655M213.851 190.832C219.573 185.046 225.295 179.26 223.057 177.181M208.698 187.659C209.619 188.018 210.544 188.465 211.438 189.011M208.698 187.659C207.654 187.251 206.616 186.955 205.634 186.752M208.698 187.659C211.862 180.13 215.027 172.601 217.88 173.83M208.698 187.659C211.862 180.13 215.026 172.601 211.934 171.643M217.326 195.955C217.697 196.909 217.985 197.951 218.172 199.088M217.326 195.955C216.936 194.951 216.454 194.044 215.903 193.226M217.326 195.955C224.596 192.86 231.865 189.765 232.891 192.817M217.326 195.955C224.596 192.86 231.865 189.765 230.639 186.94M218.172 199.088C225.905 197.528 233.637 195.968 234.101 199.088M218.172 199.088C225.905 197.528 233.637 195.968 232.891 192.817M215.903 193.226C222.532 188.746 229.161 184.265 230.639 186.94M215.903 193.226C222.532 188.746 229.161 184.265 227.373 181.655M211.438 189.011C216.009 182.192 220.581 175.373 223.057 177.181M211.438 189.011C216.009 182.192 220.581 175.373 217.88 173.83M205.634 186.752C207.193 178.875 208.751 170.998 211.934 171.643M205.634 186.752C207.193 178.875 208.751 170.998 205.67 170.652M234.101 199.088C233.261 190.948 229.101 179.417 217.88 173.83M230.639 186.94C230.193 186.039 229.699 185.146 229.161 184.265C228.613 183.368 228.022 182.498 227.373 181.655M223.057 177.181C222.291 176.542 221.473 175.937 220.581 175.373C219.723 174.83 218.827 174.309 217.88 173.83M217.88 173.83C216.084 172.936 214.107 172.195 211.934 171.643M211.934 171.643C210.917 171.385 209.856 171.169 208.751 170.998C207.76 170.845 206.733 170.728 205.67 170.652M285.416 2.2388C268.259 43.6595 315.191 46.9289 292.219 69.9013M285.416 2.2388C268.259 43.6595 232.735 12.9816 232.735 45.2473M402.572 119.394C361.151 136.551 357.476 89.9802 334.864 112.592M402.572 119.394C361.151 136.551 391.76 172.242 359.398 172.242M292.219 69.9013C283.293 68.2116 272.824 69.222 261.751 76.3642M292.219 69.9013C292.231 69.9037 292.244 69.9061 292.257 69.9085M292.219 69.9013L292.257 69.9085M334.864 112.592C336.559 121.536 335.555 132.028 328.408 143.107M249.548 70.5434C246.66 58.1296 240.087 50.2495 232.735 45.2473M359.398 172.242C354.388 164.862 346.545 158.238 334.267 155.305M112.926 291.879C118.857 297.811 125.23 303.031 131.939 307.541M112.926 291.879C107.047 286.001 101.867 279.688 97.3843 273.045M112.926 291.879C99.17 305.635 85.4139 319.391 112.926 334.57M112.926 291.879C99.17 305.635 112.926 334.57 143.394 328.107M112.926 291.879C99.17 305.635 85.414 319.391 70.2807 291.879M112.926 291.879C99.17 305.635 70.2808 291.879 76.7365 261.365M202.576 329.011C194.336 329.011 186.088 328.212 177.974 326.615M202.576 329.011C202.576 348.465 202.57 367.919 172.41 359.224M202.576 329.011C202.576 348.465 172.41 359.224 155.597 333.928M202.576 329.011C210.817 329.011 219.057 328.212 227.172 326.615M202.576 329.011C202.576 348.465 202.576 367.918 232.736 359.224M202.576 329.011C202.576 348.465 232.736 359.224 249.549 333.928M85.414 250.763C88.6085 258.484 92.5986 265.953 97.3843 273.045M85.414 250.763C82.2266 243.059 79.8313 235.105 78.2281 227.025M85.414 250.763C81.8418 254.335 78.9851 257.879 76.7365 261.365M85.414 250.763C79.9834 250.763 75.1605 250.189 70.8773 249.166M154.042 319.391C161.807 322.604 169.827 325.012 177.974 326.615M154.042 319.391C146.386 316.224 138.978 312.274 131.939 307.541M154.042 319.391C150.452 322.981 146.893 325.85 143.394 328.107M154.042 319.391C154.042 324.822 154.6 329.645 155.597 333.928M85.414 319.391C61.1503 343.655 109.678 367.919 119.728 402.233M85.414 319.391C61.8653 342.94 36.8869 295.128 2.57277 285.078M85.414 319.391C83.9374 317.915 73.175 307.152 70.2807 291.879M85.414 319.391C86.9864 320.964 97.6949 331.672 112.888 334.563M202.57 367.919C202.57 402.233 151.098 385.076 119.728 402.233M202.57 367.919C200.665 367.919 189.466 367.919 178.306 362.597C176.322 361.651 174.339 360.537 172.41 359.224M202.57 367.919C202.57 402.233 254.048 385.076 285.418 402.233M202.57 367.919C204.474 367.919 215.68 367.918 226.84 362.597C228.824 361.651 230.807 360.536 232.736 359.224M202.573 265.624C198.174 265.624 194.099 265.217 190.215 264.711M202.573 265.624C202.573 297.313 202.57 297.317 177.985 326.602M202.573 265.624C202.571 297.318 188.714 296.077 181.034 311.139C179.573 294.373 166.008 290.503 177.974 261.615M202.573 265.624C202.572 281.471 202.572 281.471 185.625 287.925M202.573 265.624C206.972 265.624 211.047 265.217 214.931 264.711M202.573 265.624C202.573 297.313 202.576 297.317 227.161 326.602M202.573 265.624C202.575 297.318 216.432 296.077 224.112 311.139C225.573 294.373 239.138 290.503 227.172 261.615M202.573 265.624C202.574 281.471 202.574 281.471 219.521 287.925M139.182 202.236C139.182 208.911 140.447 217.695 143.777 226.588M139.182 202.236C107.487 202.236 108.857 216.18 93.7707 223.926C110.634 225.29 114.599 238.674 143.777 226.588M139.182 202.236C139.005 202.236 138.83 202.235 138.655 202.236M177.974 261.615C166.008 290.503 166.008 290.503 177.974 326.615M177.974 261.615C166.008 290.503 166.008 290.503 131.939 307.541M177.974 261.615C173.548 260.008 169.955 258.162 166.545 255.945M177.974 261.615C182.669 263.319 186.986 264.148 190.215 264.711M177.974 261.615C166.008 290.503 153.434 283.933 140.59 294.642C145.658 278.782 134.906 269.899 156.887 247.918M177.974 261.615C171.991 276.059 171.991 276.059 153.568 275.294M177.974 261.615C171.991 276.059 171.991 276.059 185.625 287.925M177.974 326.615L177.985 326.602M177.974 326.615C177.978 326.611 177.981 326.607 177.985 326.602M156.887 247.918C134.906 269.899 134.906 269.899 131.939 307.541M156.887 247.918C134.906 269.899 134.906 269.899 97.3843 273.045M156.887 247.918C153.952 244.841 151.455 241.515 149.344 238.067M156.887 247.918C159.692 250.859 162.896 253.572 166.545 255.945M156.887 247.918C134.906 269.899 126.25 259.142 110.374 264.301C121.172 251.336 114.595 238.676 143.777 226.588M156.887 247.918C145.897 258.909 145.897 258.909 129.859 251.184M156.887 247.918C145.897 258.909 145.897 258.909 153.568 275.294M143.777 226.588C114.596 238.676 114.596 238.676 97.3843 273.045M143.777 226.588C114.596 238.676 114.596 238.676 78.2281 227.025M143.777 226.588C145.222 230.448 147.056 234.329 149.344 238.067M143.777 226.588C129.186 232.632 129.186 232.632 117.085 219.278M143.777 226.588C129.186 232.632 129.186 232.632 129.859 251.184M78.2281 227.025C94.102 213.576 101.364 207.424 109.747 204.609C116.73 202.265 124.491 202.236 138.655 202.236M140.399 214.63L155.888 211.542M140.399 214.63C141.266 218.465 141.843 220.658 136.259 221.771C130.431 222.933 128.742 216.954 117.085 219.278M140.399 214.63C139.789 210.757 139.517 208.487 133.961 209.595C128.132 210.757 128.742 216.954 117.085 219.278M149.344 238.067L162.55 229.176M149.344 238.067C147.198 234.273 146.305 232.499 141.689 235.607C136.818 238.886 139.602 244.625 129.859 251.184M149.344 238.067C151.82 241.799 152.841 243.177 148.244 246.272C143.373 249.551 139.602 244.625 129.859 251.184M166.545 255.945L175.508 242.583M166.545 255.945C170.573 258.333 172.049 259.094 169.015 263.617C165.771 268.454 160.057 265.619 153.568 275.294M166.545 255.945C162.78 253.259 161.511 252.238 158.472 256.769C155.227 261.606 160.057 265.619 153.568 275.294M190.215 264.711L193.302 249.101M190.215 264.711C194 265.156 196.348 265.402 195.246 270.971C194.099 276.775 187.92 276.318 185.625 287.925M190.215 264.711C186.21 263.944 184.034 263.468 182.947 268.966C181.799 274.77 187.92 276.318 185.625 287.925M170.876 202.236C170.836 204.05 171.109 206.226 171.507 208.504C171.689 209.547 171.942 210.592 172.253 211.654M170.876 202.236C155.888 202.236 155.888 202.236 155.888 211.542M170.876 202.236C170.875 203.204 170.928 204.262 171.043 205.383M202.569 233.93C202.569 249.101 202.569 249.101 193.302 249.101M193.302 249.101C184.462 245.863 184.782 244.96 190.118 231.871M175.508 242.583C169.029 235.879 169.208 235.755 179.849 225.211M175.508 242.583C184.227 245.777 184.78 244.96 190.118 231.871M190.118 231.871C190.227 231.604 190.005 232.148 190.118 231.871ZM190.118 231.871C189.111 231.511 188.164 231.096 187.265 230.641M162.55 229.176C169.029 235.879 169.208 235.755 179.849 225.211M162.55 229.176C159.219 220.359 159.411 220.297 173.279 214.706M179.849 225.211C179.091 224.436 178.403 223.639 177.771 222.817M179.849 225.211C180.557 225.935 181.295 226.631 182.087 227.291M155.888 211.542C159.219 220.359 159.411 220.297 173.279 214.706M173.279 214.706C172.891 213.666 172.546 212.652 172.253 211.654M173.279 214.706C173.632 215.653 174.043 216.596 174.505 217.532M202.573 202.236L186.724 202.236M202.573 202.236L202.573 218.083M202.573 202.236L218.422 202.236M117.085 219.278C123.264 202.427 123.333 202.238 138.655 202.236M186.724 202.236C186.724 202.779 186.745 203.305 186.784 203.814C186.826 204.356 186.889 204.879 186.972 205.383M186.724 202.236C178.8 202.236 170.876 202.236 171.043 205.383M202.573 218.083C201.678 218.063 200.631 217.952 199.51 217.719M202.573 218.083C202.573 226.006 202.573 233.93 199.474 233.82M202.573 218.083C203.468 218.063 204.515 217.952 205.636 217.719M202.573 218.083C202.573 226.006 202.573 233.93 205.671 233.82M191.294 213.64C190.544 212.943 189.85 212.149 189.241 211.246M191.294 213.64C192.051 214.343 192.865 214.946 193.707 215.461M191.294 213.64C185.571 219.426 179.849 225.211 177.771 222.817M191.294 213.64C185.571 219.426 179.849 225.211 182.087 227.291M196.446 216.813C195.526 216.453 194.6 216.007 193.707 215.461M196.446 216.813C197.49 217.22 198.529 217.516 199.51 217.719M196.446 216.813C193.282 224.342 190.118 231.871 187.265 230.641M196.446 216.813C193.282 224.342 190.118 231.871 193.21 232.828M187.818 208.517C187.448 207.562 187.159 206.52 186.972 205.383M187.818 208.517C188.209 209.521 188.69 210.428 189.241 211.246M187.818 208.517C180.549 211.612 173.279 214.706 172.253 211.654M187.818 208.517C180.549 211.612 173.279 214.706 174.505 217.532M186.972 205.383C179.24 206.943 171.507 208.504 171.043 205.383M186.972 205.383C179.24 206.943 171.507 208.504 172.253 211.654M189.241 211.246C182.612 215.726 175.983 220.206 174.505 217.532M189.241 211.246C182.612 215.726 175.983 220.206 177.771 222.817M193.707 215.461C189.135 222.28 184.563 229.099 182.087 227.291M193.707 215.461C189.135 222.28 184.563 229.099 187.265 230.641M199.51 217.719C197.952 225.597 196.393 233.474 193.21 232.828M199.51 217.719C197.952 225.597 196.393 233.474 199.474 233.82M171.043 205.383C171.883 213.523 176.043 225.054 187.265 230.641M174.505 217.532C174.951 218.432 175.445 219.325 175.983 220.206C176.532 221.104 177.122 221.973 177.771 222.817M182.087 227.291C182.854 227.929 183.671 228.534 184.563 229.099C185.422 229.642 186.317 230.163 187.265 230.641M187.265 230.641C189.06 231.535 191.037 232.277 193.21 232.828M193.21 232.828C194.228 233.086 195.288 233.303 196.393 233.474C197.384 233.627 198.411 233.743 199.474 233.82M199.474 233.82C200.474 233.892 201.507 233.93 202.573 233.93C203.639 233.93 204.672 233.892 205.671 233.82M119.728 402.233C136.885 360.812 89.9535 357.542 112.926 334.57M119.728 402.233C136.885 360.812 172.41 391.49 172.41 359.224M2.57277 285.078C43.9934 267.921 47.6688 314.491 70.2807 291.879M2.57277 285.078C43.9934 267.921 13.3845 232.23 45.747 232.23M112.926 334.57C121.851 336.26 132.321 335.249 143.394 328.107M112.926 334.57C112.913 334.568 112.901 334.565 112.888 334.563M112.926 334.57L112.888 334.563M70.2807 291.879C68.5858 282.935 69.5893 272.444 76.7365 261.365M155.597 333.928C158.485 346.342 165.057 354.222 172.41 359.224M45.747 232.23C50.7569 239.609 58.5998 246.233 70.8773 249.166M292.22 291.879C286.289 297.81 279.916 303.031 273.207 307.541M292.22 291.879C298.099 286.001 303.279 279.688 307.762 273.045M292.22 291.879C305.976 305.635 319.732 319.391 292.22 334.57M292.22 291.879C305.976 305.635 292.22 334.57 261.752 328.107M292.22 291.879C305.976 305.635 319.732 319.391 334.865 291.879M292.22 291.879C305.976 305.635 334.865 291.879 328.409 261.365M319.732 250.763C316.537 258.484 312.547 265.953 307.762 273.045M319.732 250.763C322.919 243.059 325.315 235.105 326.918 227.025M319.732 250.763C323.304 254.335 326.161 257.879 328.409 261.365M319.732 250.763C325.163 250.763 329.985 250.189 334.269 249.166M251.104 319.391C243.339 322.604 235.319 325.012 227.172 326.615M251.104 319.391C258.76 316.223 266.168 312.274 273.207 307.541M251.104 319.391C254.694 322.981 258.253 325.85 261.752 328.107M251.104 319.391C251.104 324.822 250.546 329.645 249.549 333.928M319.732 319.391C343.996 343.655 295.468 367.919 285.418 402.233M319.732 319.391C343.281 342.94 368.259 295.128 402.573 285.077M319.732 319.391C321.208 317.915 331.971 307.152 334.865 291.879M319.732 319.391C318.16 320.964 307.451 331.672 292.258 334.563M227.172 261.615C239.138 290.503 239.138 290.503 227.172 326.615M227.172 261.615C239.138 290.503 239.138 290.503 273.207 307.541M227.172 261.615C231.598 260.008 235.191 258.162 238.6 255.945M227.172 261.615C222.477 263.319 218.159 264.148 214.931 264.711M227.172 261.615C239.138 290.503 251.712 283.933 264.556 294.642C259.488 278.782 270.24 269.899 248.259 247.918M227.172 261.615C233.155 276.059 233.155 276.059 251.578 275.294M227.172 261.615C233.155 276.059 233.155 276.059 219.521 287.925M227.172 326.615L227.161 326.602M227.172 326.615C227.168 326.611 227.165 326.607 227.161 326.602M248.259 247.918C270.239 269.899 270.239 269.899 273.207 307.541M248.259 247.918C270.239 269.899 270.239 269.899 307.762 273.045M248.259 247.918C251.194 244.841 253.691 241.514 255.802 238.066M248.259 247.918C245.454 250.859 242.25 253.572 238.6 255.945M248.259 247.918C270.24 269.899 278.896 259.142 294.772 264.301C283.974 251.336 290.55 238.676 261.369 226.588M248.259 247.918C259.249 258.909 259.249 258.909 275.287 251.184M248.259 247.918C259.249 258.909 259.249 258.909 251.578 275.294M261.369 226.588C290.55 238.676 290.55 238.676 307.762 273.045M261.369 226.588C290.55 238.676 290.55 238.676 326.918 227.025M261.369 226.588C259.924 230.448 258.09 234.329 255.802 238.066M261.369 226.588C275.96 232.632 275.96 232.632 288.061 219.278M261.369 226.588C275.96 232.632 275.96 232.632 275.287 251.184M264.747 214.63L249.257 211.542M264.747 214.63C263.88 218.465 263.303 220.658 268.887 221.771C274.715 222.933 276.404 216.954 288.061 219.278M264.747 214.63C265.357 210.757 265.629 208.487 271.185 209.595C277.013 210.757 276.404 216.954 288.061 219.278M255.802 238.066L242.595 229.176M255.802 238.066C257.948 234.273 258.841 232.499 263.457 235.607C268.328 238.886 265.544 244.625 275.287 251.184M255.802 238.066C253.325 241.799 252.305 243.177 256.902 246.272C261.773 249.551 265.544 244.625 275.287 251.184M238.6 255.945L229.638 242.582M238.6 255.945C234.573 258.333 233.097 259.094 236.131 263.617C239.375 268.454 245.089 265.619 251.578 275.294M238.6 255.945C242.366 253.259 243.635 252.237 246.674 256.769C249.919 261.606 245.089 265.619 251.578 275.294M214.931 264.711L211.844 249.101M214.931 264.711C211.146 265.156 208.798 265.402 209.899 270.971C211.047 276.774 217.226 276.318 219.521 287.925M214.931 264.711C218.936 263.944 221.112 263.468 222.199 268.966C223.347 274.77 217.226 276.318 219.521 287.925M234.27 202.236C234.31 204.05 234.037 206.226 233.639 208.503C233.456 209.547 233.204 210.592 232.893 211.654M234.27 202.236C249.257 202.236 249.257 202.236 249.257 211.542M234.27 202.236C234.271 203.204 234.218 204.262 234.102 205.383M202.576 233.929C202.576 249.101 202.576 249.101 211.844 249.101M211.844 249.101C220.684 245.863 220.364 244.96 215.028 231.871M229.638 242.582C236.117 235.879 235.938 235.754 225.297 225.211M229.638 242.582C220.919 245.777 220.366 244.959 215.028 231.871M215.028 231.871C214.919 231.604 215.141 232.148 215.028 231.871ZM215.028 231.871C216.035 231.511 216.982 231.096 217.881 230.641M242.595 229.176C236.117 235.879 235.938 235.754 225.297 225.211M242.595 229.176C245.926 220.359 245.734 220.297 231.867 214.706M225.297 225.211C226.055 224.436 226.743 223.639 227.375 222.817M225.297 225.211C224.588 225.935 223.851 226.631 223.059 227.291M249.257 211.542C245.926 220.359 245.734 220.297 231.867 214.706M231.867 214.706C232.255 213.665 232.6 212.652 232.893 211.654M231.867 214.706C231.514 215.653 231.103 216.596 230.64 217.531M218.422 202.236C218.422 202.779 218.401 203.305 218.362 203.814C218.32 204.356 218.257 204.879 218.174 205.383M218.422 202.236C226.346 202.236 234.27 202.236 234.102 205.383M213.852 213.64C214.602 212.943 215.296 212.149 215.905 211.246M213.852 213.64C213.095 214.343 212.281 214.946 211.439 215.461M213.852 213.64C219.574 219.425 225.297 225.211 227.375 222.817M213.852 213.64C219.574 219.425 225.297 225.211 223.059 227.291M208.699 216.813C209.62 216.453 210.545 216.007 211.439 215.461M208.699 216.813C207.656 217.22 206.617 217.516 205.636 217.719M208.699 216.813C211.864 224.342 215.028 231.871 217.881 230.641M208.699 216.813C211.864 224.342 215.028 231.871 211.936 232.828M217.327 208.517C217.698 207.562 217.987 206.52 218.174 205.383M217.327 208.517C216.937 209.521 216.456 210.428 215.905 211.246M217.327 208.517C224.597 211.612 231.867 214.706 232.893 211.654M217.327 208.517C224.597 211.612 231.867 214.706 230.64 217.531M218.174 205.383C225.906 206.943 233.639 208.503 234.102 205.383M218.174 205.383C225.906 206.943 233.639 208.503 232.893 211.654M215.905 211.246C222.534 215.726 229.163 220.206 230.64 217.531M215.905 211.246C222.534 215.726 229.163 220.206 227.375 222.817M211.439 215.461C216.011 222.279 220.583 229.098 223.059 227.291M211.439 215.461C216.011 222.279 220.583 229.098 217.881 230.641M205.636 217.719C207.194 225.596 208.752 233.474 211.936 232.828M205.636 217.719C207.194 225.596 208.752 233.474 205.671 233.82M234.102 205.383C233.263 213.523 229.103 225.054 217.881 230.641M230.64 217.531C230.195 218.432 229.701 219.325 229.163 220.206C228.614 221.104 228.024 221.973 227.375 222.817M223.059 227.291C222.292 227.929 221.475 228.534 220.583 229.098C219.724 229.641 218.829 230.163 217.881 230.641M217.881 230.641C216.085 231.535 214.109 232.277 211.936 232.828M211.936 232.828C210.918 233.086 209.858 233.303 208.752 233.473C207.762 233.627 206.735 233.743 205.671 233.82M285.418 402.233C268.261 360.812 315.192 357.542 292.22 334.57M285.418 402.233C268.261 360.812 232.736 391.49 232.736 359.224M402.573 285.077C361.153 267.92 357.477 314.491 334.865 291.879M402.573 285.077C361.153 267.92 391.761 232.23 359.399 232.23M292.22 334.57C283.295 336.26 272.825 335.249 261.752 328.107M292.22 334.57C292.233 334.568 292.245 334.565 292.258 334.563M292.22 334.57L292.258 334.563M334.865 291.879C336.56 282.935 335.557 272.444 328.409 261.365M249.549 333.928C246.661 346.342 240.089 354.222 232.736 359.224M359.399 232.23C354.389 239.609 346.546 246.233 334.269 249.166M203.325 126.748C206.481 107.178 217.573 106.154 224.11 93.3323C225.351 107.571 235.321 112.508 230.971 131.367" stroke="white" stroke-width="3"/>
</svg>
