<svg width="216" height="366" viewBox="0 0 216 366" fill="none" xmlns="http://www.w3.org/2000/svg">
<path d="M108.037 7.97203C114.925 7.97478 130.802 7.97203 141.024 7.97203C145.637 7.51855 150.336 8.95595 153.468 12.4026C176.751 38.0227 212.627 89.4602 207.557 132.396C207.314 134.455 206.976 136.494 206.539 138.511C204.366 148.131 198.928 164.3 191.584 183.678C184.33 202.819 175.217 225.091 165.554 247.278C156.829 267.311 147.655 287.273 138.997 304.798C126.728 329.631 115.494 349.569 108.037 357.875C100.461 349.455 89.1652 329.629 76.8808 304.996C68.1577 287.503 58.9358 267.587 50.1929 247.609C40.4757 225.404 31.3501 203.124 24.1583 184.012C16.7296 164.271 11.3643 147.91 9.54133 138.504C9.10426 136.488 8.76726 134.448 8.52441 132.388C3.46119 89.4516 39.327 38.0127 62.6034 12.3909C65.7354 8.9434 70.4363 7.50337 75.0498 7.95563C86.7932 7.87476 101.05 7.96923 108.037 7.97203Z" fill="#E4692E"/>
<path d="M108.037 7.97203C114.925 7.97478 130.802 7.97203 141.024 7.97203C145.637 7.51855 150.336 8.95595 153.468 12.4026C176.751 38.0227 212.627 89.4602 207.557 132.396M108.037 7.97203C101.05 7.96923 86.7932 7.87476 75.0498 7.95563C70.4363 7.50337 65.7354 8.9434 62.6034 12.3909C39.327 38.0127 3.46119 89.4516 8.52441 132.388M108.037 7.97203V31.9871M108.037 357.875L108.037 273.561M108.037 357.875C115.494 349.569 126.728 329.631 138.997 304.798M108.037 357.875C100.461 349.455 89.1652 329.629 76.8808 304.996M108.037 189.248V99.3846M108.037 189.248L108.037 273.561M108.037 189.248L165.554 247.278M108.037 189.248L50.1929 247.609M108.037 99.3846L191.584 183.678M108.037 99.3846L24.1583 184.012M108.037 99.3846L108.037 31.9871M108.037 273.561L138.997 304.798M108.037 273.561L76.8808 304.996M191.584 183.678C198.928 164.3 204.366 148.131 206.539 138.511C206.976 136.494 207.314 134.455 207.557 132.396M191.584 183.678C184.33 202.819 175.217 225.091 165.554 247.278M24.1583 184.012C16.7296 164.271 11.3643 147.91 9.54133 138.504C9.10426 136.488 8.76726 134.448 8.52441 132.388M24.1583 184.012C31.3501 203.124 40.4757 225.404 50.1929 247.609M165.554 247.278C156.829 267.311 147.655 287.273 138.997 304.798M50.1929 247.609C58.9358 267.587 68.1577 287.503 76.8808 304.996M108.037 31.9871L207.557 132.396M108.037 31.9871L8.52441 132.388" stroke="white" stroke-width="15" stroke-linejoin="round"/>
</svg>
