<svg width="44" height="74" viewBox="0 0 44 74" fill="none" xmlns="http://www.w3.org/2000/svg">
<path d="M21.9992 2.01945C23.3768 2.02 26.5521 2.01945 28.5966 2.01945C29.5191 1.92876 30.459 2.21624 31.0854 2.90557C35.7419 8.02958 42.9171 18.3171 41.9031 26.9042C41.8545 27.316 41.787 27.7239 41.6996 28.1272C41.2649 30.0512 40.1774 33.285 38.7086 37.1606C37.2578 40.9888 35.4352 45.4433 33.5025 49.8807C31.7575 53.8872 29.9228 57.8797 28.1912 61.3847C25.7374 66.3512 23.4906 70.3388 21.9991 72C20.4839 70.3161 18.2248 66.3509 15.7679 61.4242C14.0233 57.9257 12.1789 53.9424 10.4304 49.9468C8.48691 45.5059 6.66179 41.0499 5.22343 37.2275C3.7377 33.2793 2.66462 30.007 2.30004 28.1259C2.21262 27.7226 2.14522 27.3146 2.09665 26.9027C1.08401 18.3154 8.25717 8.02758 12.9125 2.90323C13.5388 2.21373 14.479 1.92572 15.4017 2.01617C17.7504 2 20.6017 2.0189 21.9992 2.01945Z" fill="#E4692E"/>
<path d="M21.9992 2.01945C23.3768 2.02 26.5521 2.01945 28.5966 2.01945C29.5191 1.92876 30.459 2.21624 31.0854 2.90557C35.7419 8.02958 42.9171 18.3171 41.9031 26.9042M21.9992 2.01945C20.6017 2.0189 17.7504 2 15.4017 2.01617C14.479 1.92572 13.5388 2.21373 12.9125 2.90323C8.25717 8.02758 1.08401 18.3154 2.09665 26.9027M21.9992 2.01945V6.82246M21.9991 72L21.9991 55.1373M21.9991 72C23.4906 70.3388 25.7374 66.3512 28.1912 61.3847M21.9991 72C20.4839 70.3161 18.2248 66.3509 15.7679 61.4242M21.9992 38.2746V20.302M21.9992 38.2746L21.9991 55.1373M21.9992 38.2746L33.5025 49.8807M21.9992 38.2746L10.4304 49.9468M21.9992 20.302L38.7086 37.1606M21.9992 20.302L5.22343 37.2275M21.9992 20.302L21.9992 6.82246M21.9991 55.1373L28.1912 61.3847M21.9991 55.1373L15.7679 61.4242M38.7086 37.1606C40.1774 33.285 41.2649 30.0512 41.6996 28.1272C41.787 27.7239 41.8545 27.316 41.9031 26.9042M38.7086 37.1606C37.2578 40.9888 35.4352 45.4433 33.5025 49.8807M5.22343 37.2275C3.7377 33.2793 2.66462 30.007 2.30004 28.1259C2.21262 27.7226 2.14522 27.3146 2.09665 26.9027M5.22343 37.2275C6.66179 41.0499 8.48691 45.5059 10.4304 49.9468M33.5025 49.8807C31.7575 53.8872 29.9228 57.8797 28.1912 61.3847M10.4304 49.9468C12.1789 53.9424 14.0233 57.9257 15.7679 61.4242M21.9992 6.82246L41.9031 26.9042M21.9992 6.82246L2.09665 26.9027" stroke="white" stroke-width="3" stroke-linejoin="round"/>
</svg>
