<svg width="73" height="73" viewBox="0 0 73 73" fill="none" xmlns="http://www.w3.org/2000/svg">
<path d="M1.74561 36.2207C1.74561 30.6694 2.66279 25.9435 4.2244 21.934C5.97502 17.4392 8.53548 13.8446 11.5215 10.9966C14.8642 7.80846 18.7402 5.55585 22.6105 4.02314C27.7542 1.98611 32.8878 1.2207 36.7456 1.2207M1.74561 36.2207C1.74561 40.0786 2.51102 45.2121 4.54805 50.3558C5.55709 52.9037 6.87814 55.4542 8.57274 57.8533C9.4522 59.0984 10.4323 60.3027 11.5215 61.4448C11.869 61.8091 12.2275 62.167 12.5974 62.5179C13.8128 63.6707 15.151 64.7477 16.6221 65.724C17.8666 66.55 19.2062 67.3039 20.6468 67.9709C21.2339 68.2427 21.8378 68.5 22.4589 68.7419C23.1735 69.0202 23.9108 69.2781 24.6715 69.5139C25.9465 69.9092 27.2871 70.2426 28.6962 70.5069C29.9801 70.7477 31.321 70.9312 32.7209 71.0518C34.0117 71.163 35.3526 71.2207 36.7456 71.2207M1.74561 36.2207L10.4956 44.9707L19.2456 53.7207L27.9956 62.4707L36.7456 71.2207M1.74561 36.2207L10.4956 27.4707L19.2456 18.7207L27.9956 9.9707L36.7456 1.2207M1.74561 36.2207H19.2456M36.7456 1.2207C42.2564 1.2207 46.9547 2.14231 50.9467 3.71079C52.1049 4.16586 53.2037 4.67539 54.2456 5.23266C57.2455 6.83717 59.774 8.83745 61.8929 11.0734C64.1207 13.4241 65.8959 16.0352 67.2903 18.7207C67.8871 19.87 68.4141 21.033 68.8771 22.1949C70.9119 27.302 71.7085 32.3902 71.7456 36.2207M36.7456 1.2207L45.4956 9.9707L54.2456 18.7207L62.9956 27.4707L71.7456 36.2207M36.7456 1.2207V18.7207M71.7456 36.2207C71.7456 41.7601 70.8094 46.4789 69.2182 50.4847C68.1377 53.2046 66.7554 55.5958 65.1591 57.692C64.1425 59.0271 63.0391 60.2424 61.8717 61.3468C61.6175 61.5874 61.3601 61.8227 61.1 62.0528C59.8066 63.1971 58.444 64.2134 57.041 65.1129C55.7158 65.9624 54.3547 66.7077 52.9819 67.358C52.2651 67.6976 51.5451 68.0112 50.8255 68.3004C50.1902 68.5556 49.5552 68.7917 48.9228 69.0095C47.5494 69.4827 46.1882 69.8699 44.8637 70.1805C43.4598 70.5098 42.097 70.753 40.8047 70.9213C39.3485 71.1109 37.9816 71.2054 36.7456 71.2207M71.7456 36.2207L62.9956 44.9707L54.2456 53.7207L45.4956 62.4707L36.7456 71.2207M71.7456 36.2207L54.2456 36.2207M36.7456 71.2207L36.7456 53.7207M19.2456 36.2207L23.6206 31.8457L27.9956 27.4707L32.3706 23.0957L36.7456 18.7207M19.2456 36.2207L23.6206 40.5957L27.9956 44.9707L32.3706 49.3457L36.7456 53.7207M36.7456 18.7207L41.1206 23.0957L45.4956 27.4707L49.8706 31.8457L54.2456 36.2207M54.2456 36.2207L49.8706 40.5957L45.4956 44.9707L41.1206 49.3457L36.7456 53.7207M45.4956 18.7207L49.8706 23.0957L54.2456 27.4707M19.2456 27.4707L23.6206 23.0957L27.9956 18.7207M19.2456 44.9707L23.6206 49.3457L27.9956 53.7207M45.4956 53.7207L49.8706 49.3457L54.2456 44.9707" stroke="white" stroke-width="2" stroke-linecap="round"/>
</svg>
