<svg width="134" height="134" viewBox="0 0 134 134" fill="none" xmlns="http://www.w3.org/2000/svg">
<path d="M2 100.819C15.9521 98.3407 36.4864 92.6427 50.5726 83.8371C50.5324 81.6893 50.5733 79.7009 50.7121 77.9293C48.6774 75.3121 45.7999 73.1145 40.6907 72.4851C39.4095 72.3272 37.9881 72.268 36.4044 72.3254C36.421 72.1263 36.4346 71.9262 36.4456 71.7252C36.7274 66.5363 35.1671 60.7645 34.1698 55.801C23.6844 65.8568 8.65006 89.4726 2 100.819Z" fill="white"/>
<path d="M82.1652 90.9495L70.8724 87.8287C69.729 88.3402 68.3815 88.7594 66.8205 89.0695C66.2014 89.1925 65.5488 89.2983 64.8619 89.386C64.2482 89.4643 63.6723 89.5062 63.1306 89.5147C55.4316 89.6351 54.651 82.9959 50.7121 77.9293C50.5733 79.7009 50.5324 81.6893 50.5726 83.8371C50.849 98.5913 54.9532 120.865 57.4169 132C66.0459 121.949 77.2859 105.832 82.1652 90.9495Z" fill="white"/>
<path d="M63.2714 58.8009C55.8918 58.362 54.5324 53.4838 51.8182 42.5463L51.7381 42.2235C51.4938 41.2396 51.3194 40.3231 51.2098 39.4636C51.0545 40.1956 48.7148 42.3167 38.3033 43.6114C37.042 43.7682 36.0731 44.1326 35.3424 44.6733C32.7304 46.6063 33.1634 50.7921 34.1698 55.801C35.1671 60.7645 36.7274 66.5363 36.4456 71.7252C36.4346 71.9262 36.421 72.1263 36.4044 72.3254C37.9881 72.268 39.4095 72.3272 40.6907 72.4851C45.7999 73.1145 48.6774 75.3121 50.7121 77.9293C54.651 82.9959 55.4316 89.6351 63.1306 89.5147C63.6723 89.5062 64.2482 89.4643 64.8619 89.386C65.5488 89.2983 66.2014 89.1925 66.8205 89.0695C68.3815 88.7594 69.729 88.3402 70.8724 87.8287C77.1832 85.0056 77.2799 79.3708 72.769 73.7428C71.3379 72.0021 69.9614 69.7769 68.8068 67.0268C64.1901 65.2109 61.0182 62.1557 63.2714 58.8009Z" fill="white"/>
<path d="M121.348 53.1684C121.032 53.8768 120.645 54.639 120.173 55.4641C119.447 56.7319 118.305 57.5406 116.92 58.0048C114.7 58.7653 109.416 65.5086 111.033 72.7597C105.813 72.0536 102.428 71.9732 90.263 78.1331C85.9987 80.2925 78.5537 80.7792 72.769 73.7428C77.2799 79.3708 77.1832 85.0056 70.8724 87.8287L82.1652 90.9495L82.9766 91.1737C90.1787 92.9639 92.9715 91.2275 101.111 84.9946C109.25 78.7618 118.688 78.1384 122.39 78.6058C120.034 69.9165 126.777 51.8417 129.8 45.2658C127.838 48.2929 124.755 51.231 121.348 53.1684Z" fill="white"/>
<path d="M100.376 63.7276C97.508 61.9193 93.8496 57.7216 84.6561 66.7248C81.7323 69.588 74.2612 69.1723 68.8068 67.0268C69.9614 69.7769 71.3379 72.0021 72.769 73.7428C78.5537 80.7792 85.9987 80.2925 90.263 78.1331C102.428 71.9732 105.813 72.0536 111.033 72.7597C109.416 65.5086 114.7 58.7653 116.92 58.0048C111.071 59.9645 100.89 55.7849 99.4145 54.0927L99.4237 54.3013C99.5796 57.8386 99.7355 61.3753 100.376 63.7276Z" fill="white"/>
<path d="M95.4093 42.1798C95.0182 42.8126 94.3763 43.2095 93.5632 43.2717C97.5067 37.7764 86.7793 37.1858 77.0699 40.2134C74.9855 40.8634 71.1109 36.8299 75.0892 32.026C73.2494 33.3689 65.5134 38.2144 61.2216 36.8478C67.7942 43.0758 61.5766 51.6978 67.1268 54.8729C70.8695 57.7731 84.14 55.9033 88.325 52.0061C89.9327 61.8637 68.8525 61.648 63.2714 58.8009C61.0182 62.1557 64.1901 65.2109 68.8068 67.0268C74.2612 69.1723 81.7323 69.588 84.6561 66.7248C93.8496 57.7216 97.508 61.9193 100.376 63.7276C99.7355 61.3753 99.5796 57.8386 99.4237 54.3013L99.4145 54.0927C99.1474 48.0405 98.8523 42.0543 96.1031 42.0639C95.8873 42.0647 95.6564 42.1024 95.4093 42.1798Z" fill="white"/>
<path d="M120.173 55.4641C120.645 54.639 121.032 53.8768 121.348 53.1684C124.754 45.5245 119.881 44.1566 124.82 37.8501C116.657 35.489 113.761 25.9667 105.51 28.979C98.0562 31.7001 96.7299 36.5121 96.1031 42.0639C98.8523 42.0543 99.1474 48.0405 99.4145 54.0927C100.89 55.7849 111.071 59.9645 116.92 58.0048C118.305 57.5406 119.447 56.7319 120.173 55.4641Z" fill="white"/>
<path d="M95.4886 27.231C97.9679 32.907 96.1993 35.8125 96.1031 42.0639C96.7299 36.5121 98.0562 31.7001 105.51 28.979C113.761 25.9667 116.657 35.489 124.82 37.8501C119.881 44.1566 124.754 45.5245 121.348 53.1684C124.755 51.231 127.838 48.2929 129.8 45.2658C131.678 42.369 132.53 39.3908 131.656 37.1302C130.226 33.432 121.413 30.0523 127.136 12.2016C116.618 11.3415 108.015 11.4051 101.126 12.2878C91.7201 13.4932 85.5098 16.2257 81.9832 20.2192C91.2005 22.1795 93.4479 22.5591 95.4886 27.231Z" fill="white"/>
<path d="M65.8408 16.3874C72.8428 18.2574 78.0482 19.3823 81.9832 20.2192C85.5098 16.2257 91.7201 13.4932 101.126 12.2878C98.4127 3.63074 68.0343 8.06953 58.3066 2C55.1301 10.8265 49.5344 20.095 38.6813 31.4536C32.074 38.3685 33.2619 42.0607 35.3424 44.6733C36.0731 44.1326 37.042 43.7682 38.3033 43.6114C48.7148 42.3167 51.0545 40.1956 51.2098 39.4636C49.9366 29.4768 57.419 27.1977 65.8408 16.3874Z" fill="white"/>
<path d="M91.4871 33.8172C95.6883 37.024 96.4684 40.4665 95.4093 42.1798C95.6564 42.1024 95.8873 42.0647 96.1031 42.0639C96.1993 35.8125 97.9679 32.907 95.4886 27.231C93.4479 22.5591 91.2005 22.1795 81.9832 20.2192C78.0482 19.3823 72.8428 18.2574 65.8408 16.3874C57.419 27.1977 49.9366 29.4768 51.2098 39.4636C51.3194 40.3231 51.4938 41.2396 51.7381 42.2235L51.8182 42.5463C54.5324 53.4838 55.8918 58.362 63.2714 58.8009C62.7682 58.5442 62.391 58.2661 62.1678 57.9721C51.8943 44.4416 69.9459 45.9226 61.2216 36.8478C65.5134 38.2144 73.2494 33.3689 75.0892 32.026C76.6038 30.1972 79.2564 28.2568 83.5791 26.4206C84.7947 32.0956 87.1354 30.4956 91.4871 33.8172Z" fill="white"/>
<path d="M95.4093 42.1798C96.4684 40.4665 95.6883 37.024 91.4871 33.8172C87.1354 30.4956 84.7947 32.0956 83.5791 26.4206C79.2564 28.2568 76.6038 30.1972 75.0892 32.026C71.1109 36.8299 74.9855 40.8634 77.0699 40.2134C86.7793 37.1858 97.5067 37.7764 93.5632 43.2717C94.2628 42.7018 94.8742 42.3476 95.4093 42.1798Z" fill="white"/>
<path d="M61.2216 36.8478C69.9459 45.9226 51.8943 44.4416 62.1678 57.9721C62.391 58.2661 62.7682 58.5442 63.2714 58.8009C68.8525 61.648 89.9327 61.8637 88.325 52.0061C84.14 55.9033 70.8695 57.7731 67.1268 54.8729C61.5766 51.6978 67.7942 43.0758 61.2216 36.8478Z" fill="white"/>
<path d="M2 100.819L0.705902 100.06C0.410061 100.565 0.434688 101.195 0.768989 101.676C1.10329 102.156 1.68625 102.398 2.26229 102.295L2 100.819ZM27.2157 73.5476C26.4389 73.8357 26.0427 74.6988 26.3307 75.4756C26.6187 76.2523 27.4819 76.6485 28.2587 76.3605L27.2157 73.5476ZM16.1116 89.6964C15.4576 90.2049 15.3396 91.1473 15.8482 91.8013C16.3567 92.4553 17.2991 92.5732 17.9531 92.0647L16.1116 89.6964ZM28.2829 89.1481C28.4211 89.965 29.1953 90.5151 30.0121 90.3768C30.829 90.2386 31.3791 89.4644 31.2408 88.6476L28.2829 89.1481ZM57.4169 132L55.9523 132.324C56.0751 132.879 56.5007 133.317 57.0518 133.455C57.6029 133.593 58.1849 133.408 58.555 132.977L57.4169 132ZM57.7668 95.9429C57.3586 96.6638 57.6121 97.5791 58.333 97.9873C59.0539 98.3955 59.9692 98.142 60.3774 97.4211L57.7668 95.9429ZM64.5281 101.458L63.0531 101.185L63.0531 101.185L64.5281 101.458ZM60.4909 115.031C60.3402 115.846 60.8784 116.628 61.693 116.779C62.5076 116.93 63.2901 116.392 63.4408 115.577L60.4909 115.031ZM69.339 107.231C69.9857 107.749 70.9297 107.644 71.4475 106.998C71.9652 106.351 71.8607 105.407 71.214 104.889L69.339 107.231ZM93.5632 43.2717L92.3445 42.3971C92.0045 42.8709 91.9699 43.4987 92.2558 44.007C92.5416 44.5152 93.0961 44.8117 93.6775 44.7673L93.5632 43.2717ZM91.4871 33.8172L92.3973 32.6249L92.3973 32.6249L91.4871 33.8172ZM83.5791 26.4206L85.0459 26.1064C84.9521 25.6687 84.6678 25.2957 84.2705 25.0894C83.8733 24.8831 83.4047 24.8649 82.9927 25.0399L83.5791 26.4206ZM77.0699 40.2134L77.5165 41.6454L77.5165 41.6454L77.0699 40.2134ZM76.0862 33.1544C76.7496 32.6582 76.8851 31.7181 76.3888 31.0548C75.8926 30.3914 74.9526 30.2559 74.2892 30.7522L76.0862 33.1544ZM61.2216 36.8478L61.6767 35.4185C61.0227 35.2103 60.3108 35.4725 59.9481 36.0553C59.5855 36.638 59.6646 37.3926 60.1403 37.8874L61.2216 36.8478ZM62.1678 57.9721L63.3624 57.065L63.3624 57.065L62.1678 57.9721ZM67.1268 54.8729L68.0456 53.6872C67.9904 53.6444 67.9323 53.6055 67.8716 53.5708L67.1268 54.8729ZM84.6561 66.7248L83.6066 65.6531L83.6066 65.6531L84.6561 66.7248ZM100.376 63.7276L99.5755 64.9964C100.099 65.3262 100.771 65.3012 101.268 64.9334C101.765 64.5656 101.985 63.9304 101.823 63.3337L100.376 63.7276ZM95.4886 27.231L94.114 27.8315L94.114 27.8315L95.4886 27.231ZM65.8408 16.3874L66.2278 14.9382C65.6459 14.7828 65.0276 14.9904 64.6575 15.4655L65.8408 16.3874ZM63.2714 58.8009L63.953 57.4647L63.953 57.4647L63.2714 58.8009ZM51.8182 42.5463L53.274 42.1851L53.274 42.185L51.8182 42.5463ZM51.7381 42.2235L53.1939 41.8622L53.1939 41.8621L51.7381 42.2235ZM51.2098 39.4636L52.6978 39.2739L52.6978 39.2739L51.2098 39.4636ZM120.173 55.4641L121.475 56.2093L121.475 56.2093L120.173 55.4641ZM121.348 53.1684L119.978 52.5578L119.978 52.5578L121.348 53.1684ZM124.82 37.8501L126.001 38.775C126.308 38.3826 126.4 37.8633 126.247 37.389C126.094 36.9148 125.715 36.5476 125.237 36.4091L124.82 37.8501ZM105.51 28.979L106.024 30.3881L105.51 28.979ZM111.033 72.7597L110.832 74.2462C111.318 74.312 111.806 74.1358 112.138 73.7744C112.47 73.413 112.604 72.9121 112.497 72.4332L111.033 72.7597ZM90.263 78.1331L89.5854 76.7949L90.263 78.1331ZM64.8619 89.386L64.6721 87.898L64.6721 87.898L64.8619 89.386ZM36.4044 72.3254L34.9096 72.201C34.874 72.6284 35.0231 73.0507 35.3192 73.361C35.6153 73.6713 36.0301 73.84 36.4588 73.8245L36.4044 72.3254ZM35.3424 44.6733L36.2347 45.8791L36.2347 45.8791L35.3424 44.6733ZM38.3033 43.6114L38.1182 42.1229L38.1182 42.1229L38.3033 43.6114ZM127.136 12.2016L128.565 12.6596C128.704 12.2239 128.637 11.7481 128.383 11.3678C128.129 10.9874 127.714 10.7439 127.258 10.7066L127.136 12.2016ZM131.656 37.1302L130.257 37.671L130.257 37.671L131.656 37.1302ZM129.8 45.2658L128.541 44.4498L128.541 44.4498L129.8 45.2658ZM122.39 78.6058L122.202 80.094C122.699 80.1567 123.194 79.9677 123.522 79.5901C123.85 79.2125 123.969 78.6961 123.838 78.2132L122.39 78.6058ZM101.111 84.9946L100.199 83.8037L100.199 83.8037L101.111 84.9946ZM82.9766 91.1737L82.577 92.6195C82.5896 92.623 82.6021 92.6263 82.6147 92.6294L82.9766 91.1737ZM70.8724 87.8287L70.2599 86.4594L70.2599 86.4594L70.8724 87.8287ZM58.3066 2L59.1007 0.727402C58.7161 0.487429 58.2436 0.434264 57.8153 0.582768C57.387 0.731272 57.0488 1.06551 56.8953 1.49206L58.3066 2ZM38.6813 31.4536L37.5968 30.4173L37.5968 30.4173L38.6813 31.4536ZM84.3303 46.003C84.9759 46.522 85.9201 46.4194 86.4391 45.7737C86.9582 45.128 86.8555 44.1838 86.2098 43.6648L84.3303 46.003ZM73.3875 47.1104L74.8524 47.4332L74.8524 47.4332L73.3875 47.1104ZM82.4022 50.7247C82.9696 50.121 82.9401 49.1717 82.3365 48.6044C81.7328 48.037 80.7835 48.0665 80.2162 48.6701L82.4022 50.7247ZM72.769 73.7428L73.9277 72.7902L73.9277 72.7902L72.769 73.7428ZM68.8068 67.0268L69.3559 65.6309L69.3559 65.6309L68.8068 67.0268ZM99.4237 54.3013L100.922 54.2352L100.922 54.2352L99.4237 54.3013ZM82.5795 42.0001C81.8098 41.6937 80.9374 42.0693 80.631 42.839C80.3246 43.6087 80.7002 44.481 81.4699 44.7874L82.5795 42.0001ZM88.325 52.0061L87.3027 50.9083L87.3027 50.9083L88.325 52.0061ZM66.8205 89.0695L66.5282 87.5983L66.8205 89.0695ZM63.1306 89.5147L63.1071 88.0149L63.1306 89.5147ZM50.5726 83.8371L52.0724 83.809L50.5726 83.8371ZM40.6907 72.4851L40.8741 70.9963L40.6907 72.4851ZM36.4456 71.7252L37.9434 71.8065L36.4456 71.7252ZM27.6575 80.7189L16.1116 89.6964L17.9531 92.0647L29.4989 83.0872L27.6575 80.7189ZM27.0992 82.1533L28.2829 89.1481L31.2408 88.6476L30.0572 81.6528L27.0992 82.1533ZM63.0531 101.185L60.4909 115.031L63.4408 115.577L66.0031 101.731L63.0531 101.185ZM63.5906 102.629L69.339 107.231L71.214 104.889L65.4656 100.287L63.5906 102.629ZM93.6775 44.7673C94.9516 44.6699 96.0333 44.0232 96.6852 42.9685L94.1334 41.3912C94.0031 41.602 93.8009 41.7491 93.4489 41.776L93.6775 44.7673ZM96.6852 42.9685C97.5419 41.5826 97.5152 39.763 96.8143 38.0035C96.1035 36.219 94.6595 34.3516 92.3973 32.6249L90.577 35.0096C92.516 36.4896 93.5625 37.9468 94.0273 39.1136C94.502 40.3053 94.3358 41.0637 94.1334 41.3912L96.6852 42.9685ZM92.3973 32.6249C91.2048 31.7147 90.1471 31.1408 89.2325 30.7044C88.2388 30.2303 87.6851 30.0292 87.0955 29.6958C86.6099 29.4211 86.2679 29.1357 85.9705 28.6815C85.6515 28.1945 85.3289 27.4279 85.0459 26.1064L82.1124 26.7347C82.4371 28.2507 82.8629 29.4122 83.4607 30.3251C84.0801 31.2708 84.8231 31.8571 85.6186 32.307C86.3101 32.6981 87.2335 33.0746 87.9406 33.412C88.7268 33.7872 89.5936 34.2589 90.577 35.0096L92.3973 32.6249ZM94.7819 44.1462C95.361 43.3392 95.768 42.492 95.874 41.6192C95.9859 40.6977 95.7484 39.8402 95.2025 39.133C94.2115 37.8495 92.3988 37.2961 90.6357 37.0597C86.9458 36.5651 81.6059 37.2277 76.6234 38.7815L77.5165 41.6454C82.2433 40.1715 87.1218 39.6156 90.2371 40.0331C91.8766 40.2529 92.6131 40.6883 92.8279 40.9664C92.8847 41.0401 92.9142 41.1066 92.8959 41.2575C92.8717 41.4569 92.7513 41.8302 92.3445 42.3971L94.7819 44.1462ZM76.6234 38.7815C76.6462 38.7743 76.4655 38.8242 76.1017 38.6027C75.7644 38.3974 75.4037 38.028 75.1588 37.5168C74.7128 36.5859 74.5771 34.9962 76.2445 32.9828L73.934 31.0693C71.623 33.8598 71.4355 36.6887 72.4533 38.8131C72.9403 39.8295 73.6904 40.6469 74.5415 41.1651C75.3661 41.6672 76.4514 41.9775 77.5165 41.6454L76.6234 38.7815ZM76.2445 32.9828C77.5523 31.4036 79.9702 29.5833 84.1656 27.8012L82.9927 25.0399C78.5426 26.9303 75.6552 28.9909 73.934 31.0693L76.2445 32.9828ZM74.2892 30.7522C74.2636 30.7713 74.2355 30.7921 74.2049 30.8144L75.9736 33.2376C76.0129 33.2089 76.0505 33.1811 76.0862 33.1544L74.2892 30.7522ZM74.2049 30.8144C73.3553 31.4346 71.0518 32.925 68.4623 34.0838C67.1696 34.6622 65.8501 35.1378 64.6341 35.3914C63.3986 35.649 62.4015 35.6493 61.6767 35.4185L60.7666 38.2771C62.1877 38.7296 63.7671 38.6367 65.2465 38.3282C66.7457 38.0156 68.2798 37.4521 69.6876 36.8221C72.4989 35.5641 74.9833 33.9604 75.9736 33.2376L74.2049 30.8144ZM63.3624 57.065C60.8907 53.8096 60.3288 51.7181 60.4101 50.3268C60.4903 48.9536 61.2083 47.9146 62.245 46.7241C62.7234 46.1747 63.3494 45.5062 63.8408 44.8591C64.3519 44.1859 64.8485 43.3773 65.0684 42.405C65.5411 40.3143 64.6077 38.2056 62.303 35.8082L60.1403 37.8874C62.1977 40.0274 62.2795 41.1366 62.1423 41.7433C62.0572 42.1197 61.8426 42.5297 61.4514 43.0449C61.0405 43.5861 60.5732 44.0757 59.9825 44.754C58.881 46.0189 57.5576 47.7138 57.4152 50.1519C57.2738 52.572 58.3081 55.3693 60.9731 58.8792L63.3624 57.065ZM67.8716 53.5708C66.9219 53.0275 66.4793 52.2946 66.2512 51.2676C65.998 50.1271 66.037 48.7712 66.0575 47.0228C66.0967 43.6802 66.0474 39.3541 62.2534 35.759L60.1899 37.9366C62.9685 40.5695 63.0967 43.6684 63.0577 46.9876C63.0392 48.57 62.9753 50.3542 63.3226 51.918C63.6951 53.5951 64.5567 55.1307 66.382 56.1749L67.8716 53.5708ZM85.7056 67.7965C90.19 63.4049 93.0054 62.5581 94.7953 62.669C96.7154 62.7879 97.8538 63.9107 99.5755 64.9964L101.176 62.4588C100.03 61.7361 97.9053 59.8559 94.9808 59.6747C91.9263 59.4855 88.3157 61.0414 83.6066 65.6531L85.7056 67.7965ZM97.6029 42.087C97.6259 40.5944 97.7485 39.2953 97.8867 38.0761C98.0223 36.8804 98.1832 35.6855 98.2585 34.5291C98.4156 32.1143 98.2141 29.7233 96.8632 26.6306L94.114 27.8315C95.2424 30.4148 95.3962 32.3145 95.2648 34.3343C95.1958 35.3952 95.0515 36.4536 94.9058 37.7382C94.7629 38.9994 94.6284 40.4078 94.6032 42.0408L97.6029 42.087ZM96.8632 26.6306C96.3182 25.3831 95.72 24.3286 94.9357 23.4446C94.1389 22.5466 93.2044 21.8852 92.0643 21.3503C89.8967 20.3332 86.8059 19.7113 82.2953 18.752L81.6712 21.6864C86.3778 22.6874 89.0194 23.2354 90.79 24.0662C91.619 24.4552 92.2051 24.8873 92.6916 25.4357C93.1907 25.9981 93.6386 26.7431 94.114 27.8315L96.8632 26.6306ZM82.2953 18.752C78.3695 17.9171 73.1931 16.7984 66.2278 14.9382L65.4537 17.8366C72.4924 19.7164 77.7268 20.8475 81.6712 21.6864L82.2953 18.752ZM63.3604 57.3035C61.6753 57.2033 60.448 56.8564 59.4944 56.3116C58.5505 55.7724 57.7747 54.9821 57.0779 53.8329C55.6219 51.4313 54.6529 47.7415 53.274 42.1851L50.3623 42.9076C51.6977 48.2886 52.7655 52.5067 54.5126 55.3882C55.4174 56.8806 56.5348 58.0758 58.0061 58.9164C59.4678 59.7515 61.1777 60.179 63.1823 60.2982L63.3604 57.3035ZM53.274 42.185L53.1939 41.8622L50.2822 42.5848L50.3624 42.9077L53.274 42.185ZM53.1939 41.8621C52.9618 40.9271 52.7991 40.0683 52.6978 39.2739L49.7219 39.6533C49.8397 40.5778 50.0258 41.552 50.2822 42.5849L53.1939 41.8621ZM52.6978 39.2739C52.4053 36.9797 52.623 35.2107 53.1831 33.6805C53.7491 32.1338 54.6999 30.734 56.0201 29.2202C57.3616 27.6821 58.9791 26.1387 60.8901 24.2031C62.775 22.2939 64.8674 20.0776 67.0241 17.3092L64.6575 15.4655C62.6032 18.1023 60.6021 20.2248 58.7553 22.0954C56.9344 23.9397 55.1819 25.6171 53.7592 27.2484C52.3152 28.9041 51.1078 30.6222 50.3658 32.6494C49.6178 34.6932 49.3778 36.9542 49.7219 39.6533L52.6978 39.2739ZM121.475 56.2093C121.969 55.3451 122.38 54.5379 122.718 53.779L119.978 52.5578C119.684 53.2156 119.321 53.9329 118.871 54.7189L121.475 56.2093ZM122.718 53.779C123.635 51.7219 124.015 50.0359 124.128 48.5511C124.239 47.0983 124.086 45.862 124.004 44.8822C123.92 43.8801 123.899 43.0847 124.126 42.2018C124.352 41.3196 124.857 40.236 126.001 38.775L123.639 36.9252C122.314 38.6174 121.575 40.0697 121.22 41.4566C120.864 42.8428 120.923 44.0496 121.014 45.1333C121.107 46.2392 121.225 47.1723 121.137 48.3229C121.052 49.4416 120.764 50.7929 119.978 52.5578L122.718 53.779ZM125.237 36.4091C121.547 35.3418 119.129 32.7081 116.155 30.2444C114.731 29.0651 113.162 27.9321 111.323 27.3355C109.429 26.7208 107.357 26.708 104.995 27.57L106.024 30.3881C107.789 29.7438 109.173 29.7917 110.397 30.189C111.678 30.6045 112.889 31.4348 114.241 32.5547C116.818 34.6893 119.93 37.9973 124.403 39.291L125.237 36.4091ZM104.995 27.57C101.005 29.0266 98.5084 31.1065 96.96 33.6885C95.4436 36.217 94.9303 39.0816 94.6125 41.8956L97.5936 42.2322C97.9027 39.4945 98.3659 37.1771 99.5328 35.2314C100.668 33.3392 102.561 31.6525 106.024 30.3881L104.995 27.57ZM116.433 56.5857C115.517 56.8998 114.562 57.6912 113.731 58.5972C112.855 59.5509 111.963 60.8011 111.206 62.2567C109.7 65.1562 108.662 69.0195 109.569 73.0863L112.497 72.4332C111.787 69.2489 112.582 66.115 113.868 63.6399C114.508 62.4082 115.252 61.3768 115.941 60.6256C116.674 59.8268 117.212 59.49 117.406 59.4238L116.433 56.5857ZM111.234 71.2733C108.563 70.9119 106.206 70.6888 102.931 71.4064C99.7217 72.1096 95.6978 73.6997 89.5854 76.7949L90.9407 79.4713C96.9928 76.4066 100.744 74.9569 103.573 74.3369C106.337 73.7312 108.283 73.9014 110.832 74.2462L111.234 71.2733ZM36.2347 45.8791C36.7076 45.5291 37.4131 45.2336 38.4884 45.0999L38.1182 42.1229C36.6709 42.3028 35.4386 42.7362 34.4502 43.4676L36.2347 45.8791ZM38.4884 45.0999C43.764 44.4439 47.0967 43.5675 49.173 42.7138C50.211 42.287 50.9791 41.8481 51.5269 41.4113C52.0217 41.0167 52.5294 40.471 52.6771 39.7751L49.7425 39.1521C49.8126 38.8222 49.9695 38.8161 49.6566 39.0656C49.3967 39.2728 48.9 39.5823 48.0322 39.9392C46.2969 40.6526 43.2541 41.4842 38.1182 42.1229L38.4884 45.0999ZM125.708 11.7437C122.765 20.9223 123.485 26.6396 125.357 30.6123C126.275 32.5631 127.436 34.0107 128.393 35.1503C128.887 35.7376 129.285 36.1952 129.623 36.6385C129.957 37.076 130.153 37.4023 130.257 37.671L133.055 36.5894C132.801 35.9336 132.409 35.3452 132.01 34.8204C131.614 34.3013 131.134 33.7486 130.69 33.2201C129.772 32.128 128.818 30.9217 128.071 29.334C126.608 26.2296 125.784 21.3317 128.565 12.6596L125.708 11.7437ZM130.257 37.671C130.862 39.2372 130.345 41.6676 128.541 44.4498L131.059 46.0818C133.011 43.0704 134.197 39.5443 133.055 36.5894L130.257 37.671ZM128.541 44.4498C126.712 47.2717 123.808 50.0439 120.606 51.8645L122.089 54.4723C125.701 52.4181 128.963 49.314 131.059 46.0818L128.541 44.4498ZM128.437 44.6392C126.896 47.9916 124.425 54.2307 122.631 60.7452C121.734 64.0038 120.998 67.363 120.638 70.4836C120.281 73.5809 120.281 76.5588 120.942 78.9984L123.838 78.2132C123.321 76.3081 123.28 73.7682 123.619 70.8271C123.955 67.9093 124.652 64.7095 125.524 61.5414C127.269 55.2021 129.681 49.1159 131.163 45.8924L128.437 44.6392ZM122.578 77.1176C118.574 76.612 108.716 77.2815 100.199 83.8037L102.023 86.1856C109.784 80.2421 118.803 79.6648 122.202 80.094L122.578 77.1176ZM100.199 83.8037C96.0824 86.9559 93.5308 88.7937 91.1615 89.6898C88.9259 90.5354 86.7603 90.5686 83.3384 89.718L82.6147 92.6294C86.3949 93.569 89.2268 93.629 92.2229 92.4958C95.0853 91.4131 97.9997 89.2662 102.023 86.1856L100.199 83.8037ZM102.558 11.8392C102.085 10.3299 101.03 9.19822 99.7221 8.35045C98.4269 7.51102 96.8109 6.90018 95.0431 6.43173C91.5136 5.49641 87.0302 5.04304 82.4662 4.67835C77.8451 4.30909 73.1244 4.02952 68.9194 3.46404C64.6732 2.89301 61.2365 2.06002 59.1007 0.727402L57.5126 3.2726C60.2406 4.97474 64.2491 5.86298 68.5195 6.43727C72.8312 7.0171 77.6986 7.30695 82.2272 7.66882C86.813 8.03525 91.041 8.47474 94.2746 9.33163C95.8884 9.75928 97.1669 10.2694 98.0905 10.8679C99.0011 11.4582 99.4897 12.0815 99.695 12.7365L102.558 11.8392ZM56.8953 1.49206C53.8048 10.0793 48.3399 19.1738 37.5968 30.4173L39.7658 32.4898C50.7289 21.0161 56.4554 11.5737 59.718 2.50794L56.8953 1.49206ZM37.5968 30.4173C34.2006 33.9717 32.5938 36.9099 32.2659 39.4876C31.9266 42.1553 32.9914 44.1289 34.169 45.6077L36.5159 43.7389C35.6129 42.605 35.0435 41.4263 35.242 39.8661C35.4519 38.2158 36.5547 35.8504 39.7658 32.4898L37.5968 30.4173ZM86.2098 43.6648C85.1691 42.8282 83.8397 42.2795 82.4772 41.9812L81.8355 44.9117C82.8775 45.1399 83.7434 45.5312 84.3303 46.003L86.2098 43.6648ZM82.4772 41.9812C80.4683 41.5413 78.1754 41.5996 76.2209 42.2925C74.2523 42.9903 72.4448 44.4178 71.9227 46.7877L74.8524 47.4332C75.0826 46.3884 75.8835 45.595 77.2233 45.1201C78.5771 44.6401 80.2925 44.5739 81.8355 44.9117L82.4772 41.9812ZM71.9227 46.7877C71.5336 48.5537 71.7563 50.1117 72.7709 51.2305C73.732 52.2903 75.1113 52.6211 76.2822 52.672C77.4845 52.7242 78.7336 52.4978 79.768 52.1686C80.7358 51.8606 81.7901 51.376 82.4022 50.7247L80.2162 48.6701C80.2215 48.6645 80.1973 48.6905 80.1239 48.7416C80.0537 48.7906 79.9564 48.85 79.83 48.916C79.5759 49.0487 79.2441 49.187 78.8582 49.3098C78.0753 49.559 77.1839 49.7083 76.4124 49.6748C75.6096 49.6399 75.182 49.4234 74.9931 49.2152C74.8579 49.066 74.5875 48.6355 74.8524 47.4332L71.9227 46.7877ZM89.5854 76.7949C85.8259 78.6987 79.1848 79.1848 73.9277 72.7902L71.6103 74.6954C77.9227 82.3736 86.1715 81.8864 90.9407 79.4713L89.5854 76.7949ZM73.9277 72.7902C72.5947 71.1688 71.2917 69.0706 70.1899 66.4462L67.4238 67.6075C68.6311 70.4833 70.0811 72.8353 71.6103 74.6954L73.9277 72.7902ZM94.5105 44.4347C95.1288 43.9311 95.5715 43.701 95.858 43.6112L94.9606 40.7485C94.1769 40.9942 93.3969 41.4726 92.6159 42.1086L94.5105 44.4347ZM95.858 43.6112C95.9836 43.5718 96.0644 43.5641 96.1083 43.5639L96.0978 40.5639C95.7102 40.5653 95.3293 40.6329 94.9606 40.7485L95.858 43.6112ZM96.1083 43.5639C96.1288 43.5638 96.243 43.5273 96.479 43.8963C96.7468 44.3151 97.0054 45.034 97.2187 46.0996C97.6421 48.2141 97.7807 51.0949 97.916 54.1589L100.913 54.0266C100.781 51.0384 100.639 47.8999 100.16 45.5107C99.9229 44.3244 99.5756 43.1703 99.0065 42.2802C98.4055 41.3404 97.452 40.5592 96.0978 40.5639L96.1083 43.5639ZM97.916 54.1588L97.9251 54.3673L100.922 54.2352L100.913 54.0267L97.916 54.1588ZM97.9251 54.3673C98.0779 57.8319 98.2338 61.5693 98.9283 64.1214L101.823 63.3337C101.237 61.1812 101.081 57.8453 100.922 54.2352L97.9251 54.3673ZM98.2839 55.0785C98.6133 55.4564 99.0814 55.7995 99.549 56.095C100.042 56.4068 100.638 56.7291 101.303 57.0468C102.633 57.6826 104.302 58.3307 106.106 58.858C109.632 59.8883 114.017 60.5594 117.396 59.427L116.443 56.5825C113.974 57.4098 110.344 56.971 106.948 55.9784C105.291 55.4942 103.773 54.9027 102.597 54.3401C102.008 54.0586 101.52 53.7921 101.152 53.5591C100.757 53.3098 100.584 53.1522 100.545 53.107L98.2839 55.0785ZM117.396 59.427C119.054 58.8716 120.53 57.86 121.475 56.2093L118.871 54.7189C118.364 55.6038 117.556 56.2096 116.443 56.5825L117.396 59.427ZM81.4699 44.7874C81.5124 44.8043 81.5547 44.8213 81.5969 44.8382L82.7158 42.0547C82.6707 42.0365 82.6252 42.0184 82.5795 42.0001L81.4699 44.7874ZM81.597 44.8382C85.5216 46.4157 87.2695 47.8218 87.8611 48.8162C88.1173 49.2466 88.1277 49.5481 88.0706 49.7874C88.0032 50.0697 87.7932 50.4516 87.3027 50.9083L89.3472 53.1038C90.1054 52.3977 90.7397 51.5266 90.9886 50.4839C91.2477 49.3982 91.0464 48.3025 90.4392 47.2821C89.3043 45.3747 86.7192 43.6638 82.7158 42.0547L81.597 44.8382ZM87.3027 50.9083C86.4706 51.6833 85.0737 52.4463 83.2673 53.094C81.4872 53.7322 79.4219 54.2186 77.3558 54.5025C75.2868 54.7868 73.2648 54.8616 71.5691 54.703C69.8159 54.5391 68.6371 54.1455 68.0456 53.6872L66.208 56.0585C67.4879 57.0503 69.3714 57.5106 71.2898 57.69C73.2658 57.8748 75.5247 57.7823 77.7642 57.4745C80.0067 57.1664 82.2777 56.6358 84.2798 55.918C86.2556 55.2096 88.0869 54.2775 89.3472 53.1038L87.3027 50.9083ZM86.8445 52.2475C87.0014 53.209 86.8748 53.9763 86.5789 54.6125C86.2773 55.2609 85.7574 55.8626 84.9976 56.4091C83.4455 57.5254 81.0645 58.286 78.2823 58.6828C75.532 59.075 72.545 59.0902 69.9121 58.8336C67.2367 58.573 65.0963 58.0479 63.953 57.4647L62.5897 60.1371C64.237 60.9774 66.8246 61.547 69.6212 61.8195C72.4603 62.0961 75.6893 62.0829 78.7058 61.6528C81.6902 61.2271 84.6267 60.3713 86.7493 58.8446C87.8269 58.0695 88.7337 57.0931 89.2991 55.8776C89.8701 54.6499 90.0505 53.2675 89.8054 51.7646L86.8445 52.2475ZM63.953 57.4647C63.5391 57.2536 63.3894 57.1006 63.3624 57.065L60.9731 58.8792C61.3926 59.4316 61.9973 59.8348 62.5897 60.1371L63.953 57.4647ZM62.0262 57.9646C61.3062 59.0365 60.9618 60.1807 61.0398 61.3463C61.1169 62.4977 61.5962 63.5275 62.2755 64.4074C63.6034 66.1279 65.8406 67.4719 68.2578 68.4227L69.3559 65.6309C67.1563 64.7657 65.4992 63.6742 64.6503 62.5744C64.2411 62.0442 64.0614 61.5677 64.0331 61.146C64.0059 60.7384 64.11 60.2427 64.5166 59.6372L62.0262 57.9646ZM68.2578 68.4227C71.1512 69.5608 74.5659 70.2389 77.6731 70.254C80.6978 70.2688 83.8081 69.6546 85.7056 67.7965L83.6066 65.6531C82.5802 66.6582 80.4931 67.2678 77.6877 67.2541C74.9649 67.2408 71.9169 66.6383 69.3559 65.6309L68.2578 68.4227ZM83.1076 21.2121C86.2822 17.6173 92.0603 14.9618 101.317 13.7757L100.936 10.8C91.3799 12.0245 84.7375 14.8342 80.8589 19.2263L83.1076 21.2121ZM101.317 13.7757C108.068 12.9106 116.559 12.8417 127.014 13.6966L127.258 10.7066C116.677 9.84128 107.962 9.89964 100.936 10.8L101.317 13.7757ZM71.5985 74.6809C73.7284 77.3382 74.5802 79.7696 74.3864 81.6867C74.2042 83.4897 73.0547 85.2092 70.2599 86.4594L71.485 89.1979C75.001 87.6251 77.0552 85.1156 77.3712 81.9884C77.6758 78.9753 76.3204 75.7753 73.9394 72.8047L71.5985 74.6809ZM83.3761 89.7279L82.5648 89.5037L81.7657 92.3953L82.577 92.6195L83.3761 89.7279ZM82.5648 89.5037L71.272 86.3829L70.4729 89.2745L81.7657 92.3953L82.5648 89.5037ZM58.555 132.977C67.2396 122.861 78.6227 106.569 83.5906 91.4168L80.7399 90.4822C75.949 105.095 64.8521 121.037 56.2788 131.023L58.555 132.977ZM70.2599 86.4594C69.2368 86.9171 67.9998 87.3059 66.5282 87.5983L67.1128 90.5408C68.7632 90.2129 70.2212 89.7633 71.485 89.1979L70.2599 86.4594ZM66.5282 87.5983C65.9454 87.7141 65.327 87.8145 64.6721 87.898L65.0518 90.8739C65.7706 90.7822 66.4575 90.671 67.1128 90.5408L66.5282 87.5983ZM65.3455 88.7966L63.0531 101.185L66.0031 101.731L68.2954 89.3425L65.3455 88.7966ZM64.6721 87.898C64.1084 87.97 63.5882 88.0074 63.1071 88.0149L63.154 91.0145C63.7564 91.0051 64.3881 90.9586 65.0518 90.8739L64.6721 87.898ZM61.8253 88.7756L57.7668 95.9429L60.3774 97.4211L64.4358 90.2538L61.8253 88.7756ZM49.0729 83.8652C49.3523 98.7782 53.4855 121.175 55.9523 132.324L58.8815 131.676C56.4208 120.555 52.3458 98.4044 52.0724 83.809L49.0729 83.8652ZM2.26229 102.295C16.29 99.8041 37.0433 94.0635 51.3677 85.109L49.7775 82.5651C35.9295 91.2219 15.6142 96.8772 1.73771 99.3416L2.26229 102.295ZM49.2167 77.8121C49.073 79.6448 49.032 81.6837 49.0729 83.8652L52.0724 83.809C52.0328 81.6949 52.0735 79.7569 52.2075 78.0465L49.2167 77.8121ZM63.1071 88.0149C61.4102 88.0414 60.1866 87.6976 59.2314 87.1604C58.2645 86.6166 57.4733 85.819 56.7261 84.7873C55.9647 83.736 55.3065 82.5277 54.5399 81.1604C53.792 79.8264 52.957 78.3731 51.8963 77.0087L49.5279 78.85C50.4366 80.0189 51.1763 81.2955 51.9232 82.6275C52.6513 83.9263 53.408 85.3203 54.2964 86.547C55.1991 87.7934 56.2929 88.9497 57.7608 89.7752C59.2404 90.6073 61.0014 91.0482 63.154 91.0145L63.1071 88.0149ZM51.8963 77.0087C49.6421 74.109 46.4182 71.6793 40.8741 70.9963L40.5073 73.9738C45.1816 74.5497 47.7127 76.5152 49.5279 78.85L51.8963 77.0087ZM40.8741 70.9963C39.5047 70.8276 38.0031 70.7664 36.35 70.8264L36.4588 73.8245C37.973 73.7695 39.3143 73.8268 40.5073 73.9738L40.8741 70.9963ZM39.7699 71.3009L27.6575 80.7189L29.4989 83.0872L41.6114 73.6692L39.7699 71.3009ZM37.8992 72.4499C37.917 72.2359 37.9317 72.0214 37.9434 71.8065L34.9478 71.6438C34.9376 71.8309 34.9249 72.0166 34.9096 72.201L37.8992 72.4499ZM35.9241 70.3187L27.2157 73.5476L28.2587 76.3605L36.967 73.1316L35.9241 70.3187ZM37.9434 71.8065C38.2387 66.3685 36.6052 60.3073 35.6404 55.5056L32.6992 56.0965C33.729 61.2218 35.2161 66.7041 34.9478 71.6438L37.9434 71.8065ZM35.6404 55.5056C35.1379 53.0042 34.8148 50.867 34.8975 49.156C34.9792 47.4624 35.4414 46.4661 36.2347 45.8791L34.4502 43.4676C32.6314 44.8134 32.004 46.8765 31.9009 49.0113C31.7987 51.1288 32.1954 53.5889 32.6992 56.0965L35.6404 55.5056ZM33.1316 54.7184C27.7697 59.8606 21.3166 68.3891 15.4107 76.9759C9.48708 85.5887 4.0467 94.3602 0.705902 100.06L3.2941 101.577C6.60337 95.9309 12.0052 87.2215 17.8825 78.676C23.7778 70.1046 30.0845 61.7972 35.2081 56.8837L33.1316 54.7184Z" fill="#E4692E"/>
</svg>
