<svg width="73" height="73" viewBox="0 0 73 73" fill="none" xmlns="http://www.w3.org/2000/svg">
<path d="M54.2456 36.2207V28.972M54.2456 36.2207V43.4694M54.2456 36.2207C54.2456 33.8479 53.7734 31.5854 52.9177 29.522C52.0308 27.3831 50.7319 25.4582 49.12 23.8463M54.2456 36.2207C54.2456 38.5935 53.7734 40.8561 52.9177 42.9194C52.0308 45.0583 50.7319 46.9832 49.12 48.5951M36.7456 53.7207H43.9943M36.7456 53.7207H29.4969M36.7456 53.7207C39.1184 53.7207 41.381 53.2485 43.4443 52.3928C45.5832 51.5059 47.5081 50.207 49.12 48.5951M36.7456 53.7207C34.3728 53.7207 32.1103 53.2485 30.0469 52.3928C27.908 51.5059 25.9831 50.207 24.3712 48.5951M19.2456 36.2207V43.4694M19.2456 36.2207L19.2456 28.972M19.2456 36.2207C19.2456 38.5935 19.7179 40.8561 20.5735 42.9194C21.4604 45.0583 22.7593 46.9832 24.3712 48.5951M19.2456 36.2207C19.2456 33.8479 19.7179 31.5853 20.5735 29.522C21.4604 27.3831 22.7593 25.4582 24.3712 23.8463M36.7456 18.7207L29.4969 18.7207M36.7456 18.7207C34.3728 18.7207 32.1103 19.1929 30.0469 20.0486C27.908 20.9355 25.9831 22.2344 24.3712 23.8463M36.7456 18.7207C39.1184 18.7207 41.381 19.1929 43.4443 20.0486C45.5832 20.9355 47.5081 22.2344 49.12 23.8463M36.7456 18.7207H40.37H43.9943H54.2456V28.972M61.8717 61.3468L61.9697 61.4448M61.8717 61.3468C58.5354 64.5032 54.6763 66.7533 50.8255 68.3004C45.7003 70.3594 40.5897 71.1732 36.7456 71.2207C31.1943 71.2207 26.4684 70.3035 22.4589 68.7419C17.9641 66.9913 14.3695 64.4308 11.5215 61.4448C8.33337 58.1021 6.08075 54.2261 4.54805 50.3558C2.51102 45.2121 1.74561 40.0786 1.74561 36.2207C1.74561 30.6694 2.66279 25.9435 4.2244 21.934C5.97502 17.4392 8.53548 13.8446 11.5215 10.9966C14.8642 7.80846 18.7402 5.55585 22.6105 4.02314C27.7542 1.98611 32.8878 1.2207 36.7456 1.2207C42.2564 1.2207 46.9547 2.14231 50.9467 3.71079C55.4397 5.47612 59.038 8.06088 61.8929 11.0734C65.0742 14.4301 67.3324 18.318 68.8771 22.1949C70.9119 27.302 71.7085 32.3902 71.7456 36.2207C71.7456 41.7601 70.8094 46.4789 69.2182 50.4847C67.4497 54.9368 64.8721 58.5083 61.8717 61.3468ZM49.12 23.8463L36.7456 11.472L29.4969 18.7207M49.12 23.8463L51.6828 26.4092L54.2456 28.972M49.12 48.5951L54.2456 43.4694M49.12 48.5951L43.9943 53.7207M24.3712 48.5951L29.4969 53.7207M24.3712 48.5951L19.2456 43.4694M24.3712 23.8463L19.2456 28.972M24.3712 23.8463L29.4969 18.7207M54.2456 28.972L61.4943 36.2207L54.2456 43.4694M54.2456 43.4694V53.7207H43.9943M43.9943 53.7207L36.7456 60.9694L29.4969 53.7207M29.4969 53.7207H19.2456V43.4694M19.2456 43.4694L11.9969 36.2207L19.2456 28.972M19.2456 28.972V18.7207H29.4969" stroke="white" stroke-width="2"/>
</svg>
