<svg width="49" height="79" viewBox="0 0 49 79" fill="none" xmlns="http://www.w3.org/2000/svg">
<path d="M24.3942 76.2258C25.944 76.2252 29.4295 76.3343 31.8163 76.5578C32.8542 76.6549 33.9115 76.3469 34.6162 75.6084C39.8548 70.1183 47.9269 59.096 46.7862 49.8955C46.7315 49.4543 46.6556 49.0173 46.5572 48.5852C46.0682 46.5237 44.8447 43.059 43.1923 38.9065C41.5602 34.8049 39.5097 30.0322 37.3354 25.2779C35.3723 20.9852 33.3083 16.7075 31.3602 12.9522C28.5997 7.63088 26.072 3.35843 24.3941 1.57861C22.6895 3.3828 20.1481 7.63124 17.3841 12.9099C15.4214 16.6582 13.3465 20.9261 11.3793 25.2071C9.19292 29.9651 7.13966 34.7394 5.5215 38.8349C3.85006 43.0651 2.64284 46.5711 2.23268 48.5866C2.13434 49.0187 2.05852 49.4558 2.00388 49.8971C0.864653 59.0979 8.93446 70.1205 14.1717 75.6109C14.8763 76.3496 15.9341 76.6582 16.9721 76.5613C19.3438 76.3399 22.8221 76.2264 24.3942 76.2258Z" fill="white"/>
<path d="M24.3942 76.2258C25.944 76.2252 29.4295 76.3343 31.8163 76.5578C32.8542 76.6549 33.9115 76.3469 34.6162 75.6084C39.8548 70.1183 47.9269 59.096 46.7862 49.8955M24.3942 76.2258C22.8221 76.2264 19.3438 76.3399 16.9721 76.5613C15.9341 76.6582 14.8763 76.3496 14.1717 75.6109C8.93446 70.1205 0.864653 59.0979 2.00388 49.8971M24.3942 76.2258L24.3942 71.4117M24.3941 1.57861L24.3942 19.6458M24.3941 1.57861C26.072 3.35843 28.5997 7.63088 31.3602 12.9522M24.3941 1.57861C22.6895 3.3828 20.1481 7.63124 17.3841 12.9099M24.3942 37.7129L24.3942 56.9694M24.3942 37.7129L24.3942 19.6458M24.3942 37.7129L37.3354 25.2779M24.3942 37.7129L11.3793 25.2071M24.3942 56.9694L43.1923 38.9065M24.3942 56.9694L5.5215 38.8349M24.3942 56.9694V71.4117M24.3942 19.6458L31.3602 12.9522M24.3942 19.6458L17.3841 12.9099M43.1923 38.9065C44.8447 43.059 46.0682 46.5237 46.5572 48.5852C46.6556 49.0173 46.7315 49.4543 46.7862 49.8955M43.1923 38.9065C41.5602 34.8049 39.5097 30.0322 37.3354 25.2779M5.5215 38.8349C3.85006 43.0651 2.64284 46.5711 2.23268 48.5866C2.13434 49.0187 2.05852 49.4558 2.00388 49.8971M5.5215 38.8349C7.13966 34.7394 9.19292 29.9651 11.3793 25.2071M37.3354 25.2779C35.3723 20.9852 33.3083 16.7075 31.3602 12.9522M11.3793 25.2071C13.3465 20.9261 15.4214 16.6582 17.3841 12.9099M24.3942 71.4117L46.7862 49.8955M24.3942 71.4117L2.00388 49.8971" stroke="#E4692E" stroke-width="3" stroke-linejoin="round"/>
</svg>
