<svg width="126" height="126" viewBox="0 0 126 126" fill="none" xmlns="http://www.w3.org/2000/svg">
<path d="M44.7014 62.9565C44.7008 61.8199 44.807 60.6741 45.0255 59.5331C41.9274 56.4688 34.2148 50.6722 28.149 51.9998C26.5005 52.3755 23.6649 53.3181 20.4618 54.5292C13.7272 57.0755 5.36784 60.8085 3 62.954C5.41007 65.1425 13.745 68.9128 20.4342 71.4372C23.6846 72.6639 26.5464 73.5964 28.1512 73.9103C34.2174 75.2376 41.9298 69.4433 45.0276 66.3803C44.8127 65.2584 44.7019 64.1122 44.7014 62.9565Z" fill="white"/>
<path d="M75.9315 75.9533C76.7353 75.15 77.4702 74.2647 78.1222 73.3033C82.4789 73.328 92.0299 74.6847 95.3807 79.9141C96.2821 81.3478 97.6233 84.0256 99.0344 87.1533C101.995 93.7158 105.263 102.259 105.421 105.449C102.176 105.292 93.646 102.075 87.1365 99.1337C83.9536 97.6952 81.2538 96.3226 79.8914 95.4056C74.6637 92.0531 73.3061 82.5007 73.2807 78.1435C74.2257 77.5023 75.1142 76.7702 75.9315 75.9533Z" fill="white"/>
<path d="M81.2986 62.9915C81.2992 64.1281 81.193 65.2739 80.9745 66.415C84.0725 69.4792 91.7852 75.2758 97.851 73.9482C99.4809 73.5768 102.271 72.6511 105.43 71.4597C112.183 68.9126 120.619 65.151 123 62.9941C120.591 60.8068 112.265 57.0397 105.578 54.5153C102.322 53.2864 99.4555 52.352 97.8488 52.0377C91.7826 50.7105 84.0702 56.5047 80.9724 59.5678C81.1873 60.6897 81.2981 61.8358 81.2986 62.9915Z" fill="white"/>
<path d="M50.0848 50.0433C49.2811 50.8466 48.5462 51.7319 47.8942 52.6934C43.5375 52.6687 33.9864 51.312 30.6357 46.0826C29.7424 44.6618 28.4172 42.0193 27.0202 38.9279C24.0496 32.3545 20.7541 23.7512 20.5957 20.5477C23.8504 20.7051 32.4238 23.9415 38.9409 26.8906C42.0973 28.319 44.7713 29.6799 46.125 30.591C51.3526 33.9435 52.7103 43.496 52.7357 47.8532C51.7907 48.4944 50.9021 49.2265 50.0848 50.0433Z" fill="white"/>
<path d="M50.0239 75.8974C49.2201 75.0939 48.4851 74.2086 47.8329 73.2471C43.4763 73.2712 33.9254 74.6267 30.5752 79.8557C29.6783 81.2826 28.3459 83.9415 26.9426 87.0499C23.9775 93.6179 20.6961 102.192 20.5384 105.389C23.806 105.232 32.4347 101.971 38.9608 99.0134C42.0831 97.5983 44.724 96.2526 46.0664 95.3492C51.2937 91.9973 52.6502 82.445 52.675 78.0879C51.7299 77.4465 50.8413 76.7143 50.0239 75.8974Z" fill="white"/>
<path d="M63.0696 81.2894C64.206 81.2899 65.3515 81.1838 66.4923 80.9651C69.5558 84.0639 75.3512 91.7782 74.0239 97.8454C73.6498 99.4877 72.7134 102.308 71.5096 105.496C68.9636 112.238 65.2212 120.627 63.0721 123C60.8828 120.588 57.11 112.242 54.5861 105.55C53.362 102.304 52.4317 99.4463 52.1182 97.8432C50.7923 91.7804 56.5751 84.0737 59.6394 80.9704C59.6418 80.9679 59.6442 80.9655 59.6466 80.963C60.1558 81.0606 60.67 81.1368 61.1879 81.1909C61.8107 81.2559 62.4387 81.2891 63.0696 81.2894Z" fill="white"/>
<path d="M75.9223 50.0596C76.7261 50.863 77.4611 51.7483 78.1132 52.7099C82.4699 52.6857 92.0208 51.3302 95.3709 46.1012C96.2649 44.6791 97.5914 42.0332 98.9895 38.9383C101.958 32.3663 105.25 23.7696 105.408 20.5675C102.164 20.724 93.6384 23.9379 87.1301 26.8781C83.9448 28.317 81.2428 29.6904 79.8798 30.6078C74.6525 33.9596 73.296 43.5119 73.2711 47.8691C74.2162 48.5104 75.1049 49.2426 75.9223 50.0596Z" fill="white"/>
<path d="M63.0377 44.7106C62.1893 44.7102 61.3358 44.7693 60.483 44.8902C60.1935 44.9313 59.9041 44.9795 59.615 45.0349C59.6141 45.0339 59.6131 45.0329 59.6122 45.0319C56.5478 41.9312 50.7566 34.2199 52.0834 28.1546C52.4581 26.51 53.3965 23.6844 54.6027 20.491C57.1487 13.7505 60.8875 5.37133 63.0352 3C65.2257 5.41332 69.0011 13.7661 71.525 20.4607C72.7472 23.7025 73.6759 26.5554 73.9891 28.1568C75.316 34.2244 69.5231 41.9384 66.4607 45.037C65.3391 44.822 64.1931 44.7111 63.0377 44.7106Z" fill="white"/>
<path d="M44.7014 62.9565C44.7008 61.8199 44.807 60.6741 45.0255 59.5331C41.9274 56.4688 34.2148 50.6722 28.149 51.9998C26.5005 52.3755 23.6649 53.3181 20.4618 54.5292C15.2487 49.6372 8.99533 42.9684 7.60654 40.0254C10.623 38.9469 19.8151 38.6994 27.0202 38.9279C28.4172 42.0193 29.7424 44.6618 30.6357 46.0826C33.9864 51.312 43.5375 52.6687 47.8942 52.6934C48.5462 51.7319 49.2811 50.8466 50.0848 50.0433C50.9021 49.2265 51.7907 48.4944 52.7357 47.8532C52.7103 43.496 51.3526 33.9435 46.125 30.591C44.7713 29.6799 42.0973 28.319 38.9409 26.8906C38.7176 19.6984 38.9675 10.5716 40.0411 7.56768C42.9957 8.96257 49.7064 15.2638 54.6027 20.491C53.3965 23.6844 52.4581 26.51 52.0834 28.1546C50.7566 34.2199 56.5478 41.9312 59.6122 45.0319C59.5043 45.0522 59.3965 45.0734 59.289 45.0956C58.1705 45.3262 57.0695 45.6625 56.0018 46.1043C54.9518 46.5387 53.9342 47.0753 52.9639 47.7139C51.9422 48.3865 50.973 49.1723 50.0742 50.0712C46.5056 53.6407 44.7214 58.3193 44.7217 62.9979C44.722 67.6766 46.5067 72.3553 50.0758 75.9252C51.292 77.1416 52.6368 78.1508 54.0665 78.9528C55.8232 79.9381 57.7079 80.6107 59.6394 80.9704C56.5751 84.0737 50.7923 91.7804 52.1182 97.8432C52.4317 99.4463 53.362 102.304 54.5861 105.55C49.6934 110.769 43.0078 117.043 40.0603 118.435C38.9815 115.417 38.733 106.22 38.9608 99.0134C42.0831 97.5983 44.724 96.2526 46.0664 95.3492C51.2937 91.9973 52.6502 82.445 52.675 78.0879C51.7299 77.4465 50.8413 76.7143 50.0239 75.8974C49.2201 75.0939 48.4851 74.2086 47.8329 73.2471C43.4763 73.2712 33.9254 74.6267 30.5752 79.8557C29.6783 81.2826 28.3459 83.9415 26.9426 87.0499C19.7439 87.2753 10.5815 87.0256 7.57074 85.9488C8.96006 83.0041 15.2197 76.3294 20.4342 71.4372C23.6846 72.6639 26.5464 73.5964 28.1512 73.9103C34.2174 75.2376 41.9298 69.4433 45.0276 66.3803C44.8127 65.2584 44.7019 64.1122 44.7014 62.9565Z" fill="white"/>
<path d="M78.1222 73.3033C77.4702 74.2647 76.7353 75.15 75.9315 75.9533C75.1142 76.7702 74.2257 77.5023 73.2807 78.1435C73.3061 82.5007 74.6637 92.0531 79.8914 95.4056C81.2538 96.3226 83.9536 97.6952 87.1365 99.1337C87.3604 106.268 87.0664 115.353 85.9719 118.405C83.0845 117.038 76.4392 110.744 71.5096 105.496C72.7134 102.308 73.6498 99.4877 74.0239 97.8454C75.3512 91.7782 69.5558 84.0639 66.4923 80.9651C65.3515 81.1838 64.206 81.2899 63.0696 81.2894C62.4387 81.2891 61.8107 81.2559 61.1879 81.1909C61.7904 81.2506 62.3953 81.2805 63.0002 81.2805C67.6779 81.2808 72.3554 79.4963 75.924 75.9268C77.9715 73.8789 79.4315 71.4659 80.3042 68.8973C80.9526 66.9889 81.2767 64.9945 81.2766 63.0001C81.2763 58.3215 79.4916 53.6427 75.9225 50.0728C74.7153 48.8654 73.3813 47.8621 71.9634 47.063C69.1891 45.4995 66.0936 44.7177 62.998 44.7175C62.1575 44.7175 61.317 44.775 60.483 44.8902C61.3358 44.7693 62.1893 44.7102 63.0377 44.7106C64.1931 44.7111 65.3391 44.822 66.4607 45.037C69.5231 41.9384 75.316 34.2244 73.9891 28.1568C73.6759 26.5554 72.7472 23.7025 71.525 20.4607C76.4517 15.2175 83.081 8.94106 85.964 7.57647C87.0605 10.6332 87.3548 19.739 87.1301 26.8781C83.9448 28.317 81.2428 29.6904 79.8798 30.6078C74.6525 33.9596 73.296 43.5119 73.2711 47.8691C74.2162 48.5104 75.1049 49.2426 75.9223 50.0596C76.7261 50.863 77.4611 51.7483 78.1132 52.7099C82.4699 52.6857 92.0208 51.3302 95.3709 46.1012C96.2649 44.6791 97.5914 42.0332 98.9895 38.9383C106.195 38.7106 115.388 38.9591 118.404 40.0381C117.018 42.9759 110.785 49.6262 105.578 54.5153C102.322 53.2864 99.4555 52.352 97.8488 52.0377C91.7826 50.7105 84.0702 56.5047 80.9724 59.5678C81.1873 60.6897 81.2981 61.8358 81.2986 62.9915C81.2992 64.1281 81.193 65.2739 80.9745 66.415C84.0725 69.4792 91.7852 75.2758 97.851 73.9482C99.4809 73.5768 102.271 72.6511 105.43 71.4597C110.691 76.3969 117.034 83.0907 118.407 85.9918C115.341 87.092 106.183 87.3835 99.0344 87.1533C97.6233 84.0256 96.2821 81.3478 95.3807 79.9141C92.0299 74.6847 82.4789 73.328 78.1222 73.3033Z" fill="white"/>
<path d="M44.7217 62.9979C44.7214 58.3193 46.5056 53.6407 50.0742 50.0712C50.973 49.1723 51.9422 48.3865 52.9639 47.7139C53.9342 47.0753 54.9518 46.5387 56.0018 46.1043C57.0695 45.6625 58.1705 45.3262 59.289 45.0956C59.3965 45.0734 59.5043 45.0522 59.6122 45.0319L59.615 45.0349C59.9041 44.9795 60.1935 44.9313 60.483 44.8902C61.317 44.775 62.1575 44.7175 62.998 44.7175C66.0936 44.7177 69.1891 45.4995 71.9634 47.063C73.3813 47.8621 74.7153 48.8654 75.9225 50.0728C79.4916 53.6427 81.2763 58.3215 81.2766 63.0001C81.2767 64.9945 80.9526 66.9889 80.3042 68.8973C79.4315 71.4659 77.9715 73.8789 75.924 75.9268C72.3554 79.4963 67.6779 81.2808 63.0002 81.2805C62.3953 81.2805 61.7904 81.2506 61.1879 81.1909C60.67 81.1368 60.1558 81.0606 59.6466 80.963L59.6394 80.9704C57.7079 80.6107 55.8232 79.9381 54.0665 78.9528C52.6368 78.1508 51.292 77.1416 50.0758 75.9252C46.5067 72.3553 44.722 67.6766 44.7217 62.9979Z" fill="white"/>
<path d="M59.6466 80.963C59.6442 80.9655 59.6418 80.9679 59.6394 80.9704M59.6466 80.963C60.1558 81.0606 60.67 81.1368 61.1879 81.1909M59.6466 80.963L59.6394 80.9704M59.615 45.0349C59.6141 45.0339 59.6131 45.0329 59.6122 45.0319M59.615 45.0349C59.9041 44.9795 60.1935 44.9313 60.483 44.8902M59.615 45.0349L59.6122 45.0319M66.7216 45.1006C67.8592 45.3352 68.9582 45.6756 70.0079 46.1111C70.681 46.3903 71.3337 46.7085 71.9634 47.063M73.0456 47.7228C72.6932 47.4908 72.3323 47.2707 71.9634 47.063M78.2687 52.9589C78.9073 53.9294 79.4439 54.9474 79.8784 55.9976C80.3202 57.0656 80.6565 58.1669 80.8872 59.2856M66.7249 80.8784C67.8625 80.6438 68.9614 80.3035 70.0111 79.8682C71.0784 79.4256 72.0947 78.8847 73.0486 78.2569M47.7065 73.028C47.0679 72.0574 46.5313 71.0395 46.0968 69.9892C45.655 68.9212 45.3187 67.8199 45.0879 66.7012M80.8891 66.7405C80.7374 67.4766 80.5415 68.1965 80.3042 68.8973M78.2682 73.0656C78.8959 72.1115 79.4367 71.095 79.8792 70.0274C80.0329 69.6567 80.1747 69.2799 80.3042 68.8973M47.7439 52.9511C47.1054 53.9216 46.5689 54.9395 46.1346 55.9897C45.6929 57.0576 45.3567 58.1589 45.1261 59.2776M52.9782 78.2899C53.3348 78.5246 53.6979 78.7456 54.0665 78.9528M59.3036 80.909C58.1851 80.6782 57.084 80.3418 56.0163 79.8999C55.3522 79.625 54.701 79.3093 54.0665 78.9528M71.525 20.4607C76.4517 15.2175 83.081 8.94106 85.964 7.57647C87.0605 10.6332 87.3548 19.739 87.1301 26.8781M71.525 20.4607C69.0011 13.7661 65.2257 5.41332 63.0352 3C60.8875 5.37133 57.1487 13.7505 54.6027 20.491M71.525 20.4607C72.7472 23.7025 73.6759 26.5554 73.9891 28.1568C75.316 34.2244 69.5231 41.9384 66.4607 45.037C65.3391 44.822 64.1931 44.7111 63.0377 44.7106C62.1893 44.7102 61.3358 44.7693 60.483 44.8902M54.6027 20.491C49.7064 15.2638 42.9957 8.96257 40.0411 7.56768C38.9675 10.5716 38.7176 19.6984 38.9409 26.8906M54.6027 20.491C53.3965 23.6844 52.4581 26.51 52.0834 28.1546C50.7566 34.2199 56.5478 41.9312 59.6122 45.0319M38.9409 26.8906C32.4238 23.9415 23.8504 20.7051 20.5957 20.5477C20.7541 23.7512 24.0496 32.3545 27.0202 38.9279M38.9409 26.8906C42.0973 28.319 44.7713 29.6799 46.125 30.591C51.3526 33.9435 52.7103 43.496 52.7357 47.8532C51.7907 48.4944 50.9021 49.2265 50.0848 50.0433C49.2811 50.8466 48.5462 51.7319 47.8942 52.6934C43.5375 52.6687 33.9864 51.312 30.6357 46.0826C29.7424 44.6618 28.4172 42.0193 27.0202 38.9279M27.0202 38.9279C19.8151 38.6994 10.623 38.9469 7.60654 40.0254C8.99533 42.9684 15.2487 49.6372 20.4618 54.5292M20.4618 54.5292C13.7272 57.0755 5.36784 60.8085 3 62.954C5.41007 65.1425 13.745 68.9128 20.4342 71.4372M20.4618 54.5292C23.6649 53.3181 26.5005 52.3755 28.149 51.9998C34.2148 50.6722 41.9274 56.4688 45.0255 59.5331C44.807 60.6741 44.7008 61.8199 44.7014 62.9565C44.7019 64.1122 44.8127 65.2584 45.0276 66.3803C41.9298 69.4433 34.2174 75.2376 28.1512 73.9103C26.5464 73.5964 23.6846 72.6639 20.4342 71.4372M20.4342 71.4372C15.2197 76.3294 8.96006 83.0041 7.57074 85.9488C10.5815 87.0256 19.7439 87.2753 26.9426 87.0499M26.9426 87.0499C23.9775 93.6179 20.6961 102.192 20.5384 105.389C23.806 105.232 32.4347 101.971 38.9608 99.0134M26.9426 87.0499C28.3459 83.9415 29.6783 81.2826 30.5752 79.8557C33.9254 74.6267 43.4763 73.2712 47.8329 73.2471C48.4851 74.2086 49.2201 75.0939 50.0239 75.8974C50.8413 76.7143 51.7299 77.4465 52.675 78.0879C52.6502 82.445 51.2937 91.9973 46.0664 95.3492C44.724 96.2526 42.0831 97.5983 38.9608 99.0134M38.9608 99.0134C38.733 106.22 38.9815 115.417 40.0603 118.435C43.0078 117.043 49.6934 110.769 54.5861 105.55M54.5861 105.55C57.11 112.242 60.8828 120.588 63.0721 123C65.2212 120.627 68.9636 112.238 71.5096 105.496M54.5861 105.55C53.362 102.304 52.4317 99.4463 52.1182 97.8432C50.7923 91.7804 56.5751 84.0737 59.6394 80.9704M71.5096 105.496C76.4392 110.744 83.0845 117.038 85.9719 118.405C87.0664 115.353 87.3604 106.268 87.1365 99.1337M71.5096 105.496C72.7134 102.308 73.6498 99.4877 74.0239 97.8454C75.3512 91.7782 69.5558 84.0639 66.4923 80.9651C65.3515 81.1838 64.206 81.2899 63.0696 81.2894C62.4387 81.2891 61.8107 81.2559 61.1879 81.1909M87.1365 99.1337C93.646 102.075 102.176 105.292 105.421 105.449C105.263 102.259 101.995 93.7158 99.0344 87.1533M87.1365 99.1337C83.9536 97.6952 81.2538 96.3226 79.8914 95.4056C74.6637 92.0531 73.3061 82.5007 73.2807 78.1435C74.2257 77.5023 75.1142 76.7702 75.9315 75.9533C76.7353 75.15 77.4702 74.2647 78.1222 73.3033C82.4789 73.328 92.0299 74.6847 95.3807 79.9141C96.2821 81.3478 97.6233 84.0256 99.0344 87.1533M99.0344 87.1533C106.183 87.3835 115.341 87.092 118.407 85.9918C117.034 83.0907 110.691 76.3969 105.43 71.4597M105.43 71.4597C112.183 68.9126 120.619 65.151 123 62.9941C120.591 60.8068 112.265 57.0397 105.578 54.5153M105.43 71.4597C102.271 72.6511 99.4809 73.5768 97.851 73.9482C91.7852 75.2758 84.0725 69.4792 80.9745 66.415C81.193 65.2739 81.2992 64.1281 81.2986 62.9915C81.2981 61.8358 81.1873 60.6897 80.9724 59.5678C84.0702 56.5047 91.7826 50.7105 97.8488 52.0377C99.4555 52.352 102.322 53.2864 105.578 54.5153M105.578 54.5153C110.785 49.6262 117.018 42.9759 118.404 40.0381C115.388 38.9591 106.195 38.7106 98.9895 38.9383M98.9895 38.9383C101.958 32.3663 105.25 23.7696 105.408 20.5675C102.164 20.724 93.6384 23.9379 87.1301 26.8781M98.9895 38.9383C97.5914 42.0332 96.2649 44.6791 95.3709 46.1012C92.0208 51.3302 82.4699 52.6857 78.1132 52.7099C77.4611 51.7483 76.7261 50.863 75.9223 50.0596C75.1049 49.2426 74.2162 48.5104 73.2711 47.8691C73.296 43.5119 74.6525 33.9596 79.8798 30.6078C81.2428 29.6904 83.9448 28.317 87.1301 26.8781M59.6122 45.0319C59.5043 45.0522 59.3965 45.0734 59.289 45.0956C58.1705 45.3262 57.0695 45.6625 56.0018 46.1043C54.9518 46.5387 53.9342 47.0753 52.9639 47.7139C51.9422 48.3865 50.973 49.1723 50.0742 50.0712C46.5056 53.6407 44.7214 58.3193 44.7217 62.9979C44.722 67.6766 46.5067 72.3553 50.0758 75.9252C51.292 77.1416 52.6368 78.1508 54.0665 78.9528M59.6122 45.0319C59.9015 44.9777 60.1918 44.9305 60.483 44.8902M54.0665 78.9528C55.8232 79.9381 57.7079 80.6107 59.6394 80.9704M59.6394 80.9704C60.1527 81.066 60.6694 81.1395 61.1879 81.1909M61.1879 81.1909C61.7904 81.2506 62.3953 81.2805 63.0002 81.2805C67.6779 81.2808 72.3554 79.4963 75.924 75.9268C77.9715 73.8789 79.4315 71.4659 80.3042 68.8973M80.3042 68.8973C80.9526 66.9889 81.2767 64.9945 81.2766 63.0001C81.2763 58.3215 79.4916 53.6427 75.9225 50.0728C74.7153 48.8654 73.3813 47.8621 71.9634 47.063M71.9634 47.063C69.1891 45.4995 66.0936 44.7177 62.998 44.7175C62.1575 44.7175 61.317 44.775 60.483 44.8902" stroke="#E4692E" stroke-width="3"/>
</svg>
